Playfair_5pt SemiExpanded Light.ufo
<glyph name="numbersign" format="2">
  <advance width="816"/>
  <unicode hex="0023"/>
  <outline>
    <contour>
      <point x="454" y="14" type="line"/>
      <point x="534" y="36" type="line"/>
      <point x="657" y="676" type="line"/>
      <point x="577" y="654" type="line"/>
    </contour>
    <contour>
      <point x="57" y="24" type="line"/>
      <point x="687" y="199" type="line"/>
      <point x="701" y="273" type="line"/>
      <point x="71" y="97" type="line"/>
    </contour>
    <contour>
      <point x="160" y="-68" type="line"/>
      <point x="240" y="-46" type="line"/>
      <point x="363" y="595" type="line"/>
      <point x="283" y="572" type="line"/>
    </contour>
    <contour>
      <point x="115" y="327" type="line"/>
      <point x="745" y="503" type="line"/>
      <point x="759" y="576" type="line"/>
      <point x="129" y="401" type="line"/>
    </contour>
  </outline>
</glyph>
<glyph name="percent" format="2">
  <advance width="950"/>
  <unicode hex="0025"/>
  <outline>
    <contour>
      <point x="223" y="-14" type="line"/>
      <point x="766" y="495" type="line"/>
      <point x="733" y="529" type="line"/>
      <point x="190" y="21" type="line"/>
    </contour>
    <contour>
      <point x="678" y="-14" type="curve" smooth="yes"/>
      <point x="768" y="-14"/>
      <point x="830" y="38"/>
      <point x="830" y="115" type="curve" smooth="yes"/>
      <point x="830" y="189"/>
      <point x="772" y="237"/>
      <point x="684" y="237" type="curve" smooth="yes"/>
      <point x="594" y="237"/>
      <point x="532" y="185"/>
      <point x="532" y="108" type="curve" smooth="yes"/>
      <point x="532" y="34"/>
      <point x="590" y="-14"/>
    </contour>
    <contour>
      <point x="683" y="34" type="curve" smooth="yes"/>
      <point x="631" y="34"/>
      <point x="602" y="62"/>
      <point x="602" y="113" type="curve" smooth="yes"/>
      <point x="602" y="162"/>
      <point x="629" y="189"/>
      <point x="679" y="189" type="curve" smooth="yes"/>
      <point x="731" y="189"/>
      <point x="760" y="161"/>
      <point x="760" y="112" type="curve" smooth="yes"/>
      <point x="760" y="61"/>
      <point x="734" y="34"/>
    </contour>
    <contour>
      <point x="266" y="278" type="curve" smooth="yes"/>
      <point x="356" y="278"/>
      <point x="418" y="330"/>
      <point x="418" y="406" type="curve" smooth="yes"/>
      <point x="418" y="480"/>
      <point x="360" y="529"/>
      <point x="272" y="529" type="curve" smooth="yes"/>
      <point x="182" y="529"/>
      <point x="120" y="477"/>
      <point x="120" y="400" type="curve" smooth="yes"/>
      <point x="120" y="326"/>
      <point x="178" y="278"/>
    </contour>
    <contour>
      <point x="271" y="326" type="curve" smooth="yes"/>
      <point x="218" y="326"/>
      <point x="190" y="353"/>
      <point x="190" y="404" type="curve" smooth="yes"/>
      <point x="190" y="454"/>
      <point x="217" y="481"/>
      <point x="267" y="481" type="curve" smooth="yes"/>
      <point x="319" y="481"/>
      <point x="348" y="453"/>
      <point x="348" y="404" type="curve" smooth="yes"/>
      <point x="348" y="353"/>
      <point x="322" y="326"/>
    </contour>
    <contour>
      <point x="536" y="443" type="curve" smooth="yes"/>
      <point x="590" y="443"/>
      <point x="640" y="460"/>
      <point x="719" y="503" type="curve"/>
      <point x="733" y="529" type="line"/>
      <point x="666" y="505"/>
      <point x="594" y="491"/>
      <point x="532" y="491" type="curve" smooth="yes"/>
      <point x="474" y="491"/>
      <point x="390" y="503"/>
      <point x="337" y="518" type="curve"/>
      <point x="360" y="492" type="line"/>
      <point x="422" y="459"/>
      <point x="481" y="443"/>
    </contour>
  </outline>
</glyph>
<glyph name="ampersand" format="2">
  <advance width="1420"/>
  <unicode hex="0026"/>
  <outline>
    <contour>
      <point x="462" y="-14" type="curve" smooth="yes"/>
      <point x="725" y="-14"/>
      <point x="902" y="100"/>
      <point x="991" y="327" type="curve"/>
      <point x="927" y="339" type="line"/>
      <point x="854" y="151"/>
      <point x="716" y="65"/>
      <point x="487" y="65" type="curve" smooth="yes"/>
      <point x="273" y="65"/>
      <point x="153" y="140"/>
      <point x="153" y="274" type="curve" smooth="yes"/>
      <point x="153" y="380"/>
      <point x="228" y="461"/>
      <point x="327" y="461" type="curve" smooth="yes"/>
      <point x="370" y="461"/>
      <point x="394" y="444"/>
      <point x="394" y="414" type="curve" smooth="yes"/>
      <point x="394" y="367"/>
      <point x="337" y="321"/>
      <point x="239" y="289" type="curve"/>
      <point x="266" y="223" type="line"/>
      <point x="584" y="339"/>
      <point x="807" y="504"/>
      <point x="807" y="624" type="curve" smooth="yes"/>
      <point x="807" y="674"/>
      <point x="769" y="712"/>
      <point x="720" y="712" type="curve" smooth="yes"/>
      <point x="684" y="712"/>
      <point x="656" y="690"/>
      <point x="656" y="660" type="curve" smooth="yes"/>
      <point x="656" y="627"/>
      <point x="690" y="602"/>
      <point x="690" y="567" type="curve" smooth="yes"/>
      <point x="690" y="508"/>
      <point x="595" y="432"/>
      <point x="396" y="332" type="curve"/>
      <point x="415" y="328" type="line"/>
      <point x="453" y="363"/>
      <point x="473" y="401"/>
      <point x="473" y="436" type="curve" smooth="yes"/>
      <point x="473" y="493"/>
      <point x="420" y="528"/>
      <point x="336" y="528" type="curve" smooth="yes"/>
      <point x="183" y="528"/>
      <point x="65" y="412"/>
      <point x="65" y="261" type="curve" smooth="yes"/>
      <point x="65" y="88"/>
      <point x="213" y="-14"/>
    </contour>
    <contour>
      <point x="684" y="153" type="curve" smooth="yes"/>
      <point x="719" y="153"/>
      <point x="744" y="173"/>
      <point x="744" y="201" type="curve" smooth="yes"/>
      <point x="744" y="231"/>
      <point x="714" y="247"/>
      <point x="714" y="276" type="curve" smooth="yes"/>
      <point x="714" y="310"/>
      <point x="757" y="327"/>
      <point x="843" y="327" type="curve" smooth="yes"/>
      <point x="936" y="327"/>
      <point x="1062" y="307"/>
      <point x="1156" y="307" type="curve" smooth="yes"/>
      <point x="1283" y="307"/>
      <point x="1356" y="344"/>
      <point x="1356" y="409" type="curve" smooth="yes"/>
      <point x="1356" y="443"/>
      <point x="1334" y="464"/>
      <point x="1299" y="464" type="curve" smooth="yes"/>
      <point x="1226" y="464"/>
      <point x="1256" y="375"/>
      <point x="1144" y="375" type="curve" smooth="yes"/>
      <point x="1079" y="375"/>
      <point x="975" y="405"/>
      <point x="865" y="405" type="curve" smooth="yes"/>
      <point x="706" y="405"/>
      <point x="609" y="343"/>
      <point x="609" y="241" type="curve" smooth="yes"/>
      <point x="609" y="186"/>
      <point x="637" y="153"/>
    </contour>
  </outline>
</glyph>
<glyph name="quotesingle" format="2">
  <advance width="239"/>
  <unicode hex="0027"/>
  <outline>
    <contour>
      <point x="93" y="428" type="curve"/>
      <point x="147" y="428" type="line"/>
      <point x="145" y="535"/>
      <point x="177" y="611"/>
      <point x="177" y="689" type="curve" smooth="yes"/>
      <point x="177" y="733"/>
      <point x="158" y="760"/>
      <point x="120" y="760" type="curve" smooth="yes"/>
      <point x="82" y="760"/>
      <point x="62" y="734"/>
      <point x="62" y="688" type="curve" smooth="yes"/>
      <point x="62" y="614"/>
      <point x="90" y="536"/>
    </contour>
  </outline>
</glyph>
<glyph name="asterisk" format="2">
  <advance width="515"/>
  <unicode hex="002A"/>
  <outline>
    <contour>
      <point x="441" y="623" type="curve" smooth="yes"/>
      <point x="429" y="643"/>
      <point x="405" y="657"/>
      <point x="370" y="637" type="curve" smooth="yes"/>
      <point x="337" y="618"/>
      <point x="301" y="585"/>
      <point x="249" y="533" type="curve"/>
      <point x="266" y="504" type="line"/>
      <point x="341" y="524"/>
      <point x="384" y="537"/>
      <point x="417" y="556" type="curve" smooth="yes"/>
      <point x="451" y="576"/>
      <point x="452" y="603"/>
    </contour>
    <contour>
      <point x="440" y="412" type="curve" smooth="yes"/>
      <point x="452" y="432"/>
      <point x="452" y="460"/>
      <point x="417" y="480" type="curve" smooth="yes"/>
      <point x="384" y="499"/>
      <point x="337" y="514"/>
      <point x="266" y="533" type="curve"/>
      <point x="250" y="504" type="line"/>
      <point x="304" y="449"/>
      <point x="337" y="418"/>
      <point x="370" y="399" type="curve" smooth="yes"/>
      <point x="405" y="380"/>
      <point x="428" y="392"/>
    </contour>
    <contour>
      <point x="257" y="307" type="curve" smooth="yes"/>
      <point x="280" y="307"/>
      <point x="305" y="321"/>
      <point x="304" y="361" type="curve" smooth="yes"/>
      <point x="304" y="399"/>
      <point x="294" y="447"/>
      <point x="275" y="518" type="curve"/>
      <point x="242" y="518" type="line"/>
      <point x="221" y="443"/>
      <point x="211" y="399"/>
      <point x="211" y="361" type="curve" smooth="yes"/>
      <point x="212" y="321"/>
      <point x="234" y="308"/>
    </contour>
    <contour>
      <point x="75" y="413" type="curve" smooth="yes"/>
      <point x="86" y="393"/>
      <point x="111" y="379"/>
      <point x="145" y="399" type="curve" smooth="yes"/>
      <point x="178" y="418"/>
      <point x="214" y="451"/>
      <point x="266" y="503" type="curve"/>
      <point x="250" y="532" type="line"/>
      <point x="174" y="512"/>
      <point x="131" y="499"/>
      <point x="98" y="480" type="curve" smooth="yes"/>
      <point x="64" y="459"/>
      <point x="64" y="434"/>
    </contour>
    <contour>
      <point x="75" y="624" type="curve" smooth="yes"/>
      <point x="64" y="604"/>
      <point x="64" y="576"/>
      <point x="98" y="556" type="curve" smooth="yes"/>
      <point x="131" y="537"/>
      <point x="178" y="522"/>
      <point x="249" y="503" type="curve"/>
      <point x="266" y="532" type="line"/>
      <point x="211" y="588"/>
      <point x="178" y="618"/>
      <point x="145" y="637" type="curve" smooth="yes"/>
      <point x="110" y="656"/>
      <point x="88" y="644"/>
    </contour>
    <contour>
      <point x="258" y="729" type="curve" smooth="yes"/>
      <point x="235" y="729"/>
      <point x="211" y="715"/>
      <point x="211" y="675" type="curve" smooth="yes"/>
      <point x="211" y="637"/>
      <point x="221" y="589"/>
      <point x="241" y="518" type="curve"/>
      <point x="274" y="518" type="line"/>
      <point x="294" y="593"/>
      <point x="304" y="637"/>
      <point x="304" y="675" type="curve" smooth="yes"/>
      <point x="304" y="715"/>
      <point x="281" y="729"/>
    </contour>
  </outline>
</glyph>
<glyph name="comma" format="2">
  <advance width="385"/>
  <unicode hex="002C"/>
  <outline>
    <contour>
      <point x="121" y="-185" type="line"/>
      <point x="251" y="-147"/>
      <point x="309" y="-85"/>
      <point x="309" y="14" type="curve" smooth="yes"/>
      <point x="309" y="103"/>
      <point x="263" y="156"/>
      <point x="188" y="156" type="curve" smooth="yes"/>
      <point x="127" y="156"/>
      <point x="86" y="121"/>
      <point x="86" y="70" type="curve" smooth="yes"/>
      <point x="86" y="25"/>
      <point x="117" y="-5"/>
      <point x="163" y="-5" type="curve" smooth="yes"/>
      <point x="184" y="-5"/>
      <point x="203" y="1"/>
      <point x="217" y="1" type="curve" smooth="yes"/>
      <point x="231" y="1"/>
      <point x="237" y="-5"/>
      <point x="237" y="-21" type="curve" smooth="yes"/>
      <point x="237" y="-68"/>
      <point x="192" y="-106"/>
      <point x="103" y="-133" type="curve"/>
    </contour>
  </outline>
</glyph>
<glyph name="period" format="2">
  <advance width="368"/>
  <unicode hex="002E"/>
  <anchor x="0" y="0" name="^entry"/>
  <anchor x="429" y="0" name="^exit"/>
  <anchor x="184" y="0" name="_Ldot"/>
  <anchor x="184" y="142" name="_ascender"/>
  <anchor x="184" y="0" name="_baseline"/>
  <anchor x="184" y="0" name="_center"/>
  <anchor x="184" y="0" name="center"/>
  <outline>
    <contour>
      <point x="184" y="-14" type="curve" smooth="yes"/>
      <point x="243" y="-14"/>
      <point x="282" y="20"/>
      <point x="282" y="71" type="curve" smooth="yes"/>
      <point x="282" y="122"/>
      <point x="243" y="156"/>
      <point x="184" y="156" type="curve" smooth="yes"/>
      <point x="125" y="156"/>
      <point x="86" y="122"/>
      <point x="86" y="71" type="curve" smooth="yes"/>
      <point x="86" y="20"/>
      <point x="125" y="-14"/>
    </contour>
  </outline>
</glyph>
<glyph name="zero" format="2">
  <advance width="779"/>
  <unicode hex="0030"/>
  <anchor x="389" y="260" name="center"/>
  <outline>
    <contour>
      <point x="382" y="-14" type="curve" smooth="yes"/>
      <point x="569" y="-14"/>
      <point x="693" y="97"/>
      <point x="693" y="265" type="curve" smooth="yes"/>
      <point x="693" y="426"/>
      <point x="577" y="529"/>
      <point x="397" y="529" type="curve" smooth="yes"/>
      <point x="210" y="529"/>
      <point x="86" y="418"/>
      <point x="86" y="250" type="curve" smooth="yes"/>
      <point x="86" y="90"/>
      <point x="203" y="-14"/>
    </contour>
    <contour>
      <point x="387" y="56" type="curve" smooth="yes"/>
      <point x="262" y="56"/>
      <point x="186" y="132"/>
      <point x="186" y="255" type="curve" smooth="yes"/>
      <point x="186" y="380"/>
      <point x="265" y="459"/>
      <point x="392" y="459" type="curve" smooth="yes"/>
      <point x="517" y="459"/>
      <point x="593" y="383"/>
      <point x="593" y="260" type="curve" smooth="yes"/>
      <point x="593" y="135"/>
      <point x="514" y="56"/>
    </contour>
  </outline>
</glyph>
<glyph name="one" format="2">
  <advance width="568"/>
  <unicode hex="0031"/>
  <outline>
    <contour>
      <point x="88" y="0" type="line"/>
      <point x="134" y="1"/>
      <point x="226" y="4"/>
      <point x="318" y="4" type="curve" smooth="yes"/>
      <point x="403" y="4"/>
      <point x="491" y="1"/>
      <point x="534" y="0" type="curve"/>
      <point x="534" y="71" type="line"/>
      <point x="402" y="71"/>
      <point x="360" y="91"/>
      <point x="360" y="153" type="curve" smooth="yes"/>
      <point x="360" y="536" type="line"/>
      <point x="290" y="501"/>
      <point x="211" y="487"/>
      <point x="73" y="485" type="curve"/>
      <point x="73" y="414" type="line"/>
      <point x="240" y="414"/>
      <point x="270" y="397"/>
      <point x="270" y="305" type="curve" smooth="yes"/>
      <point x="270" y="153" type="line" smooth="yes"/>
      <point x="270" y="95"/>
      <point x="217" y="71"/>
      <point x="88" y="71" type="curve"/>
    </contour>
  </outline>
</glyph>
<glyph name="two" format="2">
  <advance width="655"/>
  <unicode hex="0032"/>
  <outline>
    <contour>
      <point x="607" y="-5" type="curve"/>
      <point x="603" y="30"/>
      <point x="602" y="71"/>
      <point x="602" y="168" type="curve"/>
      <point x="535" y="168" type="line"/>
      <point x="528" y="93"/>
      <point x="513" y="77"/>
      <point x="450" y="77" type="curve" smooth="yes"/>
      <point x="228" y="77" type="line"/>
      <point x="228" y="87" type="line"/>
      <point x="494" y="242"/>
      <point x="540" y="309"/>
      <point x="540" y="381" type="curve" smooth="yes"/>
      <point x="540" y="475"/>
      <point x="458" y="529"/>
      <point x="329" y="529" type="curve" smooth="yes"/>
      <point x="185" y="529"/>
      <point x="80" y="463"/>
      <point x="80" y="373" type="curve" smooth="yes"/>
      <point x="80" y="323"/>
      <point x="110" y="291"/>
      <point x="156" y="291" type="curve" smooth="yes"/>
      <point x="190" y="291"/>
      <point x="211" y="309"/>
      <point x="211" y="336" type="curve" smooth="yes"/>
      <point x="211" y="366"/>
      <point x="185" y="388"/>
      <point x="185" y="412" type="curve" smooth="yes"/>
      <point x="185" y="440"/>
      <point x="230" y="457"/>
      <point x="303" y="457" type="curve" smooth="yes"/>
      <point x="395" y="457"/>
      <point x="443" y="430"/>
      <point x="443" y="378" type="curve" smooth="yes"/>
      <point x="443" y="306"/>
      <point x="379" y="237"/>
      <point x="87" y="67" type="curve"/>
      <point x="87" y="0" type="line"/>
      <point x="506" y="0" type="line" smooth="yes"/>
      <point x="560" y="0"/>
      <point x="597" y="-2"/>
    </contour>
  </outline>
</glyph>
<glyph name="three" format="2">
  <advance width="663"/>
  <unicode hex="0033"/>
  <outline>
    <contour>
      <point x="299" y="-150" type="curve" smooth="yes"/>
      <point x="466" y="-150"/>
      <point x="576" y="-73"/>
      <point x="576" y="43" type="curve" smooth="yes"/>
      <point x="576" y="122"/>
      <point x="525" y="180"/>
      <point x="425" y="213" type="curve"/>
      <point x="510" y="264"/>
      <point x="545" y="310"/>
      <point x="545" y="372" type="curve" smooth="yes"/>
      <point x="545" y="470"/>
      <point x="459" y="529"/>
      <point x="317" y="529" type="curve" smooth="yes"/>
      <point x="174" y="529"/>
      <point x="72" y="468"/>
      <point x="72" y="383" type="curve" smooth="yes"/>
      <point x="72" y="337"/>
      <point x="101" y="307"/>
      <point x="146" y="307" type="curve" smooth="yes"/>
      <point x="180" y="307"/>
      <point x="201" y="323"/>
      <point x="201" y="348" type="curve" smooth="yes"/>
      <point x="201" y="374"/>
      <point x="179" y="387"/>
      <point x="179" y="408" type="curve" smooth="yes"/>
      <point x="179" y="439"/>
      <point x="224" y="457"/>
      <point x="299" y="457" type="curve" smooth="yes"/>
      <point x="399" y="457"/>
      <point x="448" y="425"/>
      <point x="448" y="361" type="curve" smooth="yes"/>
      <point x="448" y="304"/>
      <point x="410" y="254"/>
      <point x="343" y="226" type="curve"/>
      <point x="324" y="228"/>
      <point x="303" y="232"/>
      <point x="288" y="232" type="curve" smooth="yes"/>
      <point x="259" y="232"/>
      <point x="238" y="214"/>
      <point x="238" y="190" type="curve" smooth="yes"/>
      <point x="238" y="167"/>
      <point x="259" y="149"/>
      <point x="287" y="149" type="curve" smooth="yes"/>
      <point x="300" y="149"/>
      <point x="315" y="153"/>
      <point x="345" y="163" type="curve"/>
      <point x="435" y="145"/>
      <point x="479" y="105"/>
      <point x="479" y="43" type="curve" smooth="yes"/>
      <point x="479" y="-33"/>
      <point x="412" y="-78"/>
      <point x="298" y="-78" type="curve" smooth="yes"/>
      <point x="220" y="-78"/>
      <point x="165" y="-57"/>
      <point x="165" y="-27" type="curve" smooth="yes"/>
      <point x="165" y="-9"/>
      <point x="185" y="10"/>
      <point x="185" y="38" type="curve" smooth="yes"/>
      <point x="185" y="64"/>
      <point x="166" y="80"/>
      <point x="135" y="80" type="curve" smooth="yes"/>
      <point x="90" y="80"/>
      <point x="58" y="45"/>
      <point x="58" y="-5" type="curve" smooth="yes"/>
      <point x="58" y="-92"/>
      <point x="154" y="-150"/>
    </contour>
  </outline>
</glyph>
<glyph name="four" format="2">
  <advance width="622"/>
  <unicode hex="0034"/>
  <outline>
    <contour>
      <point x="26" y="34" type="line"/>
      <point x="581" y="34" type="line"/>
      <point x="581" y="114" type="line"/>
      <point x="74" y="114" type="line"/>
      <point x="100" y="85" type="line"/>
      <point x="427" y="467" type="line"/>
      <point x="371" y="514" type="line"/>
      <point x="26" y="110" type="line"/>
    </contour>
    <contour>
      <point x="357" y="-141" type="line"/>
      <point x="442" y="-141" type="line"/>
      <point x="442" y="514" type="line"/>
      <point x="371" y="514" type="line"/>
      <point x="357" y="408" type="line"/>
    </contour>
  </outline>
</glyph>
<glyph name="five" format="2">
  <advance width="623"/>
  <unicode hex="0035"/>
  <outline>
    <contour>
      <point x="284" y="-150" type="curve" smooth="yes"/>
      <point x="467" y="-150"/>
      <point x="563" y="-61"/>
      <point x="563" y="68" type="curve" smooth="yes"/>
      <point x="563" y="194"/>
      <point x="475" y="277"/>
      <point x="314" y="277" type="curve" smooth="yes"/>
      <point x="265" y="277"/>
      <point x="229" y="274"/>
      <point x="198" y="268" type="curve"/>
      <point x="225" y="420" type="line"/>
      <point x="254" y="417"/>
      <point x="299" y="414"/>
      <point x="344" y="414" type="curve" smooth="yes"/>
      <point x="433" y="414"/>
      <point x="493" y="442"/>
      <point x="531" y="496" type="curve"/>
      <point x="496" y="538" type="line"/>
      <point x="456" y="514"/>
      <point x="421" y="504"/>
      <point x="353" y="504" type="curve" smooth="yes"/>
      <point x="292" y="504"/>
      <point x="238" y="509"/>
      <point x="173" y="519" type="curve"/>
      <point x="115" y="189" type="line"/>
      <point x="133" y="189" type="line"/>
      <point x="169" y="198"/>
      <point x="224" y="204"/>
      <point x="292" y="204" type="curve" smooth="yes"/>
      <point x="402" y="204"/>
      <point x="466" y="161"/>
      <point x="466" y="66" type="curve" smooth="yes"/>
      <point x="466" y="-25"/>
      <point x="400" y="-79"/>
      <point x="289" y="-79" type="curve" smooth="yes"/>
      <point x="220" y="-79"/>
      <point x="165" y="-59"/>
      <point x="165" y="-29" type="curve" smooth="yes"/>
      <point x="165" y="-6"/>
      <point x="186" y="5"/>
      <point x="186" y="38" type="curve" smooth="yes"/>
      <point x="186" y="66"/>
      <point x="166" y="82"/>
      <point x="136" y="82" type="curve" smooth="yes"/>
      <point x="89" y="82"/>
      <point x="58" y="50"/>
      <point x="58" y="-4" type="curve" smooth="yes"/>
      <point x="58" y="-93"/>
      <point x="154" y="-150"/>
    </contour>
    <contour>
      <point x="138" y="156" type="curve" smooth="yes"/>
      <point x="182" y="156"/>
      <point x="211" y="188"/>
      <point x="215" y="240" type="curve"/>
      <point x="188" y="271" type="line"/>
      <point x="138" y="264"/>
      <point x="96" y="232"/>
      <point x="96" y="194" type="curve" smooth="yes"/>
      <point x="96" y="170"/>
      <point x="112" y="156"/>
    </contour>
  </outline>
</glyph>
<glyph name="six" format="2">
  <advance width="690"/>
  <unicode hex="0036"/>
  <outline>
    <contour>
      <point x="350" y="-14" type="curve" smooth="yes"/>
      <point x="503" y="-14"/>
      <point x="604" y="81"/>
      <point x="604" y="225" type="curve" smooth="yes"/>
      <point x="604" y="358"/>
      <point x="516" y="448"/>
      <point x="386" y="448" type="curve" smooth="yes"/>
      <point x="289" y="448"/>
      <point x="206" y="397"/>
      <point x="167" y="314" type="curve"/>
      <point x="183" y="238" type="line"/>
      <point x="224" y="328"/>
      <point x="293" y="378"/>
      <point x="375" y="378" type="curve" smooth="yes"/>
      <point x="461" y="378"/>
      <point x="507" y="324"/>
      <point x="507" y="225" type="curve" smooth="yes"/>
      <point x="507" y="118"/>
      <point x="453" y="56"/>
      <point x="359" y="56" type="curve" smooth="yes"/>
      <point x="242" y="56"/>
      <point x="183" y="151"/>
      <point x="183" y="339" type="curve" smooth="yes"/>
      <point x="183" y="546"/>
      <point x="254" y="655"/>
      <point x="388" y="655" type="curve" smooth="yes"/>
      <point x="439" y="655"/>
      <point x="472" y="640"/>
      <point x="472" y="617" type="curve" smooth="yes"/>
      <point x="472" y="596"/>
      <point x="447" y="584"/>
      <point x="447" y="553" type="curve" smooth="yes"/>
      <point x="447" y="523"/>
      <point x="468" y="505"/>
      <point x="502" y="505" type="curve" smooth="yes"/>
      <point x="549" y="505"/>
      <point x="580" y="538"/>
      <point x="580" y="589" type="curve" smooth="yes"/>
      <point x="580" y="668"/>
      <point x="503" y="722"/>
      <point x="390" y="722" type="curve" smooth="yes"/>
      <point x="202" y="722"/>
      <point x="86" y="571"/>
      <point x="86" y="324" type="curve" smooth="yes"/>
      <point x="86" y="105"/>
      <point x="179" y="-14"/>
    </contour>
  </outline>
</glyph>
<glyph name="seven" format="2">
  <advance width="569"/>
  <unicode hex="0037"/>
  <outline>
    <contour>
      <point x="264" y="-148" type="curve" smooth="yes"/>
      <point x="292" y="-148"/>
      <point x="313" y="-126"/>
      <point x="313" y="-98" type="curve" smooth="yes"/>
      <point x="313" y="-77"/>
      <point x="309" y="-51"/>
      <point x="309" y="-19" type="curve" smooth="yes"/>
      <point x="309" y="189"/>
      <point x="456" y="322"/>
      <point x="528" y="443" type="curve"/>
      <point x="528" y="514" type="line"/>
      <point x="193" y="514" type="line" smooth="yes"/>
      <point x="122" y="514"/>
      <point x="65" y="516"/>
      <point x="48" y="519" type="curve"/>
      <point x="52" y="462"/>
      <point x="54" y="403"/>
      <point x="53" y="336" type="curve"/>
      <point x="126" y="336" type="line"/>
      <point x="134" y="416"/>
      <point x="158" y="437"/>
      <point x="243" y="437" type="curve" smooth="yes"/>
      <point x="445" y="437" type="line"/>
      <point x="445" y="427" type="line"/>
      <point x="293" y="249"/>
      <point x="217" y="111"/>
      <point x="217" y="-93" type="curve" smooth="yes"/>
      <point x="217" y="-126"/>
      <point x="236" y="-148"/>
    </contour>
  </outline>
</glyph>
<glyph name="eight" format="2">
  <advance width="688"/>
  <unicode hex="0038"/>
  <outline>
    <contour>
      <point x="337" y="-14" type="curve" smooth="yes"/>
      <point x="498" y="-14"/>
      <point x="601" y="68"/>
      <point x="601" y="195" type="curve" smooth="yes"/>
      <point x="601" y="440"/>
      <point x="217" y="373"/>
      <point x="217" y="552" type="curve" smooth="yes"/>
      <point x="217" y="615"/>
      <point x="265" y="652"/>
      <point x="349" y="652" type="curve" smooth="yes"/>
      <point x="435" y="652"/>
      <point x="484" y="612"/>
      <point x="484" y="544" type="curve" smooth="yes"/>
      <point x="484" y="485"/>
      <point x="442" y="427"/>
      <point x="370" y="386" type="curve"/>
      <point x="434" y="357" type="line"/>
      <point x="524" y="419"/>
      <point x="562" y="477"/>
      <point x="562" y="551" type="curve" smooth="yes"/>
      <point x="562" y="657"/>
      <point x="482" y="722"/>
      <point x="353" y="722" type="curve" smooth="yes"/>
      <point x="217" y="722"/>
      <point x="129" y="650"/>
      <point x="129" y="538" type="curve" smooth="yes"/>
      <point x="129" y="303"/>
      <point x="511" y="368"/>
      <point x="511" y="181" type="curve" smooth="yes"/>
      <point x="511" y="104"/>
      <point x="446" y="56"/>
      <point x="341" y="56" type="curve" smooth="yes"/>
      <point x="235" y="56"/>
      <point x="174" y="105"/>
      <point x="174" y="191" type="curve" smooth="yes"/>
      <point x="174" y="258"/>
      <point x="212" y="309"/>
      <point x="298" y="358" type="curve"/>
      <point x="242" y="391" type="line"/>
      <point x="140" y="337"/>
      <point x="87" y="265"/>
      <point x="87" y="179" type="curve" smooth="yes"/>
      <point x="87" y="60"/>
      <point x="183" y="-14"/>
    </contour>
  </outline>
</glyph>
<glyph name="nine" format="2">
  <advance width="690"/>
  <unicode hex="0039"/>
  <outline>
    <contour>
      <point x="305" y="-150" type="curve" smooth="yes"/>
      <point x="492" y="-150"/>
      <point x="604" y="-18"/>
      <point x="604" y="202" type="curve" smooth="yes"/>
      <point x="604" y="410"/>
      <point x="505" y="529"/>
      <point x="332" y="529" type="curve" smooth="yes"/>
      <point x="186" y="529"/>
      <point x="86" y="444"/>
      <point x="86" y="321" type="curve" smooth="yes"/>
      <point x="86" y="200"/>
      <point x="173" y="117"/>
      <point x="301" y="117" type="curve" smooth="yes"/>
      <point x="401" y="117"/>
      <point x="484" y="167"/>
      <point x="523" y="251" type="curve"/>
      <point x="507" y="327" type="line"/>
      <point x="466" y="236"/>
      <point x="397" y="187"/>
      <point x="312" y="187" type="curve" smooth="yes"/>
      <point x="228" y="187"/>
      <point x="183" y="235"/>
      <point x="183" y="321" type="curve" smooth="yes"/>
      <point x="183" y="407"/>
      <point x="236" y="459"/>
      <point x="324" y="459" type="curve" smooth="yes"/>
      <point x="443" y="459"/>
      <point x="507" y="364"/>
      <point x="507" y="188" type="curve" smooth="yes"/>
      <point x="507" y="8"/>
      <point x="439" y="-83"/>
      <point x="305" y="-83" type="curve" smooth="yes"/>
      <point x="251" y="-83"/>
      <point x="218" y="-69"/>
      <point x="218" y="-45" type="curve" smooth="yes"/>
      <point x="218" y="-24"/>
      <point x="243" y="-13"/>
      <point x="243" y="19" type="curve" smooth="yes"/>
      <point x="243" y="49"/>
      <point x="222" y="67"/>
      <point x="188" y="67" type="curve" smooth="yes"/>
      <point x="141" y="67"/>
      <point x="110" y="34"/>
      <point x="110" y="-17" type="curve" smooth="yes"/>
      <point x="110" y="-97"/>
      <point x="187" y="-150"/>
    </contour>
  </outline>
</glyph>
<glyph name="at" format="2">
  <advance width="1095"/>
  <unicode hex="0040"/>
  <outline>
    <contour>
      <point x="459" y="-161" type="curve" smooth="yes"/>
      <point x="547" y="-161"/>
      <point x="629" y="-146"/>
      <point x="692" y="-118" type="curve"/>
      <point x="675" y="-68" type="line"/>
      <point x="609" y="-92"/>
      <point x="545" y="-103"/>
      <point x="471" y="-103" type="curve" smooth="yes"/>
      <point x="264" y="-103"/>
      <point x="160" y="-15"/>
      <point x="160" y="160" type="curve" smooth="yes"/>
      <point x="160" y="412"/>
      <point x="382" y="610"/>
      <point x="664" y="610" type="curve" smooth="yes"/>
      <point x="845" y="610"/>
      <point x="947" y="528"/>
      <point x="947" y="383" type="curve" smooth="yes"/>
      <point x="947" y="241"/>
      <point x="839" y="101"/>
      <point x="728" y="101" type="curve" smooth="yes"/>
      <point x="697" y="101"/>
      <point x="689" y="114"/>
      <point x="698" y="147" type="curve" smooth="yes"/>
      <point x="740" y="299" type="line" smooth="yes"/>
      <point x="760" y="371"/>
      <point x="776" y="394"/>
      <point x="817" y="425" type="curve"/>
      <point x="778" y="478" type="line"/>
      <point x="743" y="450"/>
      <point x="714" y="430"/>
      <point x="686" y="414" type="curve"/>
      <point x="617" y="166" type="line" smooth="yes"/>
      <point x="589" y="66"/>
      <point x="612" y="26"/>
      <point x="690" y="26" type="curve" smooth="yes"/>
      <point x="861" y="26"/>
      <point x="1017" y="197"/>
      <point x="1017" y="385" type="curve" smooth="yes"/>
      <point x="1017" y="562"/>
      <point x="886" y="668"/>
      <point x="668" y="668" type="curve" smooth="yes"/>
      <point x="344" y="668"/>
      <point x="90" y="443"/>
      <point x="90" y="156" type="curve" smooth="yes"/>
      <point x="90" y="-50"/>
      <point x="220" y="-161"/>
    </contour>
    <contour>
      <point x="466" y="26" type="curve" smooth="yes"/>
      <point x="537" y="26"/>
      <point x="592" y="62"/>
      <point x="623" y="127" type="curve"/>
      <point x="627" y="182" type="line"/>
      <point x="591" y="128"/>
      <point x="556" y="106"/>
      <point x="503" y="106" type="curve" smooth="yes"/>
      <point x="440" y="106"/>
      <point x="412" y="138"/>
      <point x="412" y="209" type="curve" smooth="yes"/>
      <point x="412" y="319"/>
      <point x="486" y="408"/>
      <point x="578" y="408" type="curve" smooth="yes"/>
      <point x="622" y="408"/>
      <point x="655" y="386"/>
      <point x="678" y="343" type="curve"/>
      <point x="743" y="394" type="line"/>
      <point x="691" y="450"/>
      <point x="635" y="478"/>
      <point x="575" y="478" type="curve" smooth="yes"/>
      <point x="444" y="478"/>
      <point x="324" y="341"/>
      <point x="322" y="190" type="curve" smooth="yes"/>
      <point x="320" y="87"/>
      <point x="373" y="26"/>
    </contour>
  </outline>
</glyph>
<glyph name="A" format="2">
  <advance width="1002"/>
  <unicode hex="0041"/>
  <anchor x="492" y="0" name="bottom"/>
  <anchor x="492" y="354" name="center"/>
  <anchor x="823" y="0" name="ogonek"/>
  <anchor x="494" y="708" name="top"/>
  <anchor x="494" y="688" name="top_low_1"/>
  <anchor x="494" y="668" name="top_low_2"/>
  <anchor x="494" y="648" name="top_low_3"/>
  <outline>
    <contour>
      <point x="293" y="209" type="curve"/>
      <point x="501" y="630" type="line"/>
      <point x="466" y="623" type="line"/>
      <point x="683" y="169" type="line"/>
      <point x="711" y="107"/>
      <point x="701" y="82"/>
      <point x="632" y="75" type="curve"/>
      <point x="566" y="69" type="line"/>
      <point x="566" y="-1" type="line"/>
      <point x="641" y="1"/>
      <point x="745" y="3"/>
      <point x="820" y="3" type="curve"/>
      <point x="816" y="3" type="line"/>
      <point x="813" y="3" type="line"/>
      <point x="860" y="3"/>
      <point x="926" y="1"/>
      <point x="955" y="0" type="curve"/>
      <point x="955" y="70" type="line"/>
      <point x="902" y="75" type="line"/>
      <point x="826" y="82"/>
      <point x="817" y="102"/>
      <point x="791" y="160" type="curve"/>
      <point x="528" y="708" type="line"/>
      <point x="462" y="708" type="line"/>
      <point x="209" y="199" type="line"/>
      <point x="161" y="104"/>
      <point x="134" y="80"/>
      <point x="64" y="73" type="curve"/>
      <point x="35" y="70" type="line"/>
      <point x="35" y="0" type="line"/>
      <point x="84" y="2"/>
      <point x="143" y="3"/>
      <point x="200" y="3" type="curve"/>
      <point x="266" y="3"/>
      <point x="334" y="2"/>
      <point x="394" y="0" type="curve"/>
      <point x="394" y="70" type="line"/>
      <point x="357" y="74" type="line"/>
      <point x="273" y="83"/>
      <point x="252" y="127"/>
    </contour>
    <contour>
      <point x="264" y="226" type="line"/>
      <point x="701" y="226" type="line"/>
      <point x="674" y="297" type="line"/>
      <point x="297" y="297" type="line"/>
    </contour>
  </outline>
</glyph>
<glyph name="B" format="2">
  <advance width="891"/>
  <unicode hex="0042"/>
  <anchor x="463" y="0" name="bottom"/>
  <anchor x="303" y="367" name="center"/>
  <anchor x="473" y="0" name="currency"/>
  <anchor x="483" y="708" name="top"/>
  <anchor x="483" y="688" name="top_low_1"/>
  <anchor x="483" y="668" name="top_low_2"/>
  <anchor x="483" y="648" name="top_low_3"/>
  <outline>
    <contour>
      <point x="444" y="0" type="curve"/>
      <point x="497" y="0" type="line" smooth="yes"/>
      <point x="703" y="0"/>
      <point x="807" y="68"/>
      <point x="807" y="201" type="curve" smooth="yes"/>
      <point x="807" y="304"/>
      <point x="745" y="364"/>
      <point x="621" y="381" type="curve"/>
      <point x="621" y="383" type="line"/>
      <point x="700" y="413"/>
      <point x="740" y="465"/>
      <point x="740" y="539" type="curve" smooth="yes"/>
      <point x="740" y="649"/>
      <point x="652" y="708"/>
      <point x="486" y="708" type="curve" smooth="yes"/>
      <point x="444" y="708" type="line"/>
      <point x="402" y="708"/>
      <point x="344" y="705"/>
      <point x="302" y="705" type="curve"/>
      <point x="239" y="705"/>
      <point x="152" y="706"/>
      <point x="90" y="708" type="curve"/>
      <point x="90" y="638" type="line"/>
      <point x="156" y="632" type="line"/>
      <point x="242" y="624"/>
      <point x="256" y="613"/>
      <point x="256" y="552" type="curve"/>
      <point x="256" y="156" type="line"/>
      <point x="256" y="95"/>
      <point x="242" y="84"/>
      <point x="156" y="76" type="curve"/>
      <point x="90" y="70" type="line"/>
      <point x="90" y="0" type="line"/>
      <point x="152" y="2"/>
      <point x="239" y="3"/>
      <point x="302" y="3" type="curve"/>
      <point x="344" y="3"/>
      <point x="402" y="0"/>
    </contour>
    <contour>
      <point x="463" y="73" type="curve" smooth="yes"/>
      <point x="362" y="73"/>
      <point x="349" y="83"/>
      <point x="349" y="156" type="curve" smooth="yes"/>
      <point x="349" y="637" type="line"/>
      <point x="462" y="638" type="line" smooth="yes"/>
      <point x="590" y="639"/>
      <point x="641" y="607"/>
      <point x="641" y="528" type="curve" smooth="yes"/>
      <point x="641" y="445"/>
      <point x="580" y="402"/>
      <point x="464" y="402" type="curve" smooth="yes"/>
      <point x="334" y="402" type="line"/>
      <point x="334" y="333" type="line"/>
      <point x="513" y="333" type="line" smooth="yes"/>
      <point x="639" y="333"/>
      <point x="706" y="289"/>
      <point x="706" y="206" type="curve" smooth="yes"/>
      <point x="706" y="114"/>
      <point x="632" y="73"/>
    </contour>
  </outline>
</glyph>
<glyph name="C" format="2">
  <advance width="973"/>
  <unicode hex="0043"/>
  <anchor x="488" y="0" name="bottom"/>
  <anchor x="465" y="354" name="center"/>
  <anchor x="480" y="0" name="currency"/>
  <anchor x="202" y="354" name="middlestroke"/>
  <anchor x="461" y="708" name="top"/>
  <anchor x="461" y="688" name="top_low_1"/>
  <anchor x="461" y="668" name="top_low_2"/>
  <anchor x="461" y="648" name="top_low_3"/>
  <outline>
    <contour>
      <point x="452" y="-14" type="curve" smooth="yes"/>
      <point x="605" y="-14"/>
      <point x="683" y="59"/>
      <point x="720" y="59" type="curve" smooth="yes"/>
      <point x="738" y="59"/>
      <point x="748" y="41"/>
      <point x="754" y="-4" type="curve"/>
      <point x="827" y="-4" type="line"/>
      <point x="824" y="55"/>
      <point x="823" y="121"/>
      <point x="823" y="260" type="curve"/>
      <point x="750" y="260" type="line"/>
      <point x="709" y="128"/>
      <point x="611" y="54"/>
      <point x="477" y="54" type="curve" smooth="yes"/>
      <point x="308" y="54"/>
      <point x="202" y="170"/>
      <point x="202" y="356" type="curve" smooth="yes"/>
      <point x="202" y="540"/>
      <point x="306" y="654"/>
      <point x="476" y="654" type="curve" smooth="yes"/>
      <point x="612" y="654"/>
      <point x="710" y="580"/>
      <point x="749" y="448" type="curve"/>
      <point x="822" y="448" type="line"/>
      <point x="822" y="610"/>
      <point x="823" y="663"/>
      <point x="827" y="712" type="curve"/>
      <point x="754" y="712" type="line"/>
      <point x="749" y="668"/>
      <point x="739" y="648"/>
      <point x="722" y="648" type="curve" smooth="yes"/>
      <point x="690" y="648"/>
      <point x="622" y="722"/>
      <point x="467" y="722" type="curve" smooth="yes"/>
      <point x="246" y="722"/>
      <point x="102" y="574"/>
      <point x="102" y="348" type="curve" smooth="yes"/>
      <point x="102" y="127"/>
      <point x="239" y="-14"/>
    </contour>
  </outline>
</glyph>
<glyph name="D" format="2">
  <advance width="1024"/>
  <unicode hex="0044"/>
  <anchor x="510" y="0" name="bottom"/>
  <anchor x="303" y="356" name="center"/>
  <anchor x="545" y="708" name="top"/>
  <anchor x="545" y="688" name="top_low_1"/>
  <anchor x="545" y="668" name="top_low_2"/>
  <anchor x="545" y="648" name="top_low_3"/>
  <outline>
    <contour>
      <point x="444" y="0" type="curve"/>
      <point x="473" y="0" type="line" smooth="yes"/>
      <point x="770" y="0"/>
      <point x="922" y="124"/>
      <point x="922" y="366" type="curve" smooth="yes"/>
      <point x="922" y="598"/>
      <point x="781" y="708"/>
      <point x="482" y="708" type="curve" smooth="yes"/>
      <point x="444" y="708" type="line"/>
      <point x="402" y="708"/>
      <point x="344" y="705"/>
      <point x="302" y="705" type="curve"/>
      <point x="239" y="705"/>
      <point x="152" y="706"/>
      <point x="90" y="708" type="curve"/>
      <point x="90" y="638" type="line"/>
      <point x="156" y="632" type="line"/>
      <point x="242" y="624"/>
      <point x="256" y="613"/>
      <point x="256" y="552" type="curve"/>
      <point x="256" y="156" type="line"/>
      <point x="256" y="95"/>
      <point x="242" y="84"/>
      <point x="156" y="76" type="curve"/>
      <point x="90" y="70" type="line"/>
      <point x="90" y="0" type="line"/>
      <point x="152" y="2"/>
      <point x="239" y="3"/>
      <point x="302" y="3" type="curve"/>
      <point x="344" y="3"/>
      <point x="402" y="0"/>
    </contour>
    <contour>
      <point x="467" y="68" type="curve" smooth="yes"/>
      <point x="365" y="68"/>
      <point x="349" y="79"/>
      <point x="349" y="154" type="curve" smooth="yes"/>
      <point x="349" y="640" type="line"/>
      <point x="468" y="640" type="line" smooth="yes"/>
      <point x="712" y="640"/>
      <point x="822" y="552"/>
      <point x="822" y="359" type="curve" smooth="yes"/>
      <point x="822" y="162"/>
      <point x="708" y="68"/>
    </contour>
  </outline>
</glyph>
<glyph name="E" format="2">
  <advance width="932"/>
  <unicode hex="0045"/>
  <anchor x="469" y="0" name="bottom"/>
  <anchor x="454" y="354" name="center"/>
  <anchor x="754" y="0" name="ogonek"/>
  <anchor x="454" y="708" name="top"/>
  <anchor x="454" y="688" name="top_low_1"/>
  <anchor x="454" y="668" name="top_low_2"/>
  <anchor x="454" y="648" name="top_low_3"/>
  <outline>
    <contour>
      <point x="292" y="3" type="curve"/>
      <point x="304" y="3" type="line"/>
      <point x="507" y="3" type="line"/>
      <point x="632" y="3"/>
      <point x="727" y="2"/>
      <point x="800" y="0" type="curve"/>
      <point x="800" y="88"/>
      <point x="806" y="165"/>
      <point x="820" y="250" type="curve"/>
      <point x="747" y="250" type="line"/>
      <point x="696" y="104"/>
      <point x="653" y="73"/>
      <point x="501" y="73" type="curve"/>
      <point x="435" y="73" type="line"/>
      <point x="363" y="73"/>
      <point x="349" y="88"/>
      <point x="349" y="169" type="curve"/>
      <point x="349" y="635" type="line"/>
      <point x="469" y="635" type="line"/>
      <point x="608" y="635"/>
      <point x="650" y="613"/>
      <point x="689" y="508" type="curve"/>
      <point x="762" y="508" type="line"/>
      <point x="754" y="576"/>
      <point x="750" y="638"/>
      <point x="750" y="708" type="curve"/>
      <point x="693" y="706"/>
      <point x="619" y="705"/>
      <point x="521" y="705" type="curve"/>
      <point x="304" y="705" type="line"/>
      <point x="292" y="705" type="line"/>
      <point x="232" y="705"/>
      <point x="149" y="706"/>
      <point x="90" y="708" type="curve"/>
      <point x="90" y="638" type="line"/>
      <point x="156" y="632" type="line"/>
      <point x="239" y="624"/>
      <point x="256" y="610"/>
      <point x="256" y="552" type="curve"/>
      <point x="256" y="156" type="line"/>
      <point x="256" y="98"/>
      <point x="239" y="84"/>
      <point x="156" y="76" type="curve"/>
      <point x="90" y="70" type="line"/>
      <point x="90" y="0" type="line"/>
      <point x="149" y="2"/>
      <point x="232" y="3"/>
    </contour>
    <contour>
      <point x="306" y="321" type="line"/>
      <point x="543" y="321" type="line"/>
      <point x="543" y="391" type="line"/>
      <point x="306" y="391" type="line"/>
    </contour>
    <contour>
      <point x="540" y="214" type="curve"/>
      <point x="610" y="214" type="line"/>
      <point x="605" y="290"/>
      <point x="605" y="323"/>
      <point x="605" y="356" type="curve" smooth="yes"/>
      <point x="605" y="389"/>
      <point x="605" y="422"/>
      <point x="610" y="498" type="curve"/>
      <point x="540" y="498" type="line"/>
      <point x="533" y="433"/>
      <point x="507" y="391"/>
      <point x="439" y="391" type="curve"/>
      <point x="439" y="321" type="line"/>
      <point x="507" y="321"/>
      <point x="533" y="279"/>
    </contour>
  </outline>
</glyph>
<glyph name="G" format="2">
  <advance width="885"/>
  <unicode hex="0047"/>
  <anchor x="471" y="0" name="bottom"/>
  <anchor x="440" y="708" name="top"/>
  <anchor x="440" y="688" name="top_low_1"/>
  <anchor x="440" y="668" name="top_low_2"/>
  <anchor x="440" y="648" name="top_low_3"/>
  <outline>
    <contour>
      <point x="433" y="-14" type="curve" smooth="yes"/>
      <point x="573" y="-14"/>
      <point x="644" y="37"/>
      <point x="670" y="37" type="curve" smooth="yes"/>
      <point x="687" y="37"/>
      <point x="696" y="26"/>
      <point x="700" y="0" type="curve"/>
      <point x="770" y="0" type="line"/>
      <point x="770" y="168" type="line" smooth="yes"/>
      <point x="770" y="240"/>
      <point x="784" y="251"/>
      <point x="877" y="254" type="curve"/>
      <point x="877" y="324" type="line"/>
      <point x="831" y="322"/>
      <point x="774" y="321"/>
      <point x="700" y="321" type="curve" smooth="yes"/>
      <point x="604" y="321"/>
      <point x="543" y="322"/>
      <point x="521" y="324" type="curve"/>
      <point x="521" y="254" type="line"/>
      <point x="645" y="252"/>
      <point x="677" y="241"/>
      <point x="677" y="201" type="curve" smooth="yes"/>
      <point x="677" y="180" type="line" smooth="yes"/>
      <point x="677" y="107"/>
      <point x="586" y="54"/>
      <point x="459" y="54" type="curve" smooth="yes"/>
      <point x="277" y="54"/>
      <point x="172" y="164"/>
      <point x="172" y="353" type="curve" smooth="yes"/>
      <point x="172" y="534"/>
      <point x="278" y="654"/>
      <point x="438" y="654" type="curve" smooth="yes"/>
      <point x="571" y="654"/>
      <point x="670" y="577"/>
      <point x="704" y="448" type="curve"/>
      <point x="777" y="448" type="line"/>
      <point x="777" y="612"/>
      <point x="778" y="664"/>
      <point x="782" y="708" type="curve"/>
      <point x="709" y="708" type="line"/>
      <point x="704" y="667"/>
      <point x="693" y="647"/>
      <point x="675" y="647" type="curve" smooth="yes"/>
      <point x="641" y="647"/>
      <point x="580" y="722"/>
      <point x="431" y="722" type="curve" smooth="yes"/>
      <point x="218" y="722"/>
      <point x="72" y="567"/>
      <point x="72" y="339" type="curve" smooth="yes"/>
      <point x="72" y="122"/>
      <point x="211" y="-14"/>
    </contour>
  </outline>
</glyph>
<glyph name="I" format="2">
  <advance width="605"/>
  <unicode hex="0049"/>
  <anchor x="90" y="0" name="#entry"/>
  <anchor x="515" y="0" name="^exit"/>
  <anchor x="303" y="0" name="bottom"/>
  <anchor x="302" y="354" name="center"/>
  <anchor x="474" y="0" name="ogonek"/>
  <anchor x="302" y="708" name="top"/>
  <anchor x="302" y="688" name="top_low_1"/>
  <anchor x="302" y="668" name="top_low_2"/>
  <anchor x="302" y="648" name="top_low_3"/>
  <outline>
    <contour>
      <point x="292" y="3" type="curve"/>
      <point x="303" y="3" type="line"/>
      <point x="313" y="3" type="line"/>
      <point x="373" y="3"/>
      <point x="456" y="2"/>
      <point x="515" y="0" type="curve"/>
      <point x="515" y="70" type="line"/>
      <point x="449" y="76" type="line"/>
      <point x="366" y="84"/>
      <point x="349" y="98"/>
      <point x="349" y="156" type="curve"/>
      <point x="349" y="552" type="line"/>
      <point x="349" y="610"/>
      <point x="366" y="624"/>
      <point x="449" y="632" type="curve"/>
      <point x="515" y="638" type="line"/>
      <point x="515" y="708" type="line"/>
      <point x="456" y="706"/>
      <point x="373" y="705"/>
      <point x="313" y="705" type="curve"/>
      <point x="302" y="705" type="line"/>
      <point x="292" y="705" type="line"/>
      <point x="232" y="705"/>
      <point x="149" y="706"/>
      <point x="90" y="708" type="curve"/>
      <point x="90" y="638" type="line"/>
      <point x="156" y="632" type="line"/>
      <point x="239" y="624"/>
      <point x="256" y="610"/>
      <point x="256" y="552" type="curve"/>
      <point x="256" y="156" type="line"/>
      <point x="256" y="98"/>
      <point x="239" y="84"/>
      <point x="156" y="76" type="curve"/>
      <point x="90" y="70" type="line"/>
      <point x="90" y="0" type="line"/>
      <point x="149" y="2"/>
      <point x="232" y="3"/>
    </contour>
  </outline>
</glyph>
<glyph name="K" format="2">
  <advance width="1025"/>
  <unicode hex="004B"/>
  <anchor x="539" y="0" name="bottom"/>
  <anchor x="569" y="356" name="center"/>
  <anchor x="302" y="520" name="stroke"/>
  <anchor x="508" y="708" name="top"/>
  <anchor x="508" y="688" name="top_low_1"/>
  <anchor x="508" y="668" name="top_low_2"/>
  <anchor x="508" y="648" name="top_low_3"/>
  <outline>
    <contour>
      <point x="740" y="0" type="curve"/>
      <point x="779" y="2"/>
      <point x="798" y="3"/>
      <point x="823" y="3" type="curve" smooth="yes"/>
      <point x="855" y="3"/>
      <point x="884" y="2"/>
      <point x="978" y="0" type="curve"/>
      <point x="978" y="70" type="line"/>
      <point x="880" y="74"/>
      <point x="835" y="94"/>
      <point x="797" y="147" type="curve" smooth="yes"/>
      <point x="707" y="274" type="line" smooth="yes"/>
      <point x="648" y="357"/>
      <point x="622" y="377"/>
      <point x="556" y="392" type="curve"/>
      <point x="575" y="356" type="line"/>
      <point x="759" y="541" type="line" smooth="yes"/>
      <point x="824" y="606"/>
      <point x="864" y="626"/>
      <point x="950" y="638" type="curve"/>
      <point x="950" y="708" type="line"/>
      <point x="904" y="706"/>
      <point x="843" y="705"/>
      <point x="769" y="705" type="curve" smooth="yes"/>
      <point x="705" y="705"/>
      <point x="642" y="706"/>
      <point x="555" y="708" type="curve"/>
      <point x="555" y="638" type="line"/>
      <point x="700" y="636"/>
      <point x="724" y="604"/>
      <point x="654" y="534" type="curve" smooth="yes"/>
      <point x="561" y="441" type="line" smooth="yes"/>
      <point x="524" y="404"/>
      <point x="492" y="391"/>
      <point x="438" y="391" type="curve" smooth="yes"/>
      <point x="311" y="391" type="line"/>
      <point x="311" y="321" type="line"/>
      <point x="438" y="321" type="line" smooth="yes"/>
      <point x="544" y="321"/>
      <point x="574" y="305"/>
      <point x="626" y="232" type="curve" smooth="yes"/>
      <point x="711" y="112" type="line" smooth="yes"/>
      <point x="731" y="84"/>
      <point x="741" y="46"/>
    </contour>
    <contour>
      <point x="292" y="3" type="curve"/>
      <point x="302" y="3" type="line"/>
      <point x="313" y="3" type="line"/>
      <point x="373" y="3"/>
      <point x="456" y="2"/>
      <point x="515" y="0" type="curve"/>
      <point x="515" y="70" type="line"/>
      <point x="449" y="76" type="line"/>
      <point x="366" y="84"/>
      <point x="349" y="98"/>
      <point x="349" y="156" type="curve"/>
      <point x="349" y="708" type="line"/>
      <point x="333" y="706"/>
      <point x="318" y="705"/>
      <point x="302" y="705" type="curve"/>
      <point x="292" y="705" type="line"/>
      <point x="232" y="705"/>
      <point x="149" y="706"/>
      <point x="90" y="708" type="curve"/>
      <point x="90" y="638" type="line"/>
      <point x="156" y="632" type="line"/>
      <point x="239" y="624"/>
      <point x="256" y="610"/>
      <point x="256" y="552" type="curve"/>
      <point x="256" y="156" type="line"/>
      <point x="256" y="98"/>
      <point x="239" y="84"/>
      <point x="156" y="76" type="curve"/>
      <point x="90" y="70" type="line"/>
      <point x="90" y="0" type="line"/>
      <point x="149" y="2"/>
      <point x="232" y="3"/>
    </contour>
  </outline>
</glyph>
<glyph name="M" format="2">
  <advance width="1278"/>
  <unicode hex="004D"/>
  <anchor x="640" y="0" name="bottom"/>
  <anchor x="640" y="708" name="top"/>
  <anchor x="640" y="688" name="top_low_1"/>
  <anchor x="640" y="668" name="top_low_2"/>
  <anchor x="640" y="648" name="top_low_3"/>
  <outline>
    <contour>
      <point x="604" y="0" type="line"/>
      <point x="670" y="0" type="line"/>
      <point x="898" y="627" type="line"/>
      <point x="929" y="627" type="line"/>
      <point x="929" y="156" type="line"/>
      <point x="929" y="96"/>
      <point x="916" y="82"/>
      <point x="852" y="74" type="curve"/>
      <point x="813" y="70" type="line"/>
      <point x="813" y="0" type="line"/>
      <point x="859" y="2"/>
      <point x="924" y="3"/>
      <point x="971" y="3" type="curve"/>
      <point x="976" y="3" type="line"/>
      <point x="986" y="3" type="line"/>
      <point x="1046" y="3"/>
      <point x="1129" y="2"/>
      <point x="1188" y="0" type="curve"/>
      <point x="1188" y="70" type="line"/>
      <point x="1122" y="76" type="line"/>
      <point x="1039" y="84"/>
      <point x="1022" y="98"/>
      <point x="1022" y="156" type="curve"/>
      <point x="1022" y="552" type="line"/>
      <point x="1022" y="610"/>
      <point x="1039" y="624"/>
      <point x="1122" y="632" type="curve"/>
      <point x="1188" y="638" type="line"/>
      <point x="1188" y="708" type="line"/>
      <point x="1129" y="706"/>
      <point x="1046" y="705"/>
      <point x="986" y="705" type="curve"/>
      <point x="974" y="705" type="line"/>
      <point x="916" y="705"/>
      <point x="880" y="705"/>
      <point x="852" y="708" type="curve"/>
      <point x="622" y="74" type="line"/>
      <point x="674" y="77" type="line"/>
      <point x="429" y="708" type="line"/>
      <point x="406" y="706"/>
      <point x="365" y="705"/>
      <point x="306" y="705" type="curve"/>
      <point x="292" y="705" type="line"/>
      <point x="232" y="705"/>
      <point x="149" y="706"/>
      <point x="90" y="708" type="curve"/>
      <point x="90" y="638" type="line"/>
      <point x="156" y="632" type="line"/>
      <point x="239" y="624"/>
      <point x="256" y="610"/>
      <point x="256" y="552" type="curve"/>
      <point x="256" y="156" type="line"/>
      <point x="256" y="95"/>
      <point x="242" y="84"/>
      <point x="156" y="76" type="curve"/>
      <point x="90" y="70" type="line"/>
      <point x="90" y="0" type="line"/>
      <point x="149" y="2"/>
      <point x="233" y="3"/>
      <point x="293" y="3" type="curve"/>
      <point x="344" y="3"/>
      <point x="415" y="2"/>
      <point x="465" y="0" type="curve"/>
      <point x="465" y="70" type="line"/>
      <point x="409" y="75" type="line"/>
      <point x="339" y="81"/>
      <point x="329" y="95"/>
      <point x="329" y="156" type="curve"/>
      <point x="329" y="628" type="line"/>
      <point x="360" y="628" type="line"/>
    </contour>
  </outline>
</glyph>
<glyph name="O" format="2">
  <advance width="988"/>
  <unicode hex="004F"/>
  <anchor x="495" y="-5" name="bottom"/>
  <anchor x="495" y="359" name="center"/>
  <anchor x="622" y="0" name="ogonek"/>
  <anchor x="494" y="708" name="top"/>
  <anchor x="494" y="688" name="top_low_1"/>
  <anchor x="494" y="668" name="top_low_2"/>
  <anchor x="494" y="648" name="top_low_3"/>
  <anchor x="56" y="708" name="topleft"/>
  <anchor x="932" y="708" name="topright"/>
  <outline>
    <contour>
      <point x="494" y="-14" type="curve" smooth="yes"/>
      <point x="744" y="-14"/>
      <point x="886" y="129"/>
      <point x="886" y="354" type="curve" smooth="yes"/>
      <point x="886" y="579"/>
      <point x="744" y="722"/>
      <point x="494" y="722" type="curve" smooth="yes"/>
      <point x="244" y="722"/>
      <point x="102" y="579"/>
      <point x="102" y="354" type="curve" smooth="yes"/>
      <point x="102" y="129"/>
      <point x="244" y="-14"/>
    </contour>
    <contour>
      <point x="494" y="54" type="curve" smooth="yes"/>
      <point x="311" y="54"/>
      <point x="202" y="166"/>
      <point x="202" y="354" type="curve" smooth="yes"/>
      <point x="202" y="542"/>
      <point x="311" y="654"/>
      <point x="494" y="654" type="curve" smooth="yes"/>
      <point x="677" y="654"/>
      <point x="786" y="542"/>
      <point x="786" y="354" type="curve" smooth="yes"/>
      <point x="786" y="165"/>
      <point x="678" y="54"/>
    </contour>
  </outline>
</glyph>
<glyph name="R" format="2">
  <advance width="904"/>
  <unicode hex="0052"/>
  <anchor x="256" y="0" name="baseline_left"/>
  <anchor x="513" y="0" name="bottom"/>
  <anchor x="302" y="346" name="center"/>
  <anchor x="256" y="180" name="stem"/>
  <anchor x="461" y="708" name="top"/>
  <outline>
    <contour>
      <point x="256" y="180" type="line"/>
      <point x="349" y="180" type="line"/>
      <point x="349" y="638" type="line"/>
      <point x="472" y="638" type="line" smooth="yes"/>
      <point x="614" y="638"/>
      <point x="679" y="601"/>
      <point x="679" y="520" type="curve" smooth="yes"/>
      <point x="679" y="429"/>
      <point x="605" y="381"/>
      <point x="464" y="381" type="curve" smooth="yes"/>
      <point x="308" y="381" type="line"/>
      <point x="308" y="326" type="line"/>
      <point x="457" y="326" type="line" smooth="yes"/>
      <point x="669" y="326"/>
      <point x="779" y="393"/>
      <point x="779" y="521" type="curve" smooth="yes"/>
      <point x="779" y="644"/>
      <point x="679" y="708"/>
      <point x="486" y="708" type="curve" smooth="yes"/>
      <point x="454" y="708"/>
      <point x="387" y="705"/>
      <point x="302" y="705" type="curve"/>
      <point x="292" y="705" type="line"/>
      <point x="232" y="705"/>
      <point x="149" y="706"/>
      <point x="90" y="708" type="curve"/>
      <point x="90" y="638" type="line"/>
      <point x="156" y="632" type="line"/>
      <point x="239" y="624"/>
      <point x="256" y="610"/>
      <point x="256" y="552" type="curve"/>
    </contour>
    <contour>
      <point x="796" y="-14" type="curve" smooth="yes"/>
      <point x="844" y="-14"/>
      <point x="885" y="7"/>
      <point x="919" y="50" type="curve"/>
      <point x="878" y="101" type="line"/>
      <point x="860" y="82"/>
      <point x="839" y="73"/>
      <point x="815" y="73" type="curve" smooth="yes"/>
      <point x="784" y="73"/>
      <point x="767" y="88"/>
      <point x="754" y="126" type="curve" smooth="yes"/>
      <point x="735" y="183" type="line" smooth="yes"/>
      <point x="688" y="324"/>
      <point x="634" y="358"/>
      <point x="457" y="358" type="curve" smooth="yes"/>
      <point x="310" y="358" type="line"/>
      <point x="310" y="311" type="line"/>
      <point x="464" y="311" type="line" smooth="yes"/>
      <point x="563" y="311"/>
      <point x="600" y="286"/>
      <point x="631" y="196" type="curve" smooth="yes"/>
      <point x="666" y="94" type="line" smooth="yes"/>
      <point x="691" y="20"/>
      <point x="733" y="-14"/>
    </contour>
    <contour>
      <point x="292" y="3" type="curve"/>
      <point x="303" y="3" type="line"/>
      <point x="307" y="3" type="line"/>
      <point x="354" y="3"/>
      <point x="419" y="2"/>
      <point x="465" y="0" type="curve"/>
      <point x="465" y="70" type="line"/>
      <point x="426" y="74" type="line"/>
      <point x="362" y="82"/>
      <point x="349" y="96"/>
      <point x="349" y="156" type="curve"/>
      <point x="349" y="180" type="line"/>
      <point x="256" y="180" type="line"/>
      <point x="256" y="156" type="line"/>
      <point x="256" y="98"/>
      <point x="239" y="84"/>
      <point x="156" y="76" type="curve"/>
      <point x="90" y="70" type="line"/>
      <point x="90" y="0" type="line"/>
      <point x="149" y="2"/>
      <point x="232" y="3"/>
    </contour>
  </outline>
</glyph>
<glyph name="S" format="2">
  <advance width="851"/>
  <unicode hex="0053"/>
  <anchor x="467" y="0" name="bottom"/>
  <anchor x="424" y="354" name="center"/>
  <anchor x="430" y="0" name="currency"/>
  <anchor x="442" y="708" name="top"/>
  <anchor x="442" y="688" name="top_low_1"/>
  <anchor x="442" y="668" name="top_low_2"/>
  <anchor x="442" y="648" name="top_low_3"/>
  <outline>
    <contour>
      <point x="472" y="-14" type="curve" smooth="yes"/>
      <point x="645" y="-14"/>
      <point x="755" y="67"/>
      <point x="755" y="194" type="curve" smooth="yes"/>
      <point x="755" y="313"/>
      <point x="658" y="383"/>
      <point x="465" y="405" type="curve" smooth="yes"/>
      <point x="295" y="424"/>
      <point x="220" y="466"/>
      <point x="220" y="541" type="curve" smooth="yes"/>
      <point x="220" y="612"/>
      <point x="283" y="653"/>
      <point x="390" y="653" type="curve" smooth="yes"/>
      <point x="527" y="653"/>
      <point x="618" y="585"/>
      <point x="647" y="462" type="curve"/>
      <point x="720" y="462" type="line"/>
      <point x="720" y="573"/>
      <point x="722" y="654"/>
      <point x="726" y="712" type="curve"/>
      <point x="653" y="712" type="line"/>
      <point x="646" y="676"/>
      <point x="637" y="664"/>
      <point x="617" y="664" type="curve" smooth="yes"/>
      <point x="574" y="664"/>
      <point x="505" y="722"/>
      <point x="370" y="722" type="curve" smooth="yes"/>
      <point x="217" y="722"/>
      <point x="120" y="646"/>
      <point x="120" y="527" type="curve" smooth="yes"/>
      <point x="120" y="411"/>
      <point x="206" y="349"/>
      <point x="427" y="319" type="curve" smooth="yes"/>
      <point x="590" y="297"/>
      <point x="651" y="254"/>
      <point x="651" y="179" type="curve" smooth="yes"/>
      <point x="651" y="102"/>
      <point x="580" y="56"/>
      <point x="463" y="56" type="curve" smooth="yes"/>
      <point x="305" y="56"/>
      <point x="200" y="138"/>
      <point x="176" y="282" type="curve"/>
      <point x="103" y="282" type="line"/>
      <point x="103" y="135"/>
      <point x="101" y="40"/>
      <point x="97" y="-4" type="curve"/>
      <point x="170" y="-4" type="line"/>
      <point x="176" y="28"/>
      <point x="187" y="44"/>
      <point x="204" y="44" type="curve" smooth="yes"/>
      <point x="236" y="44"/>
      <point x="325" y="-14"/>
    </contour>
  </outline>
</glyph>
<glyph name="V" format="2">
  <advance width="1002"/>
  <unicode hex="0056"/>
  <anchor x="506" y="0" name="bottom"/>
  <anchor x="509" y="708" name="top"/>
  <anchor x="509" y="688" name="top_low_1"/>
  <anchor x="509" y="668" name="top_low_2"/>
  <anchor x="509" y="648" name="top_low_3"/>
  <outline>
    <contour>
      <point x="474" y="0" type="line"/>
      <point x="540" y="0" type="line"/>
      <point x="793" y="509" type="line"/>
      <point x="841" y="604"/>
      <point x="868" y="628"/>
      <point x="938" y="635" type="curve"/>
      <point x="967" y="638" type="line"/>
      <point x="967" y="708" type="line"/>
      <point x="918" y="706"/>
      <point x="859" y="705"/>
      <point x="802" y="705" type="curve"/>
      <point x="736" y="705"/>
      <point x="668" y="706"/>
      <point x="608" y="708" type="curve"/>
      <point x="608" y="638" type="line"/>
      <point x="645" y="634" type="line"/>
      <point x="729" y="625"/>
      <point x="750" y="581"/>
      <point x="709" y="499" type="curve"/>
      <point x="501" y="78" type="line"/>
      <point x="536" y="85" type="line"/>
      <point x="319" y="539" type="line"/>
      <point x="291" y="601"/>
      <point x="301" y="626"/>
      <point x="370" y="633" type="curve"/>
      <point x="436" y="639" type="line"/>
      <point x="436" y="709" type="line"/>
      <point x="361" y="707"/>
      <point x="257" y="705"/>
      <point x="182" y="705" type="curve"/>
      <point x="186" y="705" type="line"/>
      <point x="189" y="705" type="line"/>
      <point x="142" y="705"/>
      <point x="76" y="707"/>
      <point x="47" y="708" type="curve"/>
      <point x="47" y="638" type="line"/>
      <point x="100" y="633" type="line"/>
      <point x="176" y="626"/>
      <point x="185" y="606"/>
      <point x="211" y="548" type="curve"/>
    </contour>
  </outline>
</glyph>
<glyph name="W" format="2">
  <advance width="1253"/>
  <unicode hex="0057"/>
  <anchor x="632" y="0" name="bottom"/>
  <anchor x="629" y="356" name="currency"/>
  <anchor x="639" y="708" name="top"/>
  <anchor x="639" y="688" name="top_low_1"/>
  <anchor x="639" y="668" name="top_low_2"/>
  <anchor x="639" y="648" name="top_low_3"/>
  <outline>
    <contour>
      <point x="819" y="0" type="line"/>
      <point x="885" y="0" type="line"/>
      <point x="1086" y="502" type="line"/>
      <point x="1126" y="600"/>
      <point x="1144" y="628"/>
      <point x="1214" y="635" type="curve"/>
      <point x="1243" y="638" type="line"/>
      <point x="1243" y="708" type="line"/>
      <point x="1194" y="706"/>
      <point x="1135" y="705"/>
      <point x="1078" y="705" type="curve"/>
      <point x="1012" y="705"/>
      <point x="944" y="706"/>
      <point x="884" y="708" type="curve"/>
      <point x="884" y="638" type="line"/>
      <point x="921" y="634" type="line"/>
      <point x="1005" y="625"/>
      <point x="1036" y="576"/>
      <point x="1002" y="491" type="curve"/>
      <point x="860" y="125" type="line"/>
      <point x="870" y="126" type="line"/>
      <point x="695" y="545" type="line"/>
      <point x="671" y="609"/>
      <point x="688" y="629"/>
      <point x="740" y="636" type="curve"/>
      <point x="766" y="639" type="line"/>
      <point x="766" y="709" type="line"/>
      <point x="728" y="707"/>
      <point x="636" y="705"/>
      <point x="571" y="705" type="curve"/>
      <point x="576" y="705" type="line"/>
      <point x="578" y="705" type="line"/>
      <point x="539" y="705"/>
      <point x="486" y="707"/>
      <point x="460" y="708" type="curve"/>
      <point x="460" y="638" type="line"/>
      <point x="500" y="634" type="line"/>
      <point x="564" y="627"/>
      <point x="567" y="608"/>
      <point x="592" y="545" type="curve"/>
    </contour>
    <contour>
      <point x="379" y="0" type="line"/>
      <point x="445" y="0" type="line"/>
      <point x="646" y="520" type="line"/>
      <point x="604" y="605" type="line"/>
      <point x="409" y="100" type="line"/>
      <point x="439" y="104" type="line"/>
      <point x="258" y="541" type="line"/>
      <point x="234" y="604"/>
      <point x="251" y="628"/>
      <point x="310" y="634" type="curve"/>
      <point x="352" y="639" type="line"/>
      <point x="352" y="709" type="line"/>
      <point x="299" y="707"/>
      <point x="202" y="705"/>
      <point x="133" y="705" type="curve"/>
      <point x="138" y="705" type="line"/>
      <point x="142" y="705" type="line"/>
      <point x="95" y="705"/>
      <point x="29" y="707"/>
      <point x="0" y="708" type="curve"/>
      <point x="0" y="638" type="line"/>
      <point x="53" y="633" type="line"/>
      <point x="129" y="626"/>
      <point x="132" y="603"/>
      <point x="155" y="544" type="curve"/>
    </contour>
  </outline>
</glyph>
<glyph name="X" format="2">
  <advance width="949"/>
  <unicode hex="0058"/>
  <anchor x="474" y="0" name="bottom"/>
  <anchor x="927" y="0" name="bottomright"/>
  <anchor x="474" y="708" name="top"/>
  <anchor x="474" y="688" name="top_low_1"/>
  <anchor x="474" y="668" name="top_low_2"/>
  <anchor x="474" y="648" name="top_low_3"/>
  <outline>
    <contour>
      <point x="809" y="4" type="curve"/>
      <point x="816" y="4" type="line"/>
      <point x="825" y="3" type="line"/>
      <point x="872" y="3"/>
      <point x="938" y="1"/>
      <point x="967" y="-1" type="curve"/>
      <point x="968" y="69" type="line"/>
      <point x="915" y="75" type="line"/>
      <point x="839" y="82"/>
      <point x="801" y="82"/>
      <point x="759" y="130" type="curve"/>
      <point x="349" y="571" type="line"/>
      <point x="304" y="622"/>
      <point x="284" y="626"/>
      <point x="353" y="631" type="curve"/>
      <point x="419" y="637" type="line"/>
      <point x="419" y="707" type="line"/>
      <point x="344" y="705"/>
      <point x="240" y="705"/>
      <point x="165" y="705" type="curve"/>
      <point x="158" y="705" type="line"/>
      <point x="149" y="705" type="line"/>
      <point x="102" y="705"/>
      <point x="36" y="707"/>
      <point x="7" y="707" type="curve"/>
      <point x="8" y="637" type="line"/>
      <point x="61" y="633" type="line"/>
      <point x="137" y="626"/>
      <point x="173" y="626"/>
      <point x="215" y="578" type="curve"/>
      <point x="625" y="137" type="line"/>
      <point x="670" y="86"/>
      <point x="689" y="81"/>
      <point x="620" y="75" type="curve"/>
      <point x="554" y="68" type="line"/>
      <point x="555" y="-2" type="line"/>
      <point x="630" y="1"/>
      <point x="734" y="3"/>
    </contour>
    <contour>
      <point x="315" y="169" type="curve"/>
      <point x="491" y="334" type="line"/>
      <point x="441" y="383" type="line"/>
      <point x="229" y="161" type="line"/>
      <point x="155" y="84"/>
      <point x="99" y="80"/>
      <point x="29" y="73" type="curve"/>
      <point x="0" y="70" type="line"/>
      <point x="0" y="0" type="line"/>
      <point x="49" y="2"/>
      <point x="108" y="3"/>
      <point x="165" y="3" type="curve"/>
      <point x="231" y="3"/>
      <point x="299" y="2"/>
      <point x="359" y="0" type="curve"/>
      <point x="359" y="70" type="line"/>
      <point x="322" y="74" type="line"/>
      <point x="238" y="83"/>
      <point x="252" y="103"/>
    </contour>
    <contour>
      <point x="518" y="346" type="line"/>
      <point x="704" y="545" type="line"/>
      <point x="777" y="623"/>
      <point x="831" y="628"/>
      <point x="901" y="635" type="curve"/>
      <point x="930" y="638" type="line"/>
      <point x="930" y="708" type="line"/>
      <point x="881" y="706"/>
      <point x="822" y="705"/>
      <point x="765" y="705" type="curve"/>
      <point x="699" y="705"/>
      <point x="631" y="706"/>
      <point x="571" y="708" type="curve"/>
      <point x="571" y="638" type="line"/>
      <point x="608" y="634" type="line"/>
      <point x="692" y="625"/>
      <point x="680" y="604"/>
      <point x="617" y="537" type="curve"/>
      <point x="456" y="382" type="line"/>
    </contour>
  </outline>
</glyph>
<glyph name="Y" format="2">
  <advance width="983"/>
  <unicode hex="0059"/>
  <anchor x="517" y="0" name="bottom"/>
  <anchor x="516" y="255" name="center"/>
  <anchor x="514" y="708" name="top"/>
  <anchor x="514" y="688" name="top_low_1"/>
  <anchor x="514" y="668" name="top_low_2"/>
  <anchor x="514" y="648" name="top_low_3"/>
  <outline>
    <contour>
      <point x="501" y="199" type="line"/>
      <point x="533" y="199" type="line"/>
      <point x="761" y="526" type="line"/>
      <point x="818" y="613"/>
      <point x="858" y="627"/>
      <point x="922" y="635" type="curve"/>
      <point x="946" y="638" type="line"/>
      <point x="946" y="708" type="line"/>
      <point x="902" y="706"/>
      <point x="849" y="705"/>
      <point x="798" y="705" type="curve"/>
      <point x="740" y="705"/>
      <point x="680" y="706"/>
      <point x="628" y="708" type="curve"/>
      <point x="628" y="638" type="line"/>
      <point x="657" y="635" type="line"/>
      <point x="728" y="627"/>
      <point x="732" y="597"/>
      <point x="676" y="516" type="curve"/>
      <point x="508" y="284" type="line"/>
      <point x="549" y="289" type="line"/>
      <point x="339" y="560" type="line"/>
      <point x="299" y="615"/>
      <point x="287" y="626"/>
      <point x="356" y="632" type="curve"/>
      <point x="422" y="638" type="line"/>
      <point x="422" y="708" type="line"/>
      <point x="347" y="706"/>
      <point x="243" y="705"/>
      <point x="168" y="705" type="curve"/>
      <point x="166" y="705" type="line"/>
      <point x="161" y="705" type="line"/>
      <point x="122" y="705"/>
      <point x="69" y="706"/>
      <point x="43" y="708" type="curve"/>
      <point x="43" y="638" type="line"/>
      <point x="84" y="634" type="line"/>
      <point x="147" y="627"/>
      <point x="175" y="623"/>
      <point x="215" y="568" type="curve"/>
    </contour>
    <contour>
      <point x="509" y="3" type="curve"/>
      <point x="516" y="3" type="line"/>
      <point x="522" y="3" type="line"/>
      <point x="593" y="3"/>
      <point x="686" y="2"/>
      <point x="761" y="0" type="curve"/>
      <point x="761" y="70" type="line"/>
      <point x="652" y="78" type="line"/>
      <point x="580" y="84"/>
      <point x="562" y="100"/>
      <point x="562" y="156" type="curve"/>
      <point x="562" y="303" type="line"/>
      <point x="524" y="249" type="line"/>
      <point x="469" y="311" type="line"/>
      <point x="469" y="156" type="line"/>
      <point x="469" y="100"/>
      <point x="451" y="84"/>
      <point x="379" y="79" type="curve"/>
      <point x="270" y="70" type="line"/>
      <point x="270" y="0" type="line"/>
      <point x="345" y="2"/>
      <point x="438" y="3"/>
    </contour>
  </outline>
</glyph>
<glyph name="Z" format="2">
  <advance width="796"/>
  <unicode hex="005A"/>
  <anchor x="380" y="0" name="bottom"/>
  <anchor x="381" y="354" name="center"/>
  <anchor x="375" y="708" name="top"/>
  <anchor x="375" y="688" name="top_low_1"/>
  <anchor x="375" y="668" name="top_low_2"/>
  <anchor x="375" y="648" name="top_low_3"/>
  <outline>
    <contour>
      <point x="60" y="0" type="line"/>
      <point x="151" y="3"/>
      <point x="260" y="3"/>
      <point x="355" y="3" type="curve" smooth="yes"/>
      <point x="391" y="3" type="line"/>
      <point x="516" y="3"/>
      <point x="611" y="2"/>
      <point x="684" y="0" type="curve"/>
      <point x="684" y="88"/>
      <point x="690" y="165"/>
      <point x="704" y="250" type="curve"/>
      <point x="631" y="250" type="line"/>
      <point x="580" y="104"/>
      <point x="537" y="73"/>
      <point x="385" y="73" type="curve"/>
      <point x="183" y="73" type="line"/>
      <point x="694" y="638" type="line"/>
      <point x="694" y="708" type="line"/>
      <point x="613" y="705"/>
      <point x="506" y="705"/>
      <point x="422" y="705" type="curve" smooth="yes"/>
      <point x="320" y="705" type="line"/>
      <point x="222" y="705"/>
      <point x="148" y="706"/>
      <point x="91" y="708" type="curve"/>
      <point x="91" y="634"/>
      <point x="87" y="569"/>
      <point x="77" y="498" type="curve"/>
      <point x="150" y="498" type="line"/>
      <point x="200" y="611"/>
      <point x="242" y="635"/>
      <point x="390" y="635" type="curve"/>
      <point x="570" y="635" type="line"/>
      <point x="60" y="70" type="line"/>
    </contour>
  </outline>
</glyph>
<glyph name="a" format="2">
  <advance width="786"/>
  <unicode hex="0061"/>
  <anchor x="-207" y="256" name="#entry"/>
  <anchor x="399" y="0" name="bottom"/>
  <anchor x="368" y="257" name="center"/>
  <anchor x="679" y="0" name="ogonek"/>
  <anchor x="365" y="512" name="top"/>
  <anchor x="365" y="492" name="top_low_1"/>
  <anchor x="365" y="472" name="top_low_2"/>
  <anchor x="365" y="452" name="top_low_3"/>
  <outline>
    <contour>
      <point x="595" y="117" type="curve"/>
      <point x="595" y="331" type="line" smooth="yes"/>
      <point x="595" y="472"/>
      <point x="533" y="529"/>
      <point x="379" y="529" type="curve" smooth="yes"/>
      <point x="228" y="529"/>
      <point x="128" y="475"/>
      <point x="128" y="394" type="curve" smooth="yes"/>
      <point x="128" y="352"/>
      <point x="156" y="324"/>
      <point x="199" y="324" type="curve" smooth="yes"/>
      <point x="240" y="324"/>
      <point x="268" y="342"/>
      <point x="268" y="369" type="curve" smooth="yes"/>
      <point x="268" y="398"/>
      <point x="240" y="412"/>
      <point x="240" y="426" type="curve" smooth="yes"/>
      <point x="240" y="444"/>
      <point x="286" y="457"/>
      <point x="351" y="457" type="curve" smooth="yes"/>
      <point x="451" y="457"/>
      <point x="505" y="429"/>
      <point x="505" y="376" type="curve" smooth="yes"/>
      <point x="505" y="71" type="line"/>
      <point x="505" y="15"/>
      <point x="542" y="-14"/>
      <point x="611" y="-14" type="curve"/>
      <point x="671" y="-14"/>
      <point x="724" y="7"/>
      <point x="766" y="47" type="curve"/>
      <point x="735" y="106" type="line"/>
      <point x="699" y="83"/>
      <point x="665" y="70"/>
      <point x="638" y="70" type="curve"/>
      <point x="609" y="70"/>
      <point x="595" y="85"/>
    </contour>
    <contour>
      <point x="282" y="-14" type="curve" smooth="yes"/>
      <point x="375" y="-14"/>
      <point x="455" y="21"/>
      <point x="519" y="92" type="curve"/>
      <point x="518" y="171" type="line"/>
      <point x="470" y="102"/>
      <point x="395" y="68"/>
      <point x="307" y="68" type="curve" smooth="yes"/>
      <point x="241" y="68"/>
      <point x="207" y="90"/>
      <point x="207" y="132" type="curve" smooth="yes"/>
      <point x="207" y="246"/>
      <point x="446" y="209"/>
      <point x="517" y="277" type="curve"/>
      <point x="506" y="359" type="line"/>
      <point x="505" y="255"/>
      <point x="110" y="339"/>
      <point x="110" y="124" type="curve" smooth="yes"/>
      <point x="110" y="38"/>
      <point x="175" y="-14"/>
    </contour>
  </outline>
</glyph>
<glyph name="b" format="2">
  <advance width="858"/>
  <unicode hex="0062"/>
  <anchor x="308" y="256" name="#entry"/>
  <anchor x="308" y="256" name="#exit"/>
  <anchor x="453" y="0" name="bottom"/>
  <anchor x="465" y="255" name="center"/>
  <anchor x="453" y="773" name="top"/>
  <anchor x="218" y="512" name="top-left"/>
  <outline>
    <contour>
      <point x="511" y="526" type="curve" smooth="yes"/>
      <point x="409" y="526"/>
      <point x="324" y="476"/>
      <point x="289" y="394" type="curve"/>
      <point x="297" y="321" type="line"/>
      <point x="327" y="399"/>
      <point x="400" y="446"/>
      <point x="490" y="446" type="curve" smooth="yes"/>
      <point x="599" y="446"/>
      <point x="661" y="378"/>
      <point x="661" y="258" type="curve" smooth="yes"/>
      <point x="661" y="130"/>
      <point x="591" y="56"/>
      <point x="474" y="56" type="curve" smooth="yes"/>
      <point x="397" y="56"/>
      <point x="331" y="89"/>
      <point x="295" y="120" type="curve"/>
      <point x="281" y="58" type="line"/>
      <point x="323" y="18"/>
      <point x="395" y="-17"/>
      <point x="486" y="-17" type="curve" smooth="yes"/>
      <point x="651" y="-17"/>
      <point x="758" y="93"/>
      <point x="758" y="262" type="curve" smooth="yes"/>
      <point x="758" y="422"/>
      <point x="661" y="526"/>
    </contour>
    <component base="_LC-ascender-left-inserif"/>
    <component base="_LC-baseline-left-instroke" xOffset="10"/>
  </outline>
</glyph>
<glyph name="c" format="2">
  <advance width="694"/>
  <unicode hex="0063"/>
  <anchor x="378" y="0" name="bottom"/>
  <anchor x="359" y="257" name="center"/>
  <anchor x="373" y="0" name="currency"/>
  <anchor x="524" y="514" name="hook"/>
  <anchor x="371" y="512" name="top"/>
  <outline>
    <contour>
      <point x="382" y="-14" type="curve" smooth="yes"/>
      <point x="493" y="-14"/>
      <point x="571" y="21"/>
      <point x="624" y="95" type="curve"/>
      <point x="566" y="149" type="line"/>
      <point x="519" y="96"/>
      <point x="462" y="71"/>
      <point x="388" y="71" type="curve" smooth="yes"/>
      <point x="263" y="71"/>
      <point x="197" y="138"/>
      <point x="197" y="263" type="curve" smooth="yes"/>
      <point x="197" y="392"/>
      <point x="267" y="461"/>
      <point x="399" y="461" type="curve" smooth="yes"/>
      <point x="461" y="461"/>
      <point x="502" y="445"/>
      <point x="502" y="421" type="curve" smooth="yes"/>
      <point x="502" y="400"/>
      <point x="470" y="376"/>
      <point x="470" y="341" type="curve" smooth="yes"/>
      <point x="470" y="310"/>
      <point x="493" y="291"/>
      <point x="530" y="291" type="curve" smooth="yes"/>
      <point x="581" y="291"/>
      <point x="617" y="329"/>
      <point x="617" y="383" type="curve" smooth="yes"/>
      <point x="617" y="470"/>
      <point x="523" y="529"/>
      <point x="384" y="529" type="curve" smooth="yes"/>
      <point x="204" y="529"/>
      <point x="100" y="429"/>
      <point x="100" y="254" type="curve" smooth="yes"/>
      <point x="100" y="82"/>
      <point x="201" y="-14"/>
    </contour>
  </outline>
</glyph>
<glyph name="e" format="2">
  <advance width="745"/>
  <unicode hex="0065"/>
  <anchor x="399" y="0" name="bottom"/>
  <anchor x="381" y="257" name="center"/>
  <anchor x="485" y="0" name="ogonek"/>
  <anchor x="367" y="512" name="top"/>
  <anchor x="367" y="492" name="top_low_1"/>
  <anchor x="367" y="472" name="top_low_2"/>
  <anchor x="367" y="452" name="top_low_3"/>
  <outline>
    <contour>
      <point x="379" y="-14" type="curve" smooth="yes"/>
      <point x="486" y="-14"/>
      <point x="575" y="24"/>
      <point x="631" y="95" type="curve"/>
      <point x="573" y="149" type="line"/>
      <point x="522" y="94"/>
      <point x="466" y="71"/>
      <point x="388" y="71" type="curve" smooth="yes"/>
      <point x="265" y="71"/>
      <point x="197" y="138"/>
      <point x="197" y="260" type="curve" smooth="yes"/>
      <point x="197" y="277"/>
      <point x="198" y="294"/>
      <point x="200" y="304" type="curve"/>
      <point x="197" y="307" type="line"/>
      <point x="207" y="403"/>
      <point x="273" y="459"/>
      <point x="376" y="459" type="curve" smooth="yes"/>
      <point x="478" y="459"/>
      <point x="535" y="410"/>
      <point x="532" y="325" type="curve"/>
      <point x="154" y="325" type="line"/>
      <point x="155" y="254" type="line"/>
      <point x="630" y="254" type="line"/>
      <point x="636" y="437"/>
      <point x="551" y="529"/>
      <point x="378" y="529" type="curve" smooth="yes"/>
      <point x="205" y="529"/>
      <point x="100" y="417"/>
      <point x="100" y="249" type="curve" smooth="yes"/>
      <point x="100" y="82"/>
      <point x="208" y="-14"/>
    </contour>
  </outline>
</glyph>
<glyph name="g" format="2">
  <advance width="751"/>
  <unicode hex="0067"/>
  <anchor x="355" y="-231" name="bottom"/>
  <anchor x="356" y="0" name="center"/>
  <anchor x="323" y="512" name="top"/>
  <outline>
    <contour>
      <point x="310" y="-239" type="curve" smooth="yes"/>
      <point x="503" y="-239"/>
      <point x="641" y="-154"/>
      <point x="641" y="-35" type="curve" smooth="yes"/>
      <point x="641" y="45"/>
      <point x="580" y="90"/>
      <point x="473" y="90" type="curve" smooth="yes"/>
      <point x="328" y="90" type="line" smooth="yes"/>
      <point x="282" y="90"/>
      <point x="259" y="100"/>
      <point x="259" y="122" type="curve" smooth="yes"/>
      <point x="259" y="142"/>
      <point x="268" y="158"/>
      <point x="287" y="171" type="curve"/>
      <point x="227" y="180" type="line"/>
      <point x="186" y="156"/>
      <point x="166" y="127"/>
      <point x="166" y="94" type="curve" smooth="yes"/>
      <point x="166" y="40"/>
      <point x="227" y="6"/>
      <point x="322" y="6" type="curve" smooth="yes"/>
      <point x="462" y="6" type="line" smooth="yes"/>
      <point x="513" y="6"/>
      <point x="542" y="-15"/>
      <point x="542" y="-52" type="curve" smooth="yes"/>
      <point x="542" y="-123"/>
      <point x="453" y="-172"/>
      <point x="325" y="-172" type="curve" smooth="yes"/>
      <point x="220" y="-172"/>
      <point x="154" y="-141"/>
      <point x="154" y="-87" type="curve" smooth="yes"/>
      <point x="154" y="-42"/>
      <point x="200" y="5"/>
      <point x="278" y="23" type="curve"/>
      <point x="209" y="53" type="line"/>
      <point x="112" y="15"/>
      <point x="62" y="-38"/>
      <point x="62" y="-102" type="curve" smooth="yes"/>
      <point x="62" y="-186"/>
      <point x="158" y="-239"/>
    </contour>
    <contour>
      <point x="319" y="162" type="curve" smooth="yes"/>
      <point x="461" y="162"/>
      <point x="548" y="232"/>
      <point x="548" y="346" type="curve" smooth="yes"/>
      <point x="548" y="459"/>
      <point x="461" y="529"/>
      <point x="319" y="529" type="curve" smooth="yes"/>
      <point x="177" y="529"/>
      <point x="91" y="460"/>
      <point x="91" y="346" type="curve" smooth="yes"/>
      <point x="91" y="232"/>
      <point x="178" y="162"/>
    </contour>
    <contour>
      <point x="319" y="230" type="curve" smooth="yes"/>
      <point x="228" y="230"/>
      <point x="185" y="267"/>
      <point x="185" y="346" type="curve" smooth="yes"/>
      <point x="185" y="424"/>
      <point x="228" y="461"/>
      <point x="319" y="461" type="curve" smooth="yes"/>
      <point x="410" y="461"/>
      <point x="454" y="424"/>
      <point x="454" y="346" type="curve" smooth="yes"/>
      <point x="454" y="267"/>
      <point x="410" y="230"/>
    </contour>
    <contour>
      <point x="465" y="444" type="line"/>
      <point x="685" y="444" type="line"/>
      <point x="685" y="514" type="line"/>
      <point x="335" y="514" type="line"/>
    </contour>
  </outline>
</glyph>
<glyph name="k" format="2">
  <advance width="880"/>
  <unicode hex="006B"/>
  <anchor x="420" y="0" name="bottom"/>
  <anchor x="408" y="758" name="top"/>
  <outline>
    <contour>
      <point x="45" y="0" type="line"/>
      <point x="97" y="1"/>
      <point x="180" y="4"/>
      <point x="250" y="4" type="curve" smooth="yes"/>
      <point x="329" y="4"/>
      <point x="409" y="1"/>
      <point x="461" y="0" type="curve"/>
      <point x="461" y="71" type="line"/>
      <point x="339" y="71"/>
      <point x="298" y="89"/>
      <point x="298" y="143" type="curve" smooth="yes"/>
      <point x="298" y="784" type="line"/>
      <point x="254" y="775"/>
      <point x="202" y="770"/>
      <point x="144" y="770" type="curve" smooth="yes"/>
      <point x="101" y="770"/>
      <point x="64" y="771"/>
      <point x="45" y="773" type="curve"/>
      <point x="45" y="702" type="line"/>
      <point x="166" y="702"/>
      <point x="208" y="679"/>
      <point x="208" y="614" type="curve" smooth="yes"/>
      <point x="208" y="143" type="line" smooth="yes"/>
      <point x="208" y="90"/>
      <point x="166" y="71"/>
      <point x="45" y="71" type="curve"/>
    </contour>
    <contour>
      <point x="602" y="0" type="curve"/>
      <point x="636" y="2"/>
      <point x="657" y="3"/>
      <point x="685" y="3" type="curve" smooth="yes"/>
      <point x="727" y="3"/>
      <point x="771" y="2"/>
      <point x="840" y="0" type="curve"/>
      <point x="840" y="71" type="line"/>
      <point x="738" y="75"/>
      <point x="692" y="94"/>
      <point x="660" y="146" type="curve" smooth="yes"/>
      <point x="613" y="222" type="line" smooth="yes"/>
      <point x="576" y="281"/>
      <point x="551" y="296"/>
      <point x="491" y="296" type="curve"/>
      <point x="491" y="267" type="line"/>
      <point x="605" y="377" type="line" smooth="yes"/>
      <point x="652" y="422"/>
      <point x="693" y="436"/>
      <point x="775" y="443" type="curve"/>
      <point x="775" y="514" type="line"/>
      <point x="734" y="512"/>
      <point x="678" y="511"/>
      <point x="609" y="511" type="curve" smooth="yes"/>
      <point x="538" y="511"/>
      <point x="487" y="512"/>
      <point x="456" y="514" type="curve"/>
      <point x="456" y="443" type="line"/>
      <point x="527" y="439"/>
      <point x="541" y="407"/>
      <point x="497" y="366" type="curve" smooth="yes"/>
      <point x="477" y="347" type="line" smooth="yes"/>
      <point x="448" y="320"/>
      <point x="427" y="313"/>
      <point x="386" y="313" type="curve" smooth="yes"/>
      <point x="273" y="313" type="line"/>
      <point x="273" y="242" type="line"/>
      <point x="426" y="242" type="line" smooth="yes"/>
      <point x="477" y="242"/>
      <point x="503" y="230"/>
      <point x="527" y="191" type="curve" smooth="yes"/>
      <point x="576" y="112" type="line" smooth="yes"/>
      <point x="594" y="83"/>
      <point x="603" y="44"/>
    </contour>
    <component base="_LC-baseline-normal-narrow"/>
    <component base="_LC-ascender-left-inserif" xOffset="6"/>
    <component base="_LC-k-legs" xOffset="259"/>
  </outline>
</glyph>
<glyph name="l" format="2">
  <advance width="516"/>
  <unicode hex="006C"/>
  <anchor x="218" y="256" name="#entry"/>
  <anchor x="308" y="256" name="#exit"/>
  <anchor x="-162" y="0" name="%entry"/>
  <anchor x="218" y="0" name="%exit"/>
  <anchor x="0" y="0" name="^entry"/>
  <anchor x="401" y="0" name="^exit"/>
  <anchor x="263" y="0" name="bottom"/>
  <anchor x="263" y="354" name="center"/>
  <anchor x="374" y="512" name="right"/>
  <anchor x="218" y="256" name="stem"/>
  <anchor x="263" y="773" name="top"/>
  <anchor x="376" y="773" name="topright"/>
  <outline>
    <contour>
      <point x="263" y="3" type="curve"/>
      <point x="263" y="3" type="line"/>
      <point x="263" y="3" type="line"/>
      <point x="351" y="3"/>
      <point x="410" y="1"/>
      <point x="471" y="0" type="curve"/>
      <point x="471" y="70" type="line"/>
      <point x="410" y="76" type="line"/>
      <point x="327" y="84"/>
      <point x="308" y="103"/>
      <point x="308" y="177" type="curve"/>
      <point x="308" y="256" type="line"/>
      <point x="218" y="256" type="line"/>
      <point x="218" y="177" type="line"/>
      <point x="218" y="103"/>
      <point x="199" y="84"/>
      <point x="116" y="76" type="curve"/>
      <point x="55" y="70" type="line"/>
      <point x="55" y="0" type="line"/>
      <point x="116" y="1"/>
      <point x="175" y="3"/>
    </contour>
    <component base="_LC-ascender-left-inserif"/>
  </outline>
</glyph>
<glyph name="m" format="2">
  <advance width="1313"/>
  <unicode hex="006D"/>
  <anchor x="218" y="256" name="#entry"/>
  <anchor x="308" y="256" name="#exit"/>
  <anchor x="-162" y="0" name="%entry"/>
  <anchor x="218" y="0" name="%exit"/>
  <anchor x="0" y="0" name="^entry"/>
  <anchor x="506" y="0" name="^exit"/>
  <anchor x="656" y="0" name="bottom"/>
  <anchor x="308" y="256" name="reversedExit"/>
  <anchor x="218" y="256" name="stem"/>
  <anchor x="656" y="512" name="top"/>
  <anchor x="308" y="514" name="topright"/>
  <outline>
    <contour>
      <point x="263" y="3" type="curve"/>
      <point x="263" y="3" type="line"/>
      <point x="263" y="3" type="line"/>
      <point x="351" y="3"/>
      <point x="410" y="1"/>
      <point x="471" y="0" type="curve"/>
      <point x="471" y="70" type="line"/>
      <point x="410" y="76" type="line"/>
      <point x="327" y="84"/>
      <point x="308" y="103"/>
      <point x="308" y="177" type="curve"/>
      <point x="308" y="256" type="line"/>
      <point x="218" y="256" type="line"/>
      <point x="218" y="177" type="line"/>
      <point x="218" y="103"/>
      <point x="199" y="84"/>
      <point x="116" y="76" type="curve"/>
      <point x="55" y="70" type="line"/>
      <point x="55" y="0" type="line"/>
      <point x="116" y="1"/>
      <point x="175" y="3"/>
    </contour>
    <contour>
      <point x="218" y="256" type="line"/>
      <point x="308" y="256" type="line"/>
      <point x="308" y="514" type="line"/>
      <point x="308" y="526" type="line"/>
      <point x="264" y="517"/>
      <point x="200" y="512"/>
      <point x="136" y="512" type="curve"/>
      <point x="102" y="512"/>
      <point x="74" y="513"/>
      <point x="55" y="514" type="curve"/>
      <point x="55" y="444" type="line"/>
      <point x="116" y="438" type="line"/>
      <point x="199" y="430"/>
      <point x="218" y="408"/>
      <point x="218" y="327" type="curve"/>
    </contour>
    <contour>
      <point x="612" y="256" type="line"/>
      <point x="702" y="256" type="line"/>
      <point x="702" y="304" type="line" smooth="yes"/>
      <point x="702" y="454"/>
      <point x="638" y="529"/>
      <point x="508" y="529" type="curve" smooth="yes"/>
      <point x="400" y="529"/>
      <point x="322" y="469"/>
      <point x="266" y="356" type="curve"/>
      <point x="265" y="300" type="line"/>
      <point x="319" y="397"/>
      <point x="394" y="447"/>
      <point x="488" y="447" type="curve" smooth="yes"/>
      <point x="575" y="447"/>
      <point x="612" y="401"/>
      <point x="612" y="294" type="curve" smooth="yes"/>
    </contour>
    <contour>
      <point x="612" y="0" type="line"/>
      <point x="612" y="0" type="line"/>
      <point x="648" y="2"/>
      <point x="679" y="2"/>
      <point x="716" y="2" type="curve"/>
      <point x="753" y="2"/>
      <point x="819" y="1"/>
      <point x="865" y="0" type="curve"/>
      <point x="865" y="70" type="line"/>
      <point x="804" y="76" type="line"/>
      <point x="721" y="84"/>
      <point x="702" y="103"/>
      <point x="702" y="177" type="curve"/>
      <point x="702" y="256" type="line"/>
      <point x="612" y="256" type="line"/>
    </contour>
    <contour>
      <point x="1006" y="256" type="line"/>
      <point x="1096" y="256" type="line"/>
      <point x="1096" y="304" type="line" smooth="yes"/>
      <point x="1096" y="454"/>
      <point x="1032" y="529"/>
      <point x="902" y="529" type="curve" smooth="yes"/>
      <point x="785" y="529"/>
      <point x="700" y="469"/>
      <point x="653" y="355" type="curve"/>
      <point x="659" y="300" type="line"/>
      <point x="713" y="397"/>
      <point x="788" y="447"/>
      <point x="882" y="447" type="curve" smooth="yes"/>
      <point x="969" y="447"/>
      <point x="1006" y="401"/>
      <point x="1006" y="294" type="curve" smooth="yes"/>
    </contour>
    <contour>
      <point x="1005" y="0" type="line"/>
      <point x="1005" y="0" type="line"/>
      <point x="1041" y="2"/>
      <point x="1072" y="2"/>
      <point x="1109" y="2" type="curve"/>
      <point x="1146" y="2"/>
      <point x="1212" y="1"/>
      <point x="1258" y="0" type="curve"/>
      <point x="1258" y="70" type="line"/>
      <point x="1197" y="76" type="line"/>
      <point x="1114" y="84"/>
      <point x="1095" y="103"/>
      <point x="1095" y="177" type="curve"/>
      <point x="1095" y="256" type="line"/>
      <point x="1005" y="256" type="line"/>
    </contour>
  </outline>
</glyph>
<glyph name="n" format="2">
  <advance width="928"/>
  <unicode hex="006E"/>
  <anchor x="218" y="256" name="#entry"/>
  <anchor x="308" y="256" name="#exit"/>
  <anchor x="-162" y="0" name="%entry"/>
  <anchor x="218" y="0" name="%exit"/>
  <anchor x="0" y="0" name="^entry"/>
  <anchor x="506" y="0" name="^exit"/>
  <anchor x="465" y="0" name="bottom"/>
  <anchor x="308" y="256" name="reversedExit"/>
  <anchor x="218" y="256" name="stem"/>
  <anchor x="464" y="512" name="top"/>
  <anchor x="308" y="514" name="topright"/>
  <outline>
    <contour>
      <point x="263" y="3" type="curve"/>
      <point x="263" y="3" type="line"/>
      <point x="263" y="3" type="line"/>
      <point x="351" y="3"/>
      <point x="410" y="1"/>
      <point x="471" y="0" type="curve"/>
      <point x="471" y="70" type="line"/>
      <point x="410" y="76" type="line"/>
      <point x="327" y="84"/>
      <point x="308" y="103"/>
      <point x="308" y="177" type="curve"/>
      <point x="308" y="256" type="line"/>
      <point x="218" y="256" type="line"/>
      <point x="218" y="177" type="line"/>
      <point x="218" y="103"/>
      <point x="199" y="84"/>
      <point x="116" y="76" type="curve"/>
      <point x="55" y="70" type="line"/>
      <point x="55" y="0" type="line"/>
      <point x="116" y="1"/>
      <point x="175" y="3"/>
    </contour>
    <contour>
      <point x="218" y="256" type="line"/>
      <point x="308" y="256" type="line"/>
      <point x="308" y="514" type="line"/>
      <point x="308" y="526" type="line"/>
      <point x="264" y="517"/>
      <point x="200" y="512"/>
      <point x="136" y="512" type="curve"/>
      <point x="102" y="512"/>
      <point x="74" y="513"/>
      <point x="55" y="514" type="curve"/>
      <point x="55" y="444" type="line"/>
      <point x="116" y="438" type="line"/>
      <point x="199" y="430"/>
      <point x="218" y="408"/>
      <point x="218" y="327" type="curve"/>
    </contour>
    <contour>
      <point x="620" y="256" type="line"/>
      <point x="710" y="256" type="line"/>
      <point x="710" y="299" type="line" smooth="yes"/>
      <point x="710" y="453"/>
      <point x="645" y="529"/>
      <point x="512" y="529" type="curve" smooth="yes"/>
      <point x="402" y="529"/>
      <point x="323" y="469"/>
      <point x="267" y="356" type="curve"/>
      <point x="265" y="301" type="line"/>
      <point x="319" y="397"/>
      <point x="396" y="447"/>
      <point x="492" y="447" type="curve" smooth="yes"/>
      <point x="582" y="447"/>
      <point x="620" y="400"/>
      <point x="620" y="290" type="curve" smooth="yes"/>
    </contour>
    <contour>
      <point x="620" y="0" type="line"/>
      <point x="620" y="0" type="line"/>
      <point x="656" y="2"/>
      <point x="687" y="2"/>
      <point x="724" y="2" type="curve"/>
      <point x="761" y="2"/>
      <point x="827" y="1"/>
      <point x="873" y="0" type="curve"/>
      <point x="873" y="70" type="line"/>
      <point x="812" y="76" type="line"/>
      <point x="729" y="84"/>
      <point x="710" y="103"/>
      <point x="710" y="177" type="curve"/>
      <point x="710" y="256" type="line"/>
      <point x="620" y="256" type="line"/>
    </contour>
  </outline>
</glyph>
<glyph name="o" format="2">
  <advance width="765"/>
  <unicode hex="006F"/>
  <anchor x="-203" y="256" name="#entry"/>
  <anchor x="383" y="0" name="bottom"/>
  <anchor x="383" y="257" name="center"/>
  <anchor x="483" y="0" name="ogonek"/>
  <anchor x="382" y="512" name="top"/>
  <anchor x="382" y="492" name="top_low_1"/>
  <anchor x="382" y="472" name="top_low_2"/>
  <anchor x="382" y="452" name="top_low_3"/>
  <anchor x="382" y="432" name="top_low_4"/>
  <anchor x="665" y="512" name="topright"/>
  <outline>
    <contour>
      <point x="383" y="-14" type="curve" smooth="yes"/>
      <point x="542" y="-14"/>
      <point x="665" y="66"/>
      <point x="665" y="257" type="curve" smooth="yes"/>
      <point x="665" y="448"/>
      <point x="542" y="529"/>
      <point x="383" y="529" type="curve" smooth="yes"/>
      <point x="224" y="529"/>
      <point x="100" y="448"/>
      <point x="100" y="257" type="curve" smooth="yes"/>
      <point x="100" y="65"/>
      <point x="225" y="-14"/>
    </contour>
    <contour>
      <point x="383" y="56" type="curve" smooth="yes"/>
      <point x="274" y="56"/>
      <point x="197" y="114"/>
      <point x="197" y="257" type="curve" smooth="yes"/>
      <point x="197" y="400"/>
      <point x="274" y="459"/>
      <point x="383" y="459" type="curve" smooth="yes"/>
      <point x="491" y="459"/>
      <point x="568" y="400"/>
      <point x="568" y="257" type="curve" smooth="yes"/>
      <point x="568" y="114"/>
      <point x="491" y="56"/>
    </contour>
  </outline>
</glyph>
<glyph name="q" format="2">
  <advance width="858"/>
  <unicode hex="0071"/>
  <anchor x="550" y="256" name="#entry"/>
  <anchor x="550" y="256" name="#exit"/>
  <anchor x="467" y="0" name="bottom"/>
  <anchor x="640" y="0" name="bottom-right"/>
  <anchor x="393" y="257" name="center"/>
  <anchor x="640" y="0" name="lower-right"/>
  <outline>
    <contour>
      <point x="344" y="-14" type="curve" smooth="yes"/>
      <point x="455" y="-14"/>
      <point x="548" y="40"/>
      <point x="572" y="118" type="curve"/>
      <point x="561" y="171" type="line"/>
      <point x="529" y="108"/>
      <point x="452" y="66"/>
      <point x="368" y="66" type="curve" smooth="yes"/>
      <point x="257" y="66"/>
      <point x="197" y="132"/>
      <point x="197" y="253" type="curve" smooth="yes"/>
      <point x="197" y="382"/>
      <point x="267" y="456"/>
      <point x="384" y="456" type="curve" smooth="yes"/>
      <point x="461" y="456"/>
      <point x="527" y="423"/>
      <point x="563" y="392" type="curve"/>
      <point x="577" y="454" type="line"/>
      <point x="535" y="494"/>
      <point x="463" y="529"/>
      <point x="372" y="529" type="curve" smooth="yes"/>
      <point x="207" y="529"/>
      <point x="100" y="419"/>
      <point x="100" y="250" type="curve" smooth="yes"/>
      <point x="100" y="88"/>
      <point x="195" y="-14"/>
    </contour>
    <contour>
      <point x="595" y="-228" type="line"/>
      <point x="683" y="-228"/>
      <point x="742" y="-230"/>
      <point x="803" y="-231" type="curve"/>
      <point x="803" y="-161" type="line"/>
      <point x="742" y="-155" type="line"/>
      <point x="659" y="-147"/>
      <point x="640" y="-128"/>
      <point x="640" y="-54" type="curve"/>
      <point x="640" y="256" type="line"/>
      <point x="550" y="256" type="line"/>
      <point x="550" y="-54" type="line"/>
      <point x="550" y="-128"/>
      <point x="525" y="-145"/>
      <point x="418" y="-155" type="curve"/>
      <point x="356" y="-161" type="line"/>
      <point x="356" y="-231" type="line"/>
      <point x="426" y="-230"/>
      <point x="494" y="-228"/>
      <point x="595" y="-228" type="curve"/>
      <point x="595" y="-228" type="line"/>
    </contour>
    <component base="_LC-xheight-right-instroke" xOffset="350"/>
  </outline>
</glyph>
<glyph name="s" format="2">
  <advance width="741"/>
  <unicode hex="0073"/>
  <anchor x="603" y="0" name="^exit"/>
  <anchor x="375" y="0" name="bottom"/>
  <anchor x="365" y="257" name="center"/>
  <anchor x="367" y="512" name="top"/>
  <anchor x="367" y="492" name="top_low_1"/>
  <anchor x="367" y="472" name="top_low_2"/>
  <anchor x="367" y="452" name="top_low_3"/>
  <anchor x="367" y="432" name="top_low_4"/>
  <outline>
    <contour>
      <point x="399" y="-14" type="curve" smooth="yes"/>
      <point x="538" y="-14"/>
      <point x="616" y="42"/>
      <point x="616" y="143" type="curve" smooth="yes"/>
      <point x="616" y="229"/>
      <point x="558" y="271"/>
      <point x="400" y="300" type="curve" smooth="yes"/>
      <point x="264" y="325"/>
      <point x="222" y="347"/>
      <point x="222" y="396" type="curve" smooth="yes"/>
      <point x="222" y="440"/>
      <point x="253" y="459"/>
      <point x="322" y="459" type="curve" smooth="yes"/>
      <point x="433" y="459"/>
      <point x="509" y="418"/>
      <point x="528" y="339" type="curve"/>
      <point x="598" y="339" type="line"/>
      <point x="598" y="376"/>
      <point x="599" y="439"/>
      <point x="603" y="518" type="curve"/>
      <point x="533" y="518" type="line"/>
      <point x="525" y="498"/>
      <point x="517" y="489"/>
      <point x="502" y="489" type="curve" smooth="yes"/>
      <point x="471" y="489"/>
      <point x="422" y="529"/>
      <point x="311" y="529" type="curve" smooth="yes"/>
      <point x="190" y="529"/>
      <point x="124" y="480"/>
      <point x="124" y="390" type="curve" smooth="yes"/>
      <point x="124" y="303"/>
      <point x="188" y="257"/>
      <point x="352" y="227" type="curve" smooth="yes"/>
      <point x="478" y="204"/>
      <point x="518" y="182"/>
      <point x="518" y="135" type="curve" smooth="yes"/>
      <point x="518" y="84"/>
      <point x="472" y="57"/>
      <point x="389" y="57" type="curve" smooth="yes"/>
      <point x="271" y="57"/>
      <point x="198" y="104"/>
      <point x="181" y="193" type="curve"/>
      <point x="111" y="193" type="line"/>
      <point x="111" y="102"/>
      <point x="109" y="33"/>
      <point x="105" y="-4" type="curve"/>
      <point x="176" y="-4" type="line"/>
      <point x="184" y="17"/>
      <point x="193" y="25"/>
      <point x="206" y="25" type="curve" smooth="yes"/>
      <point x="237" y="25"/>
      <point x="282" y="-14"/>
    </contour>
  </outline>
</glyph>
<glyph name="u" format="2">
  <advance width="899"/>
  <unicode hex="0075"/>
  <anchor x="218" y="256" name="#entry"/>
  <anchor x="308" y="256" name="#exit"/>
  <anchor x="192" y="0" name="%entry"/>
  <anchor x="728" y="512" name="%exit"/>
  <anchor x="20" y="512" name="^entry"/>
  <anchor x="526" y="512" name="^exit"/>
  <anchor x="490" y="0" name="bottom"/>
  <anchor x="451" y="270" name="center"/>
  <anchor x="612" y="256" name="reversedExit"/>
  <anchor x="308" y="256" name="stem"/>
  <anchor x="424" y="512" name="top"/>
  <anchor x="424" y="492" name="top_low_1"/>
  <anchor x="424" y="472" name="top_low_2"/>
  <anchor x="424" y="452" name="top_low_3"/>
  <anchor x="702" y="512" name="topright"/>
  <outline>
    <contour>
      <point x="308" y="512" type="line"/>
      <point x="308" y="524" type="line"/>
      <point x="264" y="515"/>
      <point x="200" y="510"/>
      <point x="136" y="510" type="curve"/>
      <point x="102" y="510"/>
      <point x="74" y="511"/>
      <point x="55" y="512" type="curve"/>
      <point x="55" y="442" type="line"/>
      <point x="116" y="436" type="line"/>
      <point x="199" y="428"/>
      <point x="218" y="406"/>
      <point x="218" y="325" type="curve"/>
      <point x="218" y="256" type="line"/>
      <point x="308" y="256" type="line"/>
    </contour>
    <contour>
      <point x="308" y="256" type="line"/>
      <point x="218" y="256" type="line"/>
      <point x="218" y="208" type="line" smooth="yes"/>
      <point x="218" y="58"/>
      <point x="282" y="-17"/>
      <point x="412" y="-17" type="curve" smooth="yes"/>
      <point x="520" y="-17"/>
      <point x="598" y="43"/>
      <point x="654" y="157" type="curve"/>
      <point x="655" y="212" type="line"/>
      <point x="602" y="115"/>
      <point x="526" y="65"/>
      <point x="432" y="65" type="curve" smooth="yes"/>
      <point x="345" y="65"/>
      <point x="308" y="111"/>
      <point x="308" y="218" type="curve" smooth="yes"/>
    </contour>
    <contour>
      <point x="612" y="0" type="line"/>
      <point x="612" y="-12" type="line"/>
      <point x="656" y="-3"/>
      <point x="720" y="2"/>
      <point x="784" y="2" type="curve"/>
      <point x="818" y="2"/>
      <point x="846" y="1"/>
      <point x="865" y="0" type="curve"/>
      <point x="865" y="70" type="line"/>
      <point x="804" y="76" type="line"/>
      <point x="721" y="84"/>
      <point x="702" y="106"/>
      <point x="702" y="187" type="curve"/>
      <point x="702" y="256" type="line"/>
      <point x="612" y="256" type="line"/>
    </contour>
    <contour>
      <point x="702" y="512" type="line"/>
      <point x="702" y="524" type="line"/>
      <point x="660" y="516"/>
      <point x="598" y="510"/>
      <point x="547" y="510" type="curve"/>
      <point x="521" y="510"/>
      <point x="502" y="511"/>
      <point x="485" y="512" type="curve"/>
      <point x="485" y="442" type="line"/>
      <point x="532" y="437" type="line"/>
      <point x="597" y="429"/>
      <point x="612" y="409"/>
      <point x="612" y="332" type="curve"/>
      <point x="612" y="256" type="line"/>
      <point x="702" y="256" type="line"/>
    </contour>
  </outline>
</glyph>
<glyph name="v" format="2">
  <advance width="811"/>
  <unicode hex="0076"/>
  <anchor x="421" y="0" name="bottom"/>
  <anchor x="421" y="512" name="top"/>
  <outline>
    <contour>
      <point x="391" y="-5" type="line"/>
      <point x="458" y="-5" type="line"/>
      <point x="613" y="312" type="line"/>
      <point x="658" y="408"/>
      <point x="683" y="431"/>
      <point x="746" y="439" type="curve"/>
      <point x="771" y="442" type="line"/>
      <point x="771" y="512" type="line"/>
      <point x="728" y="510"/>
      <point x="676" y="509"/>
      <point x="626" y="509" type="curve"/>
      <point x="576" y="509"/>
      <point x="525" y="510"/>
      <point x="480" y="512" type="curve"/>
      <point x="480" y="442" type="line"/>
      <point x="505" y="439" type="line"/>
      <point x="562" y="433"/>
      <point x="577" y="404"/>
      <point x="529" y="302" type="curve"/>
      <point x="420" y="77" type="line"/>
      <point x="453" y="68" type="line"/>
      <point x="278" y="403" type="line"/>
      <point x="261" y="436"/>
      <point x="247" y="472"/>
      <point x="248" y="512" type="curve"/>
      <point x="224" y="510"/>
      <point x="199" y="509"/>
      <point x="175" y="509" type="curve"/>
      <point x="128" y="509"/>
      <point x="82" y="510"/>
      <point x="40" y="512" type="curve"/>
      <point x="40" y="441" type="line"/>
      <point x="118" y="442"/>
      <point x="169" y="424"/>
      <point x="195" y="374" type="curve"/>
    </contour>
  </outline>
</glyph>
<glyph name="w" format="2">
  <advance width="1169"/>
  <unicode hex="0077"/>
  <anchor x="583" y="0" name="bottom"/>
  <anchor x="607" y="512" name="top"/>
  <outline>
    <contour>
      <point x="359" y="-5" type="line"/>
      <point x="426" y="-5" type="line"/>
      <point x="631" y="465" type="line"/>
      <point x="571" y="512" type="line"/>
      <point x="390" y="104" type="line"/>
      <point x="408" y="106" type="line"/>
      <point x="272" y="400" type="line"/>
      <point x="257" y="434"/>
      <point x="247" y="472"/>
      <point x="248" y="512" type="curve"/>
      <point x="224" y="510"/>
      <point x="199" y="509"/>
      <point x="175" y="509" type="curve"/>
      <point x="128" y="509"/>
      <point x="82" y="510"/>
      <point x="40" y="512" type="curve"/>
      <point x="40" y="441" type="line"/>
      <point x="118" y="442"/>
      <point x="164" y="422"/>
      <point x="189" y="370" type="curve"/>
    </contour>
    <contour>
      <point x="768" y="-5" type="line"/>
      <point x="834" y="-5" type="line"/>
      <point x="977" y="354" type="line"/>
      <point x="1003" y="420"/>
      <point x="1038" y="441"/>
      <point x="1129" y="441" type="curve"/>
      <point x="1129" y="512" type="line"/>
      <point x="1064" y="510"/>
      <point x="1033" y="509"/>
      <point x="997" y="509" type="curve"/>
      <point x="968" y="509"/>
      <point x="948" y="510"/>
      <point x="921" y="512" type="curve"/>
      <point x="929" y="472"/>
      <point x="921" y="417"/>
      <point x="898" y="360" type="curve"/>
      <point x="796" y="96" type="line"/>
      <point x="818" y="104" type="line"/>
      <point x="644" y="512" type="line"/>
      <point x="571" y="512" type="line"/>
      <point x="594" y="408" type="line"/>
    </contour>
  </outline>
</glyph>
<glyph name="x" format="2">
  <advance width="855"/>
  <unicode hex="0078"/>
  <anchor x="438" y="0" name="bottom"/>
  <anchor x="810" y="0" name="bottomright"/>
  <anchor x="438" y="512" name="top"/>
  <outline>
    <contour>
      <point x="567" y="0" type="curve"/>
      <point x="608" y="2"/>
      <point x="635" y="3"/>
      <point x="670" y="3" type="curve" smooth="yes"/>
      <point x="718" y="3"/>
      <point x="766" y="2"/>
      <point x="810" y="0" type="curve"/>
      <point x="810" y="71" type="line"/>
      <point x="716" y="70"/>
      <point x="660" y="87"/>
      <point x="605" y="142" type="curve" smooth="yes"/>
      <point x="345" y="402" type="line" smooth="yes"/>
      <point x="310" y="437"/>
      <point x="301" y="474"/>
      <point x="302" y="514" type="curve"/>
      <point x="261" y="512"/>
      <point x="234" y="511"/>
      <point x="199" y="511" type="curve" smooth="yes"/>
      <point x="151" y="511"/>
      <point x="103" y="512"/>
      <point x="59" y="514" type="curve"/>
      <point x="59" y="443" type="line"/>
      <point x="153" y="444"/>
      <point x="209" y="427"/>
      <point x="264" y="372" type="curve" smooth="yes"/>
      <point x="524" y="112" type="line" smooth="yes"/>
      <point x="559" y="77"/>
      <point x="568" y="40"/>
    </contour>
    <contour>
      <point x="40" y="0" type="line"/>
      <point x="88" y="2"/>
      <point x="180" y="3"/>
      <point x="235" y="3" type="curve" smooth="yes"/>
      <point x="299" y="3"/>
      <point x="344" y="2"/>
      <point x="377" y="0" type="curve"/>
      <point x="377" y="71" type="line"/>
      <point x="302" y="71"/>
      <point x="284" y="99"/>
      <point x="326" y="136" type="curve" smooth="yes"/>
      <point x="447" y="244" type="line"/>
      <point x="392" y="281" type="line"/>
      <point x="246" y="151" type="line" smooth="yes"/>
      <point x="179" y="92"/>
      <point x="125" y="71"/>
      <point x="40" y="71" type="curve"/>
    </contour>
    <contour>
      <point x="473" y="245" type="line"/>
      <point x="600" y="365" type="line" smooth="yes"/>
      <point x="663" y="424"/>
      <point x="707" y="443"/>
      <point x="780" y="443" type="curve"/>
      <point x="780" y="514" type="line"/>
      <point x="751" y="512"/>
      <point x="699" y="511"/>
      <point x="636" y="511" type="curve" smooth="yes"/>
      <point x="595" y="511"/>
      <point x="568" y="512"/>
      <point x="492" y="514" type="curve"/>
      <point x="492" y="443" type="line"/>
      <point x="558" y="443"/>
      <point x="568" y="424"/>
      <point x="535" y="392" type="curve" smooth="yes"/>
      <point x="420" y="283" type="line"/>
    </contour>
  </outline>
</glyph>
<glyph name="y" format="2">
  <advance width="814"/>
  <unicode hex="0079"/>
  <anchor x="-189" y="256" name="#entry"/>
  <anchor x="534" y="0" name="bottom"/>
  <anchor x="423" y="257" name="center"/>
  <anchor x="426" y="512" name="top"/>
  <outline>
    <contour>
      <point x="392" y="-8" type="line"/>
      <point x="459" y="-8" type="line"/>
      <point x="615" y="312" type="line"/>
      <point x="661" y="408"/>
      <point x="686" y="431"/>
      <point x="749" y="439" type="curve"/>
      <point x="774" y="442" type="line"/>
      <point x="774" y="512" type="line"/>
      <point x="731" y="510"/>
      <point x="679" y="509"/>
      <point x="629" y="509" type="curve"/>
      <point x="579" y="509"/>
      <point x="528" y="510"/>
      <point x="483" y="512" type="curve"/>
      <point x="483" y="442" type="line"/>
      <point x="508" y="439" type="line"/>
      <point x="565" y="433"/>
      <point x="580" y="404"/>
      <point x="532" y="302" type="curve"/>
      <point x="421" y="74" type="line"/>
      <point x="454" y="65" type="line"/>
      <point x="278" y="403" type="line"/>
      <point x="261" y="436"/>
      <point x="247" y="472"/>
      <point x="248" y="512" type="curve"/>
      <point x="224" y="510"/>
      <point x="199" y="509"/>
      <point x="175" y="509" type="curve"/>
      <point x="128" y="509"/>
      <point x="82" y="510"/>
      <point x="40" y="512" type="curve"/>
      <point x="40" y="441" type="line"/>
      <point x="118" y="442"/>
      <point x="169" y="424"/>
      <point x="195" y="374" type="curve"/>
    </contour>
    <contour>
      <point x="248" y="-239" type="curve" smooth="yes"/>
      <point x="316" y="-239"/>
      <point x="364" y="-206"/>
      <point x="399" y="-134" type="curve" smooth="yes"/>
      <point x="464" y="1" type="line"/>
      <point x="404" y="36" type="line"/>
      <point x="333" y="-108" type="line" smooth="yes"/>
      <point x="309" y="-156"/>
      <point x="288" y="-173"/>
      <point x="253" y="-173" type="curve" smooth="yes"/>
      <point x="233" y="-173"/>
      <point x="220" y="-165"/>
      <point x="220" y="-153" type="curve" smooth="yes"/>
      <point x="220" y="-136"/>
      <point x="244" y="-124"/>
      <point x="244" y="-96" type="curve" smooth="yes"/>
      <point x="244" y="-69"/>
      <point x="222" y="-52"/>
      <point x="188" y="-52" type="curve" smooth="yes"/>
      <point x="141" y="-52"/>
      <point x="110" y="-84"/>
      <point x="110" y="-131" type="curve" smooth="yes"/>
      <point x="110" y="-194"/>
      <point x="168" y="-239"/>
    </contour>
  </outline>
</glyph>
<glyph name="z" format="2">
  <advance width="759"/>
  <unicode hex="007A"/>
  <anchor x="374" y="0" name="bottom"/>
  <anchor x="379" y="269" name="center"/>
  <anchor x="377" y="512" name="top"/>
  <outline>
    <contour>
      <point x="120" y="0" type="line"/>
      <point x="188" y="2"/>
      <point x="262" y="3"/>
      <point x="333" y="3" type="curve" smooth="yes"/>
      <point x="479" y="3" type="line"/>
      <point x="489" y="3" type="line"/>
      <point x="539" y="3"/>
      <point x="589" y="2"/>
      <point x="639" y="0" type="curve"/>
      <point x="639" y="65"/>
      <point x="644" y="119"/>
      <point x="656" y="182" type="curve"/>
      <point x="583" y="182" type="line"/>
      <point x="556" y="90"/>
      <point x="523" y="70"/>
      <point x="479" y="70" type="curve"/>
      <point x="231" y="70" type="line"/>
      <point x="631" y="442" type="line"/>
      <point x="631" y="512" type="line"/>
      <point x="566" y="510"/>
      <point x="504" y="509"/>
      <point x="428" y="509" type="curve" smooth="yes"/>
      <point x="282" y="509" type="line"/>
      <point x="272" y="509" type="line"/>
      <point x="222" y="509"/>
      <point x="172" y="510"/>
      <point x="122" y="512" type="curve"/>
      <point x="122" y="447"/>
      <point x="117" y="393"/>
      <point x="105" y="330" type="curve"/>
      <point x="178" y="330" type="line"/>
      <point x="205" y="422"/>
      <point x="238" y="442"/>
      <point x="282" y="442" type="curve"/>
      <point x="519" y="442" type="line"/>
      <point x="120" y="70" type="line"/>
    </contour>
  </outline>
</glyph>
<glyph name="braceleft" format="2">
  <advance width="409"/>
  <unicode hex="007B"/>
  <outline>
    <contour>
      <point x="339" y="-191" type="curve"/>
      <point x="339" y="-122" type="line"/>
      <point x="245" y="-119"/>
      <point x="238" y="-113"/>
      <point x="232" y="47" type="curve" smooth="yes"/>
      <point x="226" y="211"/>
      <point x="208" y="273"/>
      <point x="140" y="299" type="curve"/>
      <point x="210" y="327"/>
      <point x="224" y="382"/>
      <point x="232" y="550" type="curve" smooth="yes"/>
      <point x="239" y="706"/>
      <point x="248" y="713"/>
      <point x="339" y="713" type="curve"/>
      <point x="339" y="782" type="line"/>
      <point x="189" y="782"/>
      <point x="156" y="742"/>
      <point x="142" y="551" type="curve" smooth="yes"/>
      <point x="126" y="337"/>
      <point x="120" y="333"/>
      <point x="45" y="333" type="curve" smooth="yes"/>
      <point x="39" y="333" type="line"/>
      <point x="39" y="265" type="line"/>
      <point x="45" y="265" type="line" smooth="yes"/>
      <point x="123" y="265"/>
      <point x="127" y="261"/>
      <point x="142" y="47" type="curve" smooth="yes"/>
      <point x="156" y="-154"/>
      <point x="187" y="-191"/>
    </contour>
  </outline>
</glyph>
<glyph name="asciitilde" format="2">
  <advance width="825"/>
  <unicode hex="007E"/>
  <anchor x="412" y="262" name="_center"/>
  <outline>
    <contour>
      <point x="552" y="196" type="curve" smooth="yes"/>
      <point x="633" y="196"/>
      <point x="687" y="230"/>
      <point x="714" y="297" type="curve"/>
      <point x="649" y="332" type="line"/>
      <point x="629" y="292"/>
      <point x="602" y="276"/>
      <point x="556" y="276" type="curve" smooth="yes"/>
      <point x="468" y="276"/>
      <point x="381" y="335"/>
      <point x="274" y="335" type="curve" smooth="yes"/>
      <point x="193" y="335"/>
      <point x="138" y="301"/>
      <point x="111" y="234" type="curve"/>
      <point x="176" y="199" type="line"/>
      <point x="197" y="239"/>
      <point x="224" y="255"/>
      <point x="270" y="255" type="curve" smooth="yes"/>
      <point x="357" y="255"/>
      <point x="444" y="196"/>
    </contour>
  </outline>
</glyph>
<glyph name="sterling" format="2">
  <advance width="767"/>
  <unicode hex="00A3"/>
  <outline>
    <contour>
      <point x="44" y="310" type="line"/>
      <point x="483" y="310" type="line"/>
      <point x="483" y="380" type="line"/>
      <point x="44" y="380" type="line"/>
    </contour>
    <contour>
      <point x="162" y="98" type="curve"/>
      <point x="223" y="86" type="line"/>
      <point x="267" y="148"/>
      <point x="274" y="206"/>
      <point x="274" y="286" type="curve" smooth="yes"/>
      <point x="274" y="474" type="line" smooth="yes"/>
      <point x="274" y="597"/>
      <point x="329" y="654"/>
      <point x="446" y="654" type="curve" smooth="yes"/>
      <point x="495" y="654"/>
      <point x="522" y="642"/>
      <point x="522" y="621" type="curve" smooth="yes"/>
      <point x="522" y="600"/>
      <point x="495" y="582"/>
      <point x="495" y="547" type="curve" smooth="yes"/>
      <point x="495" y="512"/>
      <point x="521" y="488"/>
      <point x="560" y="488" type="curve" smooth="yes"/>
      <point x="609" y="488"/>
      <point x="642" y="527"/>
      <point x="642" y="583" type="curve" smooth="yes"/>
      <point x="642" y="669"/>
      <point x="564" y="722"/>
      <point x="438" y="722" type="curve" smooth="yes"/>
      <point x="267" y="722"/>
      <point x="181" y="630"/>
      <point x="181" y="449" type="curve" smooth="yes"/>
      <point x="181" y="206" type="line" smooth="yes"/>
      <point x="181" y="161"/>
      <point x="177" y="132"/>
    </contour>
    <contour>
      <point x="100" y="-14" type="curve" smooth="yes"/>
      <point x="141" y="-14"/>
      <point x="176" y="11"/>
      <point x="213" y="66" type="curve"/>
      <point x="168" y="42" type="line"/>
      <point x="219" y="33"/>
      <point x="379" y="-14"/>
      <point x="512" y="-14" type="curve" smooth="yes"/>
      <point x="652" y="-14"/>
      <point x="725" y="37"/>
      <point x="725" y="134" type="curve" smooth="yes"/>
      <point x="725" y="193"/>
      <point x="698" y="226"/>
      <point x="650" y="226" type="curve" smooth="yes"/>
      <point x="609" y="226"/>
      <point x="583" y="202"/>
      <point x="583" y="164" type="curve" smooth="yes"/>
      <point x="583" y="119"/>
      <point x="620" y="102"/>
      <point x="620" y="70" type="curve" smooth="yes"/>
      <point x="620" y="51"/>
      <point x="609" y="45"/>
      <point x="580" y="45" type="curve" smooth="yes"/>
      <point x="483" y="45"/>
      <point x="339" y="113"/>
      <point x="190" y="113" type="curve" smooth="yes"/>
      <point x="95" y="113"/>
      <point x="42" y="86"/>
      <point x="42" y="37" type="curve" smooth="yes"/>
      <point x="42" y="5"/>
      <point x="64" y="-14"/>
    </contour>
  </outline>
</glyph>
<glyph name="currency" format="2">
  <advance width="535"/>
  <unicode hex="00A4"/>
  <outline>
    <contour>
      <point x="103" y="33" type="line"/>
      <point x="153" y="83" type="line"/>
      <point x="186" y="61"/>
      <point x="225" y="49"/>
      <point x="267" y="49" type="curve" smooth="yes"/>
      <point x="309" y="49"/>
      <point x="347" y="61"/>
      <point x="380" y="83" type="curve"/>
      <point x="431" y="32" type="line"/>
      <point x="492" y="93" type="line"/>
      <point x="441" y="144" type="line"/>
      <point x="463" y="177"/>
      <point x="475" y="215"/>
      <point x="475" y="257" type="curve" smooth="yes"/>
      <point x="475" y="299"/>
      <point x="463" y="337"/>
      <point x="441" y="370" type="curve"/>
      <point x="493" y="422" type="line"/>
      <point x="432" y="483" type="line"/>
      <point x="380" y="431" type="line"/>
      <point x="347" y="453"/>
      <point x="309" y="465"/>
      <point x="267" y="465" type="curve" smooth="yes"/>
      <point x="226" y="465"/>
      <point x="187" y="453"/>
      <point x="154" y="432" type="curve"/>
      <point x="103" y="483" type="line"/>
      <point x="42" y="422" type="line"/>
      <point x="93" y="371" type="line"/>
      <point x="71" y="338"/>
      <point x="58" y="299"/>
      <point x="58" y="257" type="curve" smooth="yes"/>
      <point x="58" y="215"/>
      <point x="70" y="177"/>
      <point x="92" y="144" type="curve"/>
      <point x="42" y="94" type="line"/>
    </contour>
    <contour>
      <point x="267" y="119" type="curve" smooth="yes"/>
      <point x="192" y="119"/>
      <point x="133" y="182"/>
      <point x="133" y="257" type="curve" smooth="yes"/>
      <point x="133" y="333"/>
      <point x="192" y="396"/>
      <point x="267" y="396" type="curve" smooth="yes"/>
      <point x="343" y="396"/>
      <point x="403" y="333"/>
      <point x="403" y="257" type="curve" smooth="yes"/>
      <point x="403" y="182"/>
      <point x="343" y="119"/>
    </contour>
  </outline>
</glyph>
<glyph name="brokenbar" format="2">
  <advance width="248"/>
  <unicode hex="00A6"/>
  <outline>
    <contour>
      <point x="79" y="-231" type="line"/>
      <point x="169" y="-231" type="line"/>
      <point x="169" y="326" type="line"/>
      <point x="79" y="326" type="line"/>
    </contour>
    <contour>
      <point x="79" y="384" type="line"/>
      <point x="169" y="384" type="line"/>
      <point x="169" y="858" type="line"/>
      <point x="79" y="858" type="line"/>
    </contour>
  </outline>
</glyph>
<glyph name="section" format="2">
  <advance width="616"/>
  <unicode hex="00A7"/>
  <outline>
    <contour>
      <point x="433" y="19" type="line"/>
      <point x="522" y="73"/>
      <point x="562" y="131"/>
      <point x="562" y="200" type="curve" smooth="yes"/>
      <point x="562" y="279"/>
      <point x="500" y="338"/>
      <point x="384" y="415" type="curve" smooth="yes"/>
      <point x="237" y="513"/>
      <point x="216" y="545"/>
      <point x="216" y="580" type="curve" smooth="yes"/>
      <point x="216" y="626"/>
      <point x="257" y="654"/>
      <point x="331" y="654" type="curve" smooth="yes"/>
      <point x="380" y="654"/>
      <point x="410" y="641"/>
      <point x="410" y="620" type="curve" smooth="yes"/>
      <point x="410" y="596"/>
      <point x="372" y="568"/>
      <point x="372" y="530" type="curve" smooth="yes"/>
      <point x="372" y="499"/>
      <point x="398" y="478"/>
      <point x="436" y="478" type="curve" smooth="yes"/>
      <point x="488" y="478"/>
      <point x="524" y="519"/>
      <point x="524" y="578" type="curve" smooth="yes"/>
      <point x="524" y="667"/>
      <point x="447" y="722"/>
      <point x="330" y="722" type="curve" smooth="yes"/>
      <point x="197" y="722"/>
      <point x="120" y="663"/>
      <point x="120" y="572" type="curve" smooth="yes"/>
      <point x="120" y="504"/>
      <point x="161" y="451"/>
      <point x="297" y="361" type="curve" smooth="yes"/>
      <point x="430" y="273"/>
      <point x="473" y="232"/>
      <point x="473" y="178" type="curve" smooth="yes"/>
      <point x="473" y="136"/>
      <point x="440" y="94"/>
      <point x="381" y="60" type="curve"/>
    </contour>
    <contour>
      <point x="288" y="-239" type="curve" smooth="yes"/>
      <point x="421" y="-239"/>
      <point x="498" y="-180"/>
      <point x="498" y="-89" type="curve" smooth="yes"/>
      <point x="498" y="-21"/>
      <point x="457" y="32"/>
      <point x="321" y="122" type="curve" smooth="yes"/>
      <point x="188" y="210"/>
      <point x="145" y="251"/>
      <point x="145" y="305" type="curve" smooth="yes"/>
      <point x="145" y="347"/>
      <point x="178" y="389"/>
      <point x="237" y="423" type="curve"/>
      <point x="185" y="464" type="line"/>
      <point x="96" y="410"/>
      <point x="56" y="352"/>
      <point x="56" y="283" type="curve" smooth="yes"/>
      <point x="56" y="204"/>
      <point x="118" y="145"/>
      <point x="234" y="68" type="curve" smooth="yes"/>
      <point x="381" y="-30"/>
      <point x="402" y="-62"/>
      <point x="402" y="-97" type="curve" smooth="yes"/>
      <point x="402" y="-143"/>
      <point x="361" y="-171"/>
      <point x="287" y="-171" type="curve" smooth="yes"/>
      <point x="238" y="-171"/>
      <point x="208" y="-158"/>
      <point x="208" y="-137" type="curve" smooth="yes"/>
      <point x="208" y="-113"/>
      <point x="246" y="-85"/>
      <point x="246" y="-47" type="curve" smooth="yes"/>
      <point x="246" y="-16"/>
      <point x="220" y="5"/>
      <point x="182" y="5" type="curve" smooth="yes"/>
      <point x="130" y="5"/>
      <point x="94" y="-36"/>
      <point x="94" y="-95" type="curve" smooth="yes"/>
      <point x="94" y="-184"/>
      <point x="171" y="-239"/>
    </contour>
  </outline>
</glyph>
<glyph name="copyright" format="2">
  <advance width="916"/>
  <unicode hex="00A9"/>
  <outline>
    <contour>
      <point x="458" y="-14" type="curve" smooth="yes"/>
      <point x="690" y="-14"/>
      <point x="856" y="152"/>
      <point x="856" y="384" type="curve" smooth="yes"/>
      <point x="856" y="616"/>
      <point x="690" y="782"/>
      <point x="458" y="782" type="curve" smooth="yes"/>
      <point x="226" y="782"/>
      <point x="60" y="616"/>
      <point x="60" y="384" type="curve" smooth="yes"/>
      <point x="60" y="152"/>
      <point x="226" y="-14"/>
    </contour>
    <contour>
      <point x="464" y="153" type="curve" smooth="yes"/>
      <point x="564" y="153"/>
      <point x="641" y="202"/>
      <point x="684" y="292" type="curve"/>
      <point x="620" y="331" type="line"/>
      <point x="579" y="266"/>
      <point x="536" y="238"/>
      <point x="476" y="238" type="curve" smooth="yes"/>
      <point x="379" y="238"/>
      <point x="316" y="298"/>
      <point x="316" y="392" type="curve" smooth="yes"/>
      <point x="316" y="488"/>
      <point x="380" y="548"/>
      <point x="482" y="548" type="curve" smooth="yes"/>
      <point x="529" y="548"/>
      <point x="562" y="534"/>
      <point x="562" y="514" type="curve" smooth="yes"/>
      <point x="562" y="495"/>
      <point x="532" y="477"/>
      <point x="532" y="440" type="curve" smooth="yes"/>
      <point x="532" y="406"/>
      <point x="558" y="382"/>
      <point x="597" y="382" type="curve" smooth="yes"/>
      <point x="644" y="382"/>
      <point x="677" y="417"/>
      <point x="677" y="467" type="curve" smooth="yes"/>
      <point x="677" y="550"/>
      <point x="586" y="616"/>
      <point x="472" y="616" type="curve" smooth="yes"/>
      <point x="326" y="616"/>
      <point x="219" y="515"/>
      <point x="219" y="379" type="curve" smooth="yes"/>
      <point x="219" y="247"/>
      <point x="321" y="153"/>
    </contour>
    <contour>
      <point x="458" y="68" type="curve" smooth="yes"/>
      <point x="278" y="68"/>
      <point x="150" y="200"/>
      <point x="150" y="384" type="curve" smooth="yes"/>
      <point x="150" y="568"/>
      <point x="278" y="700"/>
      <point x="458" y="700" type="curve" smooth="yes"/>
      <point x="638" y="700"/>
      <point x="766" y="568"/>
      <point x="766" y="384" type="curve" smooth="yes"/>
      <point x="766" y="200"/>
      <point x="638" y="68"/>
    </contour>
  </outline>
</glyph>
<glyph name="ordfeminine" format="2">
  <advance width="532"/>
  <unicode hex="00AA"/>
  <outline>
    <contour>
      <point x="190" y="360" type="curve" smooth="yes"/>
      <point x="247" y="360"/>
      <point x="298" y="377"/>
      <point x="344" y="412" type="curve"/>
      <point x="357" y="376"/>
      <point x="383" y="360"/>
      <point x="429" y="360" type="curve" smooth="yes"/>
      <point x="460" y="360"/>
      <point x="495" y="370"/>
      <point x="520" y="385" type="curve"/>
      <point x="497" y="437" type="line"/>
      <point x="488" y="434"/>
      <point x="477" y="433"/>
      <point x="461" y="433" type="curve" smooth="yes"/>
      <point x="437" y="433"/>
      <point x="424" y="445"/>
      <point x="424" y="466" type="curve" smooth="yes"/>
      <point x="424" y="604" type="line" smooth="yes"/>
      <point x="424" y="685"/>
      <point x="375" y="723"/>
      <point x="269" y="723" type="curve" smooth="yes"/>
      <point x="160" y="723"/>
      <point x="86" y="681"/>
      <point x="86" y="624" type="curve" smooth="yes"/>
      <point x="86" y="593"/>
      <point x="105" y="577"/>
      <point x="134" y="577" type="curve" smooth="yes"/>
      <point x="158" y="577"/>
      <point x="173" y="587"/>
      <point x="173" y="602" type="curve" smooth="yes"/>
      <point x="173" y="610"/>
      <point x="169" y="622"/>
      <point x="169" y="629" type="curve" smooth="yes"/>
      <point x="169" y="648"/>
      <point x="199" y="659"/>
      <point x="252" y="659" type="curve" smooth="yes"/>
      <point x="313" y="659"/>
      <point x="344" y="645"/>
      <point x="344" y="618" type="curve" smooth="yes"/>
      <point x="344" y="595" type="line" smooth="yes"/>
      <point x="344" y="559"/>
      <point x="67" y="586"/>
      <point x="67" y="449" type="curve" smooth="yes"/>
      <point x="67" y="393"/>
      <point x="113" y="360"/>
    </contour>
    <contour>
      <point x="208" y="422" type="curve" smooth="yes"/>
      <point x="168" y="422"/>
      <point x="148" y="435"/>
      <point x="148" y="461" type="curve" smooth="yes"/>
      <point x="148" y="516"/>
      <point x="299" y="510"/>
      <point x="344" y="541" type="curve"/>
      <point x="344" y="464" type="line"/>
      <point x="309" y="436"/>
      <point x="265" y="422"/>
    </contour>
  </outline>
</glyph>
<glyph name="registered" format="2">
  <advance width="723"/>
  <unicode hex="00AE"/>
  <outline>
    <contour>
      <point x="361" y="210" type="curve" smooth="yes"/>
      <point x="523" y="210"/>
      <point x="654" y="341"/>
      <point x="654" y="503" type="curve" smooth="yes"/>
      <point x="654" y="665"/>
      <point x="523" y="796"/>
      <point x="361" y="796" type="curve" smooth="yes"/>
      <point x="199" y="796"/>
      <point x="68" y="665"/>
      <point x="68" y="503" type="curve" smooth="yes"/>
      <point x="68" y="341"/>
      <point x="199" y="210"/>
    </contour>
    <contour>
      <point x="361" y="259" type="curve" smooth="yes"/>
      <point x="229" y="259"/>
      <point x="122" y="369"/>
      <point x="122" y="503" type="curve" smooth="yes"/>
      <point x="122" y="637"/>
      <point x="229" y="747"/>
      <point x="361" y="747" type="curve" smooth="yes"/>
      <point x="493" y="747"/>
      <point x="600" y="637"/>
      <point x="600" y="503" type="curve" smooth="yes"/>
      <point x="600" y="369"/>
      <point x="493" y="259"/>
    </contour>
    <contour>
      <point x="198" y="367" type="line"/>
      <point x="242" y="367"/>
      <point x="266" y="368"/>
      <point x="290" y="368" type="curve" smooth="yes"/>
      <point x="313" y="368"/>
      <point x="335" y="367"/>
      <point x="391" y="367" type="curve"/>
      <point x="391" y="402" type="line"/>
      <point x="322" y="404"/>
      <point x="318" y="409"/>
      <point x="318" y="439" type="curve" smooth="yes"/>
      <point x="318" y="616" type="line"/>
      <point x="377" y="616" type="line" smooth="yes"/>
      <point x="421" y="616"/>
      <point x="443" y="602"/>
      <point x="443" y="575" type="curve" smooth="yes"/>
      <point x="443" y="543"/>
      <point x="422" y="526"/>
      <point x="382" y="526" type="curve" smooth="yes"/>
      <point x="309" y="526" type="line"/>
      <point x="309" y="490" type="line"/>
      <point x="379" y="490" type="line" smooth="yes"/>
      <point x="459" y="490"/>
      <point x="504" y="527"/>
      <point x="504" y="577" type="curve" smooth="yes"/>
      <point x="504" y="625"/>
      <point x="463" y="651"/>
      <point x="392" y="651" type="curve" smooth="yes"/>
      <point x="376" y="651"/>
      <point x="332" y="650"/>
      <point x="286" y="650" type="curve" smooth="yes"/>
      <point x="243" y="650"/>
      <point x="236" y="650"/>
      <point x="198" y="651" type="curve"/>
      <point x="198" y="616" type="line"/>
      <point x="257" y="614"/>
      <point x="261" y="609"/>
      <point x="261" y="578" type="curve" smooth="yes"/>
      <point x="261" y="439" type="line" smooth="yes"/>
      <point x="261" y="409"/>
      <point x="257" y="404"/>
      <point x="198" y="402" type="curve"/>
    </contour>
    <contour>
      <point x="491" y="359" type="curve" smooth="yes"/>
      <point x="514" y="359"/>
      <point x="533" y="369"/>
      <point x="543" y="384" type="curve"/>
      <point x="522" y="409" type="line"/>
      <point x="518" y="405"/>
      <point x="515" y="402"/>
      <point x="509" y="402" type="curve" smooth="yes"/>
      <point x="503" y="402"/>
      <point x="499" y="405"/>
      <point x="496" y="417" type="curve" smooth="yes"/>
      <point x="487" y="450" type="line" smooth="yes"/>
      <point x="477" y="487"/>
      <point x="458" y="498"/>
      <point x="403" y="502" type="curve"/>
      <point x="374" y="504" type="line"/>
      <point x="376" y="490" type="line"/>
      <point x="403" y="489"/>
      <point x="418" y="481"/>
      <point x="427" y="446" type="curve" smooth="yes"/>
      <point x="436" y="410" type="line" smooth="yes"/>
      <point x="444" y="376"/>
      <point x="460" y="359"/>
    </contour>
  </outline>
</glyph>
<glyph name="degree" format="2">
  <advance width="404"/>
  <unicode hex="00B0"/>
  <outline>
    <contour>
      <point x="202" y="503" type="curve" smooth="yes"/>
      <point x="311" y="503"/>
      <point x="384" y="566"/>
      <point x="384" y="660" type="curve" smooth="yes"/>
      <point x="384" y="753"/>
      <point x="310" y="816"/>
      <point x="201" y="816" type="curve" smooth="yes"/>
      <point x="94" y="816"/>
      <point x="20" y="752"/>
      <point x="20" y="660" type="curve" smooth="yes"/>
      <point x="20" y="567"/>
      <point x="94" y="503"/>
    </contour>
    <contour>
      <point x="201" y="570" type="curve" smooth="yes"/>
      <point x="136" y="570"/>
      <point x="95" y="605"/>
      <point x="95" y="659" type="curve" smooth="yes"/>
      <point x="95" y="712"/>
      <point x="138" y="749"/>
      <point x="201" y="749" type="curve" smooth="yes"/>
      <point x="264" y="749"/>
      <point x="309" y="711"/>
      <point x="309" y="659" type="curve" smooth="yes"/>
      <point x="309" y="605"/>
      <point x="266" y="570"/>
    </contour>
  </outline>
</glyph>
<glyph name="paragraph" format="2">
  <advance width="949"/>
  <unicode hex="00B6"/>
  <outline>
    <contour>
      <point x="414" y="-231" type="line"/>
      <point x="453" y="-229"/>
      <point x="529" y="-228"/>
      <point x="642" y="-228" type="curve" smooth="yes"/>
      <point x="751" y="-228"/>
      <point x="823" y="-229"/>
      <point x="859" y="-231" type="curve"/>
      <point x="859" y="-161" type="line"/>
      <point x="717" y="-158"/>
      <point x="693" y="-146"/>
      <point x="693" y="-75" type="curve" smooth="yes"/>
      <point x="693" y="552" type="line" smooth="yes"/>
      <point x="693" y="623"/>
      <point x="717" y="635"/>
      <point x="859" y="638" type="curve"/>
      <point x="859" y="708" type="line"/>
      <point x="763" y="705"/>
      <point x="672" y="709"/>
      <point x="571" y="709" type="curve" smooth="yes"/>
      <point x="238" y="709"/>
      <point x="102" y="629"/>
      <point x="102" y="434" type="curve" smooth="yes"/>
      <point x="102" y="235"/>
      <point x="254" y="148"/>
      <point x="600" y="148" type="curve"/>
      <point x="600" y="-75" type="line" smooth="yes"/>
      <point x="600" y="-146"/>
      <point x="573" y="-158"/>
      <point x="414" y="-161" type="curve"/>
    </contour>
    <contour>
      <point x="601" y="229" type="line"/>
      <point x="588" y="229"/>
      <point x="551" y="280"/>
      <point x="544" y="348" type="curve"/>
      <point x="443" y="290"/>
      <point x="386" y="270"/>
      <point x="366" y="271" type="curve"/>
      <point x="367" y="286"/>
      <point x="401" y="315"/>
      <point x="478" y="399" type="curve"/>
      <point x="349" y="401"/>
      <point x="244" y="419"/>
      <point x="237" y="431" type="curve"/>
      <point x="242" y="441"/>
      <point x="347" y="462"/>
      <point x="478" y="465" type="curve"/>
      <point x="405" y="543"/>
      <point x="365" y="578"/>
      <point x="366" y="594" type="curve"/>
      <point x="385" y="594"/>
      <point x="445" y="575"/>
      <point x="544" y="516" type="curve"/>
      <point x="551" y="580"/>
      <point x="588" y="635"/>
      <point x="601" y="635" type="curve"/>
    </contour>
  </outline>
</glyph>
<glyph name="ordmasculine" format="2">
  <advance width="575"/>
  <unicode hex="00BA"/>
  <outline>
    <contour>
      <point x="287" y="360" type="curve" smooth="yes"/>
      <point x="420" y="360"/>
      <point x="506" y="431"/>
      <point x="506" y="541" type="curve" smooth="yes"/>
      <point x="506" y="651"/>
      <point x="420" y="722"/>
      <point x="287" y="722" type="curve" smooth="yes"/>
      <point x="154" y="722"/>
      <point x="69" y="651"/>
      <point x="69" y="541" type="curve" smooth="yes"/>
      <point x="69" y="431"/>
      <point x="154" y="360"/>
    </contour>
    <contour>
      <point x="287" y="428" type="curve" smooth="yes"/>
      <point x="198" y="428"/>
      <point x="152" y="467"/>
      <point x="152" y="541" type="curve" smooth="yes"/>
      <point x="152" y="615"/>
      <point x="198" y="654"/>
      <point x="287" y="654" type="curve" smooth="yes"/>
      <point x="377" y="654"/>
      <point x="423" y="615"/>
      <point x="423" y="541" type="curve" smooth="yes"/>
      <point x="423" y="467"/>
      <point x="377" y="428"/>
    </contour>
  </outline>
</glyph>
<glyph name="AE" format="2">
  <advance width="1188"/>
  <unicode hex="00C6"/>
  <anchor x="562" y="0" name="bottom"/>
  <anchor x="577" y="708" name="top"/>
  <anchor x="577" y="688" name="top_low_1"/>
  <anchor x="577" y="668" name="top_low_2"/>
  <anchor x="577" y="648" name="top_low_3"/>
  <outline>
    <contour>
      <point x="-11" y="0" type="line"/>
      <point x="35" y="2"/>
      <point x="95" y="3"/>
      <point x="168" y="3" type="curve" smooth="yes"/>
      <point x="217" y="3"/>
      <point x="274" y="2"/>
      <point x="329" y="0" type="curve"/>
      <point x="329" y="70" type="line"/>
      <point x="229" y="70"/>
      <point x="207" y="117"/>
      <point x="269" y="197" type="curve" smooth="yes"/>
      <point x="712" y="772" type="line"/>
      <point x="629" y="772" type="line"/>
      <point x="176" y="184" type="line" smooth="yes"/>
      <point x="109" y="97"/>
      <point x="64" y="70"/>
      <point x="-11" y="70" type="curve"/>
    </contour>
    <contour>
      <point x="327" y="321" type="line"/>
      <point x="796" y="321" type="line"/>
      <point x="796" y="391" type="line"/>
      <point x="377" y="391" type="line"/>
    </contour>
    <contour>
      <point x="624" y="3" type="curve"/>
      <point x="630" y="3" type="line"/>
      <point x="793" y="3" type="line"/>
      <point x="905" y="3"/>
      <point x="991" y="2"/>
      <point x="1056" y="0" type="curve"/>
      <point x="1056" y="88"/>
      <point x="1062" y="165"/>
      <point x="1076" y="250" type="curve"/>
      <point x="1003" y="250" type="line"/>
      <point x="956" y="104"/>
      <point x="920" y="73"/>
      <point x="787" y="73" type="curve"/>
      <point x="765" y="73" type="line" smooth="yes"/>
      <point x="689" y="73"/>
      <point x="675" y="84"/>
      <point x="675" y="156" type="curve" smooth="yes"/>
      <point x="675" y="635" type="line"/>
      <point x="742" y="635" type="line"/>
      <point x="873" y="635"/>
      <point x="915" y="613"/>
      <point x="945" y="508" type="curve"/>
      <point x="1018" y="508" type="line"/>
      <point x="1010" y="576"/>
      <point x="1006" y="638"/>
      <point x="1006" y="708" type="curve"/>
      <point x="945" y="706"/>
      <point x="866" y="705"/>
      <point x="761" y="705" type="curve"/>
      <point x="630" y="705" type="line"/>
      <point x="618" y="705" type="line"/>
      <point x="558" y="705"/>
      <point x="475" y="706"/>
      <point x="416" y="708" type="curve"/>
      <point x="416" y="638" type="line"/>
      <point x="482" y="632" type="line"/>
      <point x="565" y="624"/>
      <point x="582" y="610"/>
      <point x="582" y="552" type="curve"/>
      <point x="582" y="156" type="line"/>
      <point x="582" y="96"/>
      <point x="569" y="82"/>
      <point x="505" y="74" type="curve"/>
      <point x="466" y="70" type="line"/>
      <point x="466" y="0" type="line"/>
      <point x="512" y="2"/>
      <point x="577" y="3"/>
    </contour>
    <contour>
      <point x="816" y="214" type="curve"/>
      <point x="886" y="214" type="line"/>
      <point x="881" y="290"/>
      <point x="881" y="323"/>
      <point x="881" y="356" type="curve" smooth="yes"/>
      <point x="881" y="389"/>
      <point x="881" y="422"/>
      <point x="886" y="498" type="curve"/>
      <point x="816" y="498" type="line"/>
      <point x="809" y="433"/>
      <point x="783" y="391"/>
      <point x="715" y="391" type="curve"/>
      <point x="715" y="321" type="line"/>
      <point x="783" y="321"/>
      <point x="809" y="279"/>
    </contour>
  </outline>
</glyph>
<glyph name="multiply" format="2">
  <advance width="510"/>
  <unicode hex="00D7"/>
  <outline>
    <contour>
      <point x="100" y="53" type="line"/>
      <point x="256" y="209" type="line"/>
      <point x="411" y="54" type="line"/>
      <point x="469" y="111" type="line"/>
      <point x="313" y="267" type="line"/>
      <point x="469" y="421" type="line"/>
      <point x="411" y="478" type="line"/>
      <point x="257" y="323" type="line"/>
      <point x="99" y="481" type="line"/>
      <point x="41" y="423" type="line"/>
      <point x="199" y="265" type="line"/>
      <point x="42" y="110" type="line"/>
    </contour>
  </outline>
</glyph>
<glyph name="germandbls" format="2">
  <advance width="854"/>
  <unicode hex="00DF"/>
  <outline>
    <contour>
      <point x="535" y="-14" type="curve" smooth="yes"/>
      <point x="678" y="-14"/>
      <point x="777" y="81"/>
      <point x="777" y="219" type="curve" smooth="yes"/>
      <point x="777" y="324"/>
      <point x="720" y="400"/>
      <point x="609" y="442" type="curve"/>
      <point x="657" y="492"/>
      <point x="682" y="549"/>
      <point x="682" y="609" type="curve" smooth="yes"/>
      <point x="682" y="718"/>
      <point x="600" y="782"/>
      <point x="461" y="782" type="curve" smooth="yes"/>
      <point x="302" y="782"/>
      <point x="218" y="698"/>
      <point x="218" y="539" type="curve" smooth="yes"/>
      <point x="218" y="187" type="line"/>
      <point x="218" y="106"/>
      <point x="199" y="84"/>
      <point x="116" y="76" type="curve"/>
      <point x="55" y="70" type="line"/>
      <point x="55" y="0" type="line"/>
      <point x="74" y="1"/>
      <point x="102" y="2"/>
      <point x="136" y="2" type="curve"/>
      <point x="200" y="2"/>
      <point x="264" y="-3"/>
      <point x="308" y="-12" type="curve"/>
      <point x="308" y="0" type="line"/>
      <point x="308" y="545" type="line" smooth="yes"/>
      <point x="308" y="660"/>
      <point x="357" y="717"/>
      <point x="455" y="717" type="curve" smooth="yes"/>
      <point x="543" y="717"/>
      <point x="592" y="673"/>
      <point x="592" y="594" type="curve" smooth="yes"/>
      <point x="592" y="543"/>
      <point x="570" y="496"/>
      <point x="531" y="463" type="curve"/>
      <point x="508" y="465"/>
      <point x="488" y="469"/>
      <point x="474" y="469" type="curve" smooth="yes"/>
      <point x="443" y="469"/>
      <point x="421" y="451"/>
      <point x="421" y="427" type="curve" smooth="yes"/>
      <point x="421" y="404"/>
      <point x="442" y="385"/>
      <point x="469" y="385" type="curve" smooth="yes"/>
      <point x="485" y="385"/>
      <point x="500" y="391"/>
      <point x="528" y="398" type="curve"/>
      <point x="631" y="376"/>
      <point x="687" y="310"/>
      <point x="687" y="210" type="curve" smooth="yes"/>
      <point x="687" y="109"/>
      <point x="629" y="51"/>
      <point x="530" y="51" type="curve" smooth="yes"/>
      <point x="496" y="51"/>
      <point x="479" y="59"/>
      <point x="479" y="75" type="curve" smooth="yes"/>
      <point x="479" y="97"/>
      <point x="509" y="120"/>
      <point x="509" y="151" type="curve" smooth="yes"/>
      <point x="509" y="176"/>
      <point x="488" y="192"/>
      <point x="456" y="192" type="curve" smooth="yes"/>
      <point x="406" y="192"/>
      <point x="372" y="156"/>
      <point x="372" y="104" type="curve" smooth="yes"/>
      <point x="372" y="33"/>
      <point x="436" y="-14"/>
    </contour>
  </outline>
</glyph>
<glyph name="ae" format="2">
  <advance width="1097"/>
  <unicode hex="00E6"/>
  <anchor x="553" y="0" name="bottom"/>
  <anchor x="826" y="0" name="ogonek"/>
  <anchor x="545" y="512" name="top"/>
  <outline>
    <contour>
      <point x="746" y="-14" type="curve" smooth="yes"/>
      <point x="846" y="-14"/>
      <point x="930" y="24"/>
      <point x="983" y="95" type="curve"/>
      <point x="925" y="149" type="line"/>
      <point x="878" y="94"/>
      <point x="827" y="71"/>
      <point x="755" y="71" type="curve" smooth="yes"/>
      <point x="640" y="71"/>
      <point x="575" y="138"/>
      <point x="575" y="260" type="curve" smooth="yes"/>
      <point x="575" y="277"/>
      <point x="576" y="294"/>
      <point x="578" y="304" type="curve"/>
      <point x="575" y="307" type="line"/>
      <point x="585" y="402"/>
      <point x="644" y="459"/>
      <point x="739" y="459" type="curve" smooth="yes"/>
      <point x="832" y="459"/>
      <point x="884" y="409"/>
      <point x="881" y="325" type="curve"/>
      <point x="532" y="325" type="line"/>
      <point x="533" y="254" type="line"/>
      <point x="978" y="254" type="line"/>
      <point x="984" y="437"/>
      <point x="905" y="529"/>
      <point x="744" y="529" type="curve" smooth="yes"/>
      <point x="582" y="529"/>
      <point x="485" y="417"/>
      <point x="485" y="249" type="curve" smooth="yes"/>
      <point x="485" y="82"/>
      <point x="586" y="-14"/>
    </contour>
    <contour>
      <point x="299" y="68" type="curve" smooth="yes"/>
      <point x="229" y="68"/>
      <point x="204" y="92"/>
      <point x="204" y="136" type="curve" smooth="yes"/>
      <point x="204" y="237"/>
      <point x="412" y="215"/>
      <point x="485" y="268" type="curve"/>
      <point x="485" y="249" type="line"/>
      <point x="504" y="164" type="line"/>
      <point x="443" y="98"/>
      <point x="375" y="68"/>
    </contour>
    <contour>
      <point x="272" y="-14" type="curve" smooth="yes"/>
      <point x="377" y="-14"/>
      <point x="469" y="30"/>
      <point x="540" y="113" type="curve"/>
      <point x="565" y="381" type="line"/>
      <point x="565" y="492"/>
      <point x="478" y="529"/>
      <point x="371" y="529" type="curve" smooth="yes"/>
      <point x="232" y="529"/>
      <point x="128" y="471"/>
      <point x="128" y="392" type="curve" smooth="yes"/>
      <point x="128" y="352"/>
      <point x="157" y="324"/>
      <point x="199" y="324" type="curve" smooth="yes"/>
      <point x="234" y="324"/>
      <point x="258" y="342"/>
      <point x="258" y="369" type="curve" smooth="yes"/>
      <point x="258" y="398"/>
      <point x="230" y="412"/>
      <point x="230" y="426" type="curve" smooth="yes"/>
      <point x="230" y="444"/>
      <point x="276" y="457"/>
      <point x="341" y="457" type="curve" smooth="yes"/>
      <point x="435" y="457"/>
      <point x="485" y="429"/>
      <point x="485" y="376" type="curve" smooth="yes"/>
      <point x="485" y="355" type="line" smooth="yes"/>
      <point x="485" y="260"/>
      <point x="110" y="335"/>
      <point x="110" y="124" type="curve" smooth="yes"/>
      <point x="110" y="38"/>
      <point x="171" y="-14"/>
    </contour>
  </outline>
</glyph>
<glyph name="eth" format="2">
  <advance width="742"/>
  <unicode hex="00F0"/>
  <outline>
    <contour>
      <point x="379" y="-14" type="curve" smooth="yes"/>
      <point x="561" y="-14"/>
      <point x="663" y="91"/>
      <point x="663" y="279" type="curve" smooth="yes"/>
      <point x="663" y="521"/>
      <point x="489" y="726"/>
      <point x="217" y="782" type="curve"/>
      <point x="197" y="721" type="line"/>
      <point x="441" y="654"/>
      <point x="566" y="499"/>
      <point x="566" y="281" type="curve" smooth="yes"/>
      <point x="566" y="131"/>
      <point x="505" y="56"/>
      <point x="381" y="56" type="curve" smooth="yes"/>
      <point x="264" y="56"/>
      <point x="197" y="122"/>
      <point x="197" y="238" type="curve" smooth="yes"/>
      <point x="197" y="354"/>
      <point x="265" y="420"/>
      <point x="386" y="420" type="curve" smooth="yes"/>
      <point x="480" y="420"/>
      <point x="543" y="380"/>
      <point x="567" y="304" type="curve"/>
      <point x="569" y="397" type="line"/>
      <point x="533" y="462"/>
      <point x="469" y="494"/>
      <point x="375" y="494" type="curve" smooth="yes"/>
      <point x="207" y="494"/>
      <point x="100" y="395"/>
      <point x="100" y="238" type="curve" smooth="yes"/>
      <point x="100" y="82"/>
      <point x="206" y="-14"/>
    </contour>
    <contour>
      <point x="191" y="538" type="line"/>
      <point x="432" y="630" type="line"/>
      <point x="389" y="685" type="line"/>
      <point x="167" y="600" type="line"/>
    </contour>
    <contour>
      <point x="432" y="630" type="line"/>
      <point x="636" y="707" type="line"/>
      <point x="612" y="769" type="line"/>
      <point x="389" y="685" type="line"/>
    </contour>
  </outline>
</glyph>
<glyph name="divide" format="2">
  <advance width="647"/>
  <unicode hex="00F7"/>
  <outline>
    <contour>
      <point x="323" y="25" type="curve" smooth="yes"/>
      <point x="360" y="25"/>
      <point x="390" y="55"/>
      <point x="390" y="92" type="curve" smooth="yes"/>
      <point x="390" y="128"/>
      <point x="360" y="158"/>
      <point x="323" y="158" type="curve" smooth="yes"/>
      <point x="287" y="158"/>
      <point x="257" y="128"/>
      <point x="257" y="92" type="curve" smooth="yes"/>
      <point x="257" y="55"/>
      <point x="287" y="25"/>
    </contour>
    <contour>
      <point x="323" y="374" type="curve" smooth="yes"/>
      <point x="360" y="374"/>
      <point x="390" y="403"/>
      <point x="390" y="440" type="curve" smooth="yes"/>
      <point x="390" y="476"/>
      <point x="360" y="506"/>
      <point x="323" y="506" type="curve" smooth="yes"/>
      <point x="287" y="506"/>
      <point x="257" y="476"/>
      <point x="257" y="440" type="curve" smooth="yes"/>
      <point x="257" y="403"/>
      <point x="287" y="374"/>
    </contour>
    <component base="minus"/>
  </outline>
</glyph>
<glyph name="thorn" format="2">
  <advance width="858"/>
  <unicode hex="00FE"/>
  <anchor x="308" y="256" name="#entry"/>
  <anchor x="308" y="256" name="#exit"/>
  <anchor x="485" y="-231" name="bottom"/>
  <anchor x="465" y="255" name="center"/>
  <anchor x="218" y="0" name="lower-left"/>
  <anchor x="391" y="512" name="top"/>
  <anchor x="218" y="512" name="top-left"/>
  <outline>
    <contour>
      <point x="263" y="-228" type="curve"/>
      <point x="263" y="-228" type="line"/>
      <point x="263" y="-228" type="line"/>
      <point x="364" y="-228"/>
      <point x="432" y="-230"/>
      <point x="502" y="-231" type="curve"/>
      <point x="502" y="-161" type="line"/>
      <point x="440" y="-155" type="line"/>
      <point x="333" y="-145"/>
      <point x="308" y="-128"/>
      <point x="308" y="-54" type="curve"/>
      <point x="308" y="256" type="line"/>
      <point x="218" y="256" type="line"/>
      <point x="218" y="-54" type="line"/>
      <point x="218" y="-128"/>
      <point x="199" y="-147"/>
      <point x="116" y="-155" type="curve"/>
      <point x="55" y="-161" type="line"/>
      <point x="55" y="-231" type="line"/>
      <point x="116" y="-230"/>
      <point x="175" y="-228"/>
    </contour>
    <contour>
      <point x="511" y="526" type="curve" smooth="yes"/>
      <point x="409" y="526"/>
      <point x="324" y="476"/>
      <point x="289" y="394" type="curve"/>
      <point x="297" y="321" type="line"/>
      <point x="327" y="399"/>
      <point x="400" y="446"/>
      <point x="490" y="446" type="curve" smooth="yes"/>
      <point x="599" y="446"/>
      <point x="661" y="378"/>
      <point x="661" y="257" type="curve" smooth="yes"/>
      <point x="661" y="129"/>
      <point x="593" y="56"/>
      <point x="476" y="56" type="curve" smooth="yes"/>
      <point x="398" y="56"/>
      <point x="331" y="89"/>
      <point x="305" y="140" type="curve"/>
      <point x="291" y="78" type="line"/>
      <point x="335" y="16"/>
      <point x="405" y="-17"/>
      <point x="493" y="-17" type="curve" smooth="yes"/>
      <point x="653" y="-17"/>
      <point x="758" y="93"/>
      <point x="758" y="261" type="curve" smooth="yes"/>
      <point x="758" y="422"/>
      <point x="661" y="526"/>
    </contour>
    <component base="_LC-ascender-left-inserif"/>
  </outline>
</glyph>
<glyph name="Aogonek" format="2">
  <advance width="1011"/>
  <unicode hex="0104"/>
  <anchor x="492" y="354" name="center"/>
  <anchor x="494" y="708" name="top"/>
  <anchor x="494" y="688" name="top_low_1"/>
  <anchor x="494" y="668" name="top_low_2"/>
  <anchor x="494" y="648" name="top_low_3"/>
  <outline>
    <contour>
      <point x="293" y="209" type="curve"/>
      <point x="501" y="630" type="line"/>
      <point x="466" y="623" type="line"/>
      <point x="713" y="106" type="line"/>
      <point x="735" y="60"/>
      <point x="740" y="38"/>
      <point x="655" y="-26" type="curve"/>
      <point x="591" y="-75"/>
      <point x="566" y="-110"/>
      <point x="566" y="-151" type="curve"/>
      <point x="566" y="-206"/>
      <point x="618" y="-239"/>
      <point x="704" y="-239" type="curve"/>
      <point x="753" y="-239"/>
      <point x="805" y="-227"/>
      <point x="846" y="-208" type="curve"/>
      <point x="823" y="-145" type="line"/>
      <point x="789" y="-158"/>
      <point x="758" y="-164"/>
      <point x="728" y="-164" type="curve"/>
      <point x="683" y="-164"/>
      <point x="660" y="-151"/>
      <point x="660" y="-126" type="curve"/>
      <point x="660" y="-62"/>
      <point x="787" y="6"/>
      <point x="964" y="0" type="curve"/>
      <point x="964" y="70" type="line"/>
      <point x="868" y="72"/>
      <point x="823" y="95"/>
      <point x="788" y="166" type="curve"/>
      <point x="528" y="708" type="line"/>
      <point x="462" y="708" type="line"/>
      <point x="209" y="199" type="line"/>
      <point x="161" y="104"/>
      <point x="134" y="80"/>
      <point x="64" y="73" type="curve"/>
      <point x="35" y="70" type="line"/>
      <point x="35" y="0" type="line"/>
      <point x="84" y="2"/>
      <point x="143" y="3"/>
      <point x="200" y="3" type="curve"/>
      <point x="266" y="3"/>
      <point x="334" y="2"/>
      <point x="394" y="0" type="curve"/>
      <point x="394" y="70" type="line"/>
      <point x="357" y="74" type="line"/>
      <point x="273" y="83"/>
      <point x="252" y="127"/>
    </contour>
    <contour>
      <point x="264" y="226" type="line"/>
      <point x="701" y="226" type="line"/>
      <point x="674" y="297" type="line"/>
      <point x="297" y="297" type="line"/>
    </contour>
  </outline>
</glyph>
<glyph name="hbar" format="2">
  <advance width="928"/>
  <unicode hex="0127"/>
  <anchor x="218" y="256" name="#entry"/>
  <anchor x="308" y="256" name="#exit"/>
  <anchor x="-230" y="0" name="%entry"/>
  <anchor x="218" y="0" name="%exit"/>
  <anchor x="0" y="0" name="^entry"/>
  <anchor x="506" y="0" name="^exit"/>
  <anchor x="477" y="0" name="bottom"/>
  <anchor x="308" y="256" name="reversedExit"/>
  <anchor x="218" y="256" name="stem"/>
  <anchor x="464" y="512" name="top"/>
  <outline>
    <contour>
      <point x="263" y="3" type="curve"/>
      <point x="263" y="3" type="line"/>
      <point x="263" y="3" type="line"/>
      <point x="321" y="3"/>
      <point x="361" y="1"/>
      <point x="401" y="0" type="curve"/>
      <point x="401" y="70" type="line"/>
      <point x="390" y="71" type="line"/>
      <point x="321" y="77"/>
      <point x="308" y="103"/>
      <point x="308" y="177" type="curve"/>
      <point x="308" y="256" type="line"/>
      <point x="218" y="256" type="line"/>
      <point x="218" y="177" type="line"/>
      <point x="218" y="103"/>
      <point x="199" y="84"/>
      <point x="116" y="76" type="curve"/>
      <point x="55" y="70" type="line"/>
      <point x="55" y="0" type="line"/>
      <point x="116" y="1"/>
      <point x="175" y="3"/>
    </contour>
    <contour>
      <point x="620" y="256" type="line"/>
      <point x="710" y="256" type="line"/>
      <point x="710" y="264" type="line" smooth="yes"/>
      <point x="710" y="418"/>
      <point x="645" y="494"/>
      <point x="512" y="494" type="curve" smooth="yes"/>
      <point x="402" y="494"/>
      <point x="323" y="434"/>
      <point x="267" y="325" type="curve"/>
      <point x="265" y="266" type="line"/>
      <point x="319" y="362"/>
      <point x="396" y="412"/>
      <point x="492" y="412" type="curve" smooth="yes"/>
      <point x="582" y="412"/>
      <point x="620" y="365"/>
      <point x="620" y="255" type="curve" smooth="yes"/>
    </contour>
    <contour>
      <point x="665" y="3" type="curve"/>
      <point x="665" y="3" type="line"/>
      <point x="665" y="3" type="line"/>
      <point x="753" y="3"/>
      <point x="812" y="1"/>
      <point x="873" y="0" type="curve"/>
      <point x="873" y="70" type="line"/>
      <point x="812" y="76" type="line"/>
      <point x="729" y="84"/>
      <point x="710" y="103"/>
      <point x="710" y="177" type="curve"/>
      <point x="710" y="256" type="line"/>
      <point x="620" y="256" type="line"/>
      <point x="620" y="177" type="line"/>
      <point x="620" y="103"/>
      <point x="607" y="77"/>
      <point x="538" y="71" type="curve"/>
      <point x="527" y="70" type="line"/>
      <point x="527" y="0" type="line"/>
      <point x="567" y="1"/>
      <point x="607" y="3"/>
    </contour>
    <component base="_LC-ascender-serifless"/>
    <component base="strokeshortcomb" xOffset="2" yOffset="349"/>
  </outline>
</glyph>
<glyph name="idotless" format="2">
  <advance width="505"/>
  <unicode hex="0131"/>
  <anchor x="218" y="256" name="#entry"/>
  <anchor x="308" y="256" name="#exit"/>
  <anchor x="-162" y="0" name="%entry"/>
  <anchor x="218" y="0" name="%exit"/>
  <anchor x="0" y="0" name="^entry"/>
  <anchor x="506" y="0" name="^exit"/>
  <anchor x="262" y="0" name="bottom"/>
  <anchor x="264" y="257" name="center"/>
  <anchor x="403" y="0" name="ogonek"/>
  <anchor x="218" y="256" name="stem"/>
  <anchor x="263" y="512" name="top"/>
  <anchor x="263" y="492" name="top_low_1"/>
  <anchor x="263" y="472" name="top_low_2"/>
  <anchor x="263" y="452" name="top_low_3"/>
  <anchor x="308" y="514" name="topright"/>
  <outline>
    <contour>
      <point x="218" y="256" type="line"/>
      <point x="308" y="256" type="line"/>
      <point x="308" y="514" type="line"/>
      <point x="308" y="526" type="line"/>
      <point x="264" y="517"/>
      <point x="200" y="512"/>
      <point x="136" y="512" type="curve"/>
      <point x="102" y="512"/>
      <point x="74" y="513"/>
      <point x="55" y="514" type="curve"/>
      <point x="55" y="444" type="line"/>
      <point x="116" y="438" type="line"/>
      <point x="199" y="430"/>
      <point x="218" y="408"/>
      <point x="218" y="327" type="curve"/>
    </contour>
    <contour>
      <point x="263" y="3" type="curve"/>
      <point x="263" y="3" type="line"/>
      <point x="263" y="3" type="line"/>
      <point x="351" y="3"/>
      <point x="410" y="1"/>
      <point x="471" y="0" type="curve"/>
      <point x="471" y="70" type="line"/>
      <point x="410" y="76" type="line"/>
      <point x="327" y="84"/>
      <point x="308" y="103"/>
      <point x="308" y="177" type="curve"/>
      <point x="308" y="256" type="line"/>
      <point x="218" y="256" type="line"/>
      <point x="218" y="177" type="line"/>
      <point x="218" y="103"/>
      <point x="199" y="84"/>
      <point x="116" y="76" type="curve"/>
      <point x="55" y="70" type="line"/>
      <point x="55" y="0" type="line"/>
      <point x="116" y="1"/>
      <point x="175" y="3"/>
    </contour>
  </outline>
</glyph>
<glyph name="OE" format="2">
  <advance width="1259"/>
  <unicode hex="0152"/>
  <anchor x="622" y="0" name="bottom"/>
  <anchor x="610" y="708" name="top"/>
  <anchor x="610" y="688" name="top_low_1"/>
  <anchor x="610" y="668" name="top_low_2"/>
  <anchor x="610" y="648" name="top_low_3"/>
  <outline>
    <contour>
      <point x="496" y="-14" type="curve" smooth="yes"/>
      <point x="578" y="-14"/>
      <point x="599" y="3"/>
      <point x="703" y="3" type="curve" smooth="yes"/>
      <point x="723" y="3"/>
      <point x="780" y="3"/>
      <point x="808" y="3" type="curve" smooth="yes"/>
      <point x="840" y="3" type="line"/>
      <point x="962" y="3"/>
      <point x="1056" y="2"/>
      <point x="1127" y="0" type="curve"/>
      <point x="1127" y="88"/>
      <point x="1133" y="165"/>
      <point x="1147" y="250" type="curve"/>
      <point x="1074" y="250" type="line"/>
      <point x="1034" y="104"/>
      <point x="995" y="73"/>
      <point x="863" y="73" type="curve"/>
      <point x="850" y="73" type="line" smooth="yes"/>
      <point x="759" y="73"/>
      <point x="745" y="84"/>
      <point x="745" y="156" type="curve" smooth="yes"/>
      <point x="745" y="633" type="line"/>
      <point x="853" y="633" type="line"/>
      <point x="980" y="633"/>
      <point x="1022" y="611"/>
      <point x="1047" y="506" type="curve"/>
      <point x="1120" y="506" type="line"/>
      <point x="1112" y="574"/>
      <point x="1108" y="636"/>
      <point x="1108" y="706" type="curve"/>
      <point x="1045" y="704"/>
      <point x="963" y="703"/>
      <point x="855" y="704" type="curve"/>
      <point x="694" y="706" type="line" smooth="yes"/>
      <point x="593" y="706"/>
      <point x="576" y="722"/>
      <point x="500" y="722" type="curve" smooth="yes"/>
      <point x="261" y="722"/>
      <point x="102" y="571"/>
      <point x="102" y="345" type="curve" smooth="yes"/>
      <point x="102" y="125"/>
      <point x="255" y="-14"/>
    </contour>
    <contour>
      <point x="493" y="54" type="curve" smooth="yes"/>
      <point x="324" y="54"/>
      <point x="202" y="181"/>
      <point x="202" y="357" type="curve" smooth="yes"/>
      <point x="202" y="534"/>
      <point x="319" y="654"/>
      <point x="494" y="654" type="curve" smooth="yes"/>
      <point x="593" y="654"/>
      <point x="652" y="616"/>
      <point x="652" y="551" type="curve" smooth="yes"/>
      <point x="652" y="157" type="line" smooth="yes"/>
      <point x="652" y="95"/>
      <point x="589" y="54"/>
    </contour>
    <contour>
      <point x="707" y="321" type="line"/>
      <point x="886" y="321" type="line"/>
      <point x="886" y="391" type="line"/>
      <point x="707" y="391" type="line"/>
    </contour>
    <contour>
      <point x="886" y="214" type="curve"/>
      <point x="956" y="214" type="line"/>
      <point x="951" y="290"/>
      <point x="951" y="323"/>
      <point x="951" y="356" type="curve" smooth="yes"/>
      <point x="951" y="389"/>
      <point x="951" y="422"/>
      <point x="956" y="498" type="curve"/>
      <point x="886" y="498" type="line"/>
      <point x="879" y="433"/>
      <point x="853" y="391"/>
      <point x="785" y="391" type="curve"/>
      <point x="785" y="321" type="line"/>
      <point x="853" y="321"/>
      <point x="879" y="279"/>
    </contour>
  </outline>
</glyph>
<glyph name="oe" format="2">
  <advance width="1160"/>
  <unicode hex="0153"/>
  <anchor x="575" y="0" name="bottom"/>
  <anchor x="585" y="512" name="top"/>
  <outline>
    <contour>
      <point x="360" y="-14" type="curve" smooth="yes"/>
      <point x="519" y="-14"/>
      <point x="612" y="86"/>
      <point x="612" y="257" type="curve" smooth="yes"/>
      <point x="612" y="429"/>
      <point x="519" y="528"/>
      <point x="357" y="528" type="curve" smooth="yes"/>
      <point x="197" y="528"/>
      <point x="100" y="426"/>
      <point x="100" y="258" type="curve" smooth="yes"/>
      <point x="100" y="88"/>
      <point x="198" y="-14"/>
    </contour>
    <contour>
      <point x="362" y="56" type="curve" smooth="yes"/>
      <point x="256" y="56"/>
      <point x="197" y="128"/>
      <point x="197" y="257" type="curve" smooth="yes"/>
      <point x="197" y="386"/>
      <point x="256" y="458"/>
      <point x="362" y="458" type="curve" smooth="yes"/>
      <point x="467" y="458"/>
      <point x="525" y="386"/>
      <point x="525" y="257" type="curve" smooth="yes"/>
      <point x="525" y="128"/>
      <point x="467" y="56"/>
    </contour>
    <contour>
      <point x="799" y="-14" type="curve" smooth="yes"/>
      <point x="904" y="-14"/>
      <point x="991" y="24"/>
      <point x="1046" y="95" type="curve"/>
      <point x="988" y="149" type="line"/>
      <point x="938" y="94"/>
      <point x="884" y="71"/>
      <point x="808" y="71" type="curve" smooth="yes"/>
      <point x="688" y="71"/>
      <point x="622" y="138"/>
      <point x="622" y="260" type="curve" smooth="yes"/>
      <point x="622" y="277"/>
      <point x="623" y="294"/>
      <point x="625" y="304" type="curve"/>
      <point x="622" y="307" type="line"/>
      <point x="632" y="403"/>
      <point x="696" y="459"/>
      <point x="796" y="459" type="curve" smooth="yes"/>
      <point x="895" y="459"/>
      <point x="950" y="410"/>
      <point x="947" y="325" type="curve"/>
      <point x="579" y="325" type="line"/>
      <point x="580" y="254" type="line"/>
      <point x="1045" y="254" type="line"/>
      <point x="1051" y="437"/>
      <point x="968" y="529"/>
      <point x="801" y="529" type="curve" smooth="yes"/>
      <point x="635" y="529"/>
      <point x="535" y="417"/>
      <point x="535" y="249" type="curve" smooth="yes"/>
      <point x="535" y="82"/>
      <point x="637" y="-14"/>
    </contour>
  </outline>
</glyph>
<glyph name="bstroke" format="2">
  <advance width="848"/>
  <unicode hex="0180"/>
  <anchor x="298" y="256" name="#entry"/>
  <anchor x="298" y="256" name="#exit"/>
  <anchor x="455" y="255" name="center"/>
  <anchor x="381" y="512" name="top"/>
  <anchor x="208" y="512" name="top-left"/>
  <outline>
    <contour>
      <point x="501" y="491" type="curve" smooth="yes"/>
      <point x="399" y="491"/>
      <point x="314" y="441"/>
      <point x="279" y="359" type="curve"/>
      <point x="287" y="286" type="line"/>
      <point x="317" y="364"/>
      <point x="390" y="411"/>
      <point x="480" y="411" type="curve" smooth="yes"/>
      <point x="589" y="411"/>
      <point x="651" y="349"/>
      <point x="651" y="240" type="curve" smooth="yes"/>
      <point x="651" y="123"/>
      <point x="581" y="56"/>
      <point x="464" y="56" type="curve" smooth="yes"/>
      <point x="387" y="56"/>
      <point x="321" y="89"/>
      <point x="285" y="120" type="curve"/>
      <point x="271" y="58" type="line"/>
      <point x="313" y="18"/>
      <point x="385" y="-17"/>
      <point x="476" y="-17" type="curve" smooth="yes"/>
      <point x="641" y="-17"/>
      <point x="748" y="86"/>
      <point x="748" y="244" type="curve" smooth="yes"/>
      <point x="748" y="394"/>
      <point x="651" y="491"/>
    </contour>
    <component base="_LC-baseline-left-instroke"/>
    <component base="_LC-ascender-serifless" xOffset="-10"/>
    <component base="strokeshortcomb" xOffset="-8" yOffset="349"/>
  </outline>
</glyph>
<glyph name="Bhook" format="2">
  <advance width="1037"/>
  <unicode hex="0181"/>
  <anchor x="629" y="0" name="bottom"/>
  <anchor x="619" y="0" name="currency"/>
  <anchor x="629" y="708" name="top"/>
  <outline>
    <contour>
      <point x="442" y="3" type="curve"/>
      <point x="449" y="3" type="line"/>
      <point x="520" y="3"/>
      <point x="603" y="0"/>
      <point x="643" y="0" type="curve" smooth="yes"/>
      <point x="849" y="0"/>
      <point x="953" y="68"/>
      <point x="953" y="201" type="curve" smooth="yes"/>
      <point x="953" y="304"/>
      <point x="891" y="364"/>
      <point x="767" y="381" type="curve"/>
      <point x="767" y="383" type="line"/>
      <point x="846" y="413"/>
      <point x="886" y="465"/>
      <point x="886" y="539" type="curve" smooth="yes"/>
      <point x="886" y="649"/>
      <point x="798" y="708"/>
      <point x="632" y="708" type="curve" smooth="yes"/>
      <point x="602" y="708"/>
      <point x="524" y="705"/>
      <point x="446" y="705" type="curve"/>
      <point x="448" y="705" type="line"/>
      <point x="395" y="705"/>
      <point x="351" y="708"/>
      <point x="274" y="708" type="curve"/>
      <point x="133" y="708"/>
      <point x="74" y="650"/>
      <point x="74" y="548" type="curve"/>
      <point x="74" y="491"/>
      <point x="102" y="458"/>
      <point x="149" y="458" type="curve"/>
      <point x="190" y="458"/>
      <point x="216" y="482"/>
      <point x="216" y="518" type="curve"/>
      <point x="216" y="562"/>
      <point x="179" y="572"/>
      <point x="179" y="605" type="curve"/>
      <point x="179" y="631"/>
      <point x="198" y="638"/>
      <point x="279" y="637" type="curve"/>
      <point x="375" y="635"/>
      <point x="402" y="623"/>
      <point x="402" y="552" type="curve"/>
      <point x="402" y="156" type="line"/>
      <point x="402" y="100"/>
      <point x="384" y="84"/>
      <point x="312" y="79" type="curve"/>
      <point x="203" y="70" type="line"/>
      <point x="203" y="0" type="line"/>
      <point x="278" y="2"/>
      <point x="371" y="3"/>
    </contour>
    <contour>
      <point x="609" y="73" type="curve" smooth="yes"/>
      <point x="508" y="73"/>
      <point x="495" y="83"/>
      <point x="495" y="156" type="curve" smooth="yes"/>
      <point x="495" y="637" type="line"/>
      <point x="608" y="638" type="line" smooth="yes"/>
      <point x="736" y="639"/>
      <point x="787" y="607"/>
      <point x="787" y="528" type="curve" smooth="yes"/>
      <point x="787" y="445"/>
      <point x="726" y="402"/>
      <point x="610" y="402" type="curve" smooth="yes"/>
      <point x="480" y="402" type="line"/>
      <point x="480" y="333" type="line"/>
      <point x="659" y="333" type="line" smooth="yes"/>
      <point x="785" y="333"/>
      <point x="852" y="289"/>
      <point x="852" y="206" type="curve" smooth="yes"/>
      <point x="852" y="114"/>
      <point x="778" y="73"/>
    </contour>
  </outline>
</glyph>
<glyph name="Chook" format="2">
  <advance width="973"/>
  <unicode hex="0187"/>
  <anchor x="488" y="0" name="bottom"/>
  <anchor x="480" y="0" name="currency"/>
  <anchor x="202" y="354" name="middlestroke"/>
  <anchor x="461" y="708" name="top"/>
  <outline>
    <contour>
      <point x="452" y="-14" type="curve" smooth="yes"/>
      <point x="605" y="-14"/>
      <point x="683" y="59"/>
      <point x="720" y="59" type="curve" smooth="yes"/>
      <point x="738" y="59"/>
      <point x="748" y="42"/>
      <point x="754" y="-4" type="curve"/>
      <point x="827" y="-4" type="line"/>
      <point x="824" y="55"/>
      <point x="823" y="120"/>
      <point x="823" y="260" type="curve"/>
      <point x="750" y="260" type="line"/>
      <point x="709" y="128"/>
      <point x="611" y="54"/>
      <point x="477" y="54" type="curve" smooth="yes"/>
      <point x="307" y="54"/>
      <point x="202" y="171"/>
      <point x="202" y="356" type="curve" smooth="yes"/>
      <point x="202" y="540"/>
      <point x="306" y="654"/>
      <point x="476" y="654" type="curve" smooth="yes"/>
      <point x="612" y="654"/>
      <point x="710" y="580"/>
      <point x="749" y="448" type="curve"/>
      <point x="822" y="448" type="line"/>
      <point x="815" y="508"/>
      <point x="798" y="568"/>
      <point x="773" y="628" type="curve"/>
      <point x="704" y="628"/>
      <point x="640" y="722"/>
      <point x="468" y="722" type="curve" smooth="yes"/>
      <point x="249" y="722"/>
      <point x="102" y="570"/>
      <point x="102" y="344" type="curve" smooth="yes"/>
      <point x="102" y="130"/>
      <point x="238" y="-14"/>
    </contour>
    <contour>
      <point x="752" y="448" type="curve"/>
      <point x="822" y="448" type="line"/>
      <point x="822" y="581"/>
      <point x="753" y="659"/>
      <point x="753" y="799" type="curve" smooth="yes"/>
      <point x="753" y="836"/>
      <point x="762" y="852"/>
      <point x="782" y="852" type="curve" smooth="yes"/>
      <point x="814" y="852"/>
      <point x="830" y="815"/>
      <point x="876" y="815" type="curve" smooth="yes"/>
      <point x="913" y="815"/>
      <point x="936" y="840"/>
      <point x="936" y="879" type="curve" smooth="yes"/>
      <point x="936" y="925"/>
      <point x="898" y="951"/>
      <point x="830" y="951" type="curve" smooth="yes"/>
      <point x="735" y="951"/>
      <point x="683" y="898"/>
      <point x="683" y="802" type="curve" smooth="yes"/>
      <point x="683" y="632"/>
      <point x="752" y="554"/>
    </contour>
  </outline>
</glyph>
<glyph name="Dhook" format="2">
  <advance width="1170"/>
  <unicode hex="018A"/>
  <anchor x="666" y="0" name="bottom"/>
  <anchor x="449" y="356" name="center"/>
  <anchor x="691" y="708" name="top"/>
  <outline>
    <contour>
      <point x="590" y="0" type="curve"/>
      <point x="619" y="0" type="line" smooth="yes"/>
      <point x="916" y="0"/>
      <point x="1068" y="124"/>
      <point x="1068" y="366" type="curve" smooth="yes"/>
      <point x="1068" y="598"/>
      <point x="927" y="708"/>
      <point x="628" y="708" type="curve" smooth="yes"/>
      <point x="583" y="708"/>
      <point x="532" y="705"/>
      <point x="449" y="705" type="curve"/>
      <point x="448" y="705" type="line"/>
      <point x="395" y="705"/>
      <point x="351" y="708"/>
      <point x="274" y="708" type="curve"/>
      <point x="133" y="708"/>
      <point x="74" y="650"/>
      <point x="74" y="548" type="curve"/>
      <point x="74" y="491"/>
      <point x="102" y="458"/>
      <point x="149" y="458" type="curve"/>
      <point x="190" y="458"/>
      <point x="216" y="482"/>
      <point x="216" y="518" type="curve"/>
      <point x="216" y="562"/>
      <point x="179" y="572"/>
      <point x="179" y="605" type="curve"/>
      <point x="179" y="631"/>
      <point x="198" y="638"/>
      <point x="279" y="637" type="curve"/>
      <point x="375" y="635"/>
      <point x="402" y="623"/>
      <point x="402" y="552" type="curve"/>
      <point x="402" y="156" type="line"/>
      <point x="402" y="99"/>
      <point x="385" y="86"/>
      <point x="296" y="78" type="curve"/>
      <point x="200" y="70" type="line"/>
      <point x="200" y="0" type="line"/>
      <point x="273" y="2"/>
      <point x="374" y="3"/>
      <point x="448" y="3" type="curve"/>
      <point x="490" y="3"/>
      <point x="546" y="1"/>
    </contour>
    <contour>
      <point x="613" y="68" type="curve" smooth="yes"/>
      <point x="511" y="68"/>
      <point x="495" y="79"/>
      <point x="495" y="154" type="curve" smooth="yes"/>
      <point x="495" y="640" type="line"/>
      <point x="614" y="640" type="line" smooth="yes"/>
      <point x="858" y="640"/>
      <point x="968" y="552"/>
      <point x="968" y="359" type="curve" smooth="yes"/>
      <point x="968" y="162"/>
      <point x="854" y="68"/>
    </contour>
  </outline>
</glyph>
<glyph name="Schwa" format="2">
  <advance width="982"/>
  <unicode hex="018F"/>
  <anchor x="512" y="0" name="bottom"/>
  <anchor x="512" y="708" name="top"/>
  <anchor x="512" y="688" name="top_low_1"/>
  <anchor x="512" y="668" name="top_low_2"/>
  <anchor x="512" y="648" name="top_low_3"/>
  <outline>
    <contour>
      <point x="482" y="-14" type="curve" smooth="yes"/>
      <point x="731" y="-14"/>
      <point x="880" y="123"/>
      <point x="880" y="350" type="curve" smooth="yes"/>
      <point x="880" y="578"/>
      <point x="730" y="722"/>
      <point x="494" y="722" type="curve" smooth="yes"/>
      <point x="331" y="722"/>
      <point x="203" y="653"/>
      <point x="142" y="533" type="curve"/>
      <point x="212" y="497" type="line"/>
      <point x="275" y="599"/>
      <point x="354" y="643"/>
      <point x="474" y="643" type="curve" smooth="yes"/>
      <point x="664" y="643"/>
      <point x="780" y="530"/>
      <point x="780" y="347" type="curve" smooth="yes"/>
      <point x="780" y="167"/>
      <point x="668" y="55"/>
      <point x="490" y="55" type="curve" smooth="yes"/>
      <point x="329" y="55"/>
      <point x="211" y="144"/>
      <point x="203" y="271" type="curve"/>
      <point x="824" y="271" type="line"/>
      <point x="823" y="341" type="line"/>
      <point x="102" y="341" type="line"/>
      <point x="101" y="116"/>
      <point x="240" y="-14"/>
    </contour>
  </outline>
</glyph>
<glyph name="Eopen" format="2">
  <advance width="912"/>
  <unicode hex="0190"/>
  <anchor x="433" y="0" name="bottom"/>
  <anchor x="433" y="708" name="top"/>
  <outline>
    <contour>
      <point x="369" y="-14" type="curve" smooth="yes"/>
      <point x="518" y="-14"/>
      <point x="606" y="44"/>
      <point x="651" y="44" type="curve" smooth="yes"/>
      <point x="673" y="44"/>
      <point x="685" y="31"/>
      <point x="693" y="-4" type="curve"/>
      <point x="766" y="-4" type="line"/>
      <point x="761" y="64"/>
      <point x="759" y="138"/>
      <point x="759" y="246" type="curve"/>
      <point x="686" y="246" type="line"/>
      <point x="654" y="120"/>
      <point x="557" y="55"/>
      <point x="401" y="55" type="curve" smooth="yes"/>
      <point x="265" y="55"/>
      <point x="186" y="105"/>
      <point x="186" y="191" type="curve" smooth="yes"/>
      <point x="186" y="264"/>
      <point x="243" y="311"/>
      <point x="352" y="326" type="curve"/>
      <point x="376" y="317"/>
      <point x="400" y="313"/>
      <point x="423" y="313" type="curve" smooth="yes"/>
      <point x="465" y="313"/>
      <point x="486" y="327"/>
      <point x="486" y="354" type="curve" smooth="yes"/>
      <point x="486" y="381"/>
      <point x="465" y="395"/>
      <point x="423" y="395" type="curve" smooth="yes"/>
      <point x="400" y="395"/>
      <point x="376" y="391"/>
      <point x="352" y="382" type="curve"/>
      <point x="253" y="397"/>
      <point x="200" y="444"/>
      <point x="200" y="516" type="curve" smooth="yes"/>
      <point x="200" y="603"/>
      <point x="278" y="653"/>
      <point x="413" y="653" type="curve" smooth="yes"/>
      <point x="565" y="653"/>
      <point x="656" y="590"/>
      <point x="686" y="462" type="curve"/>
      <point x="759" y="462" type="line"/>
      <point x="759" y="570"/>
      <point x="761" y="644"/>
      <point x="766" y="712" type="curve"/>
      <point x="693" y="712" type="line"/>
      <point x="685" y="677"/>
      <point x="673" y="664"/>
      <point x="651" y="664" type="curve" smooth="yes"/>
      <point x="607" y="664"/>
      <point x="529" y="722"/>
      <point x="380" y="722" type="curve" smooth="yes"/>
      <point x="210" y="722"/>
      <point x="98" y="645"/>
      <point x="98" y="527" type="curve" smooth="yes"/>
      <point x="98" y="446"/>
      <point x="151" y="383"/>
      <point x="244" y="355" type="curve"/>
      <point x="244" y="353" type="line"/>
      <point x="141" y="324"/>
      <point x="84" y="262"/>
      <point x="84" y="179" type="curve" smooth="yes"/>
      <point x="84" y="62"/>
      <point x="197" y="-14"/>
    </contour>
  </outline>
</glyph>
<glyph name="Fhook" format="2">
  <advance width="847"/>
  <unicode hex="0191"/>
  <anchor x="402" y="0" name="bottom"/>
  <anchor x="324" y="150" name="center"/>
  <anchor x="256" y="250" name="stem"/>
  <anchor x="468" y="708" name="top"/>
  <anchor x="468" y="688" name="top_low_1"/>
  <anchor x="468" y="668" name="top_low_2"/>
  <anchor x="468" y="648" name="top_low_3"/>
  <outline>
    <contour>
      <point x="256" y="250" type="line"/>
      <point x="349" y="250" type="line"/>
      <point x="349" y="635" type="line"/>
      <point x="469" y="635" type="line"/>
      <point x="608" y="635"/>
      <point x="650" y="613"/>
      <point x="689" y="508" type="curve"/>
      <point x="762" y="508" type="line"/>
      <point x="754" y="576"/>
      <point x="750" y="638"/>
      <point x="750" y="708" type="curve"/>
      <point x="693" y="706"/>
      <point x="619" y="705"/>
      <point x="521" y="705" type="curve"/>
      <point x="304" y="705" type="line"/>
      <point x="292" y="705" type="line"/>
      <point x="232" y="705"/>
      <point x="149" y="706"/>
      <point x="90" y="708" type="curve"/>
      <point x="90" y="638" type="line"/>
      <point x="156" y="632" type="line"/>
      <point x="239" y="624"/>
      <point x="256" y="610"/>
      <point x="256" y="552" type="curve"/>
    </contour>
    <contour>
      <point x="306" y="271" type="line"/>
      <point x="543" y="271" type="line"/>
      <point x="543" y="341" type="line"/>
      <point x="306" y="341" type="line"/>
    </contour>
    <contour>
      <point x="540" y="124" type="curve"/>
      <point x="610" y="124" type="line"/>
      <point x="605" y="221"/>
      <point x="605" y="264"/>
      <point x="605" y="306" type="curve" smooth="yes"/>
      <point x="605" y="348"/>
      <point x="605" y="391"/>
      <point x="610" y="488" type="curve"/>
      <point x="540" y="488" type="line"/>
      <point x="533" y="399"/>
      <point x="507" y="341"/>
      <point x="439" y="341" type="curve"/>
      <point x="439" y="271" type="line"/>
      <point x="507" y="271"/>
      <point x="533" y="213"/>
    </contour>
    <component base="_UC-J-descender-stump" xOffset="12"/>
  </outline>
</glyph>
<glyph name="Ghook" format="2">
  <advance width="1015"/>
  <unicode hex="0193"/>
  <anchor x="501" y="0" name="bottom"/>
  <anchor x="475" y="0" name="currency"/>
  <anchor x="470" y="708" name="top"/>
  <outline>
    <contour>
      <point x="460" y="-14" type="curve" smooth="yes"/>
      <point x="595" y="-14"/>
      <point x="693" y="37"/>
      <point x="725" y="37" type="curve" smooth="yes"/>
      <point x="740" y="37"/>
      <point x="749" y="25"/>
      <point x="753" y="0" type="curve"/>
      <point x="823" y="0" type="line"/>
      <point x="823" y="198" type="line"/>
      <point x="823" y="260"/>
      <point x="833" y="274"/>
      <point x="884" y="281" type="curve"/>
      <point x="906" y="284" type="line"/>
      <point x="906" y="354" type="line"/>
      <point x="868" y="352"/>
      <point x="815" y="351"/>
      <point x="777" y="351" type="curve"/>
      <point x="778" y="351" type="line"/>
      <point x="766" y="351" type="line"/>
      <point x="706" y="351"/>
      <point x="623" y="352"/>
      <point x="564" y="354" type="curve"/>
      <point x="564" y="284" type="line"/>
      <point x="630" y="278" type="line"/>
      <point x="713" y="270"/>
      <point x="730" y="256"/>
      <point x="730" y="198" type="curve"/>
      <point x="730" y="180" type="line" smooth="yes"/>
      <point x="730" y="110"/>
      <point x="623" y="54"/>
      <point x="490" y="54" type="curve" smooth="yes"/>
      <point x="308" y="54"/>
      <point x="202" y="165"/>
      <point x="202" y="354" type="curve" smooth="yes"/>
      <point x="202" y="540"/>
      <point x="306" y="654"/>
      <point x="476" y="654" type="curve" smooth="yes"/>
      <point x="612" y="654"/>
      <point x="710" y="580"/>
      <point x="749" y="448" type="curve"/>
      <point x="822" y="448" type="line"/>
      <point x="815" y="508"/>
      <point x="798" y="568"/>
      <point x="773" y="628" type="curve"/>
      <point x="704" y="628"/>
      <point x="640" y="722"/>
      <point x="468" y="722" type="curve" smooth="yes"/>
      <point x="249" y="722"/>
      <point x="102" y="570"/>
      <point x="102" y="344" type="curve" smooth="yes"/>
      <point x="102" y="124"/>
      <point x="240" y="-14"/>
    </contour>
    <contour>
      <point x="752" y="448" type="curve"/>
      <point x="822" y="448" type="line"/>
      <point x="822" y="581"/>
      <point x="753" y="659"/>
      <point x="753" y="799" type="curve" smooth="yes"/>
      <point x="753" y="836"/>
      <point x="762" y="852"/>
      <point x="782" y="852" type="curve" smooth="yes"/>
      <point x="814" y="852"/>
      <point x="830" y="815"/>
      <point x="876" y="815" type="curve" smooth="yes"/>
      <point x="913" y="815"/>
      <point x="936" y="840"/>
      <point x="936" y="879" type="curve" smooth="yes"/>
      <point x="936" y="925"/>
      <point x="898" y="951"/>
      <point x="830" y="951" type="curve" smooth="yes"/>
      <point x="735" y="951"/>
      <point x="683" y="898"/>
      <point x="683" y="802" type="curve" smooth="yes"/>
      <point x="683" y="632"/>
      <point x="752" y="554"/>
    </contour>
  </outline>
</glyph>
<glyph name="Khook" format="2">
  <advance width="1127"/>
  <unicode hex="0198"/>
  <anchor x="539" y="0" name="bottom"/>
  <anchor x="302" y="514" name="center"/>
  <anchor x="508" y="708" name="top"/>
  <outline>
    <contour>
      <point x="740" y="0" type="curve"/>
      <point x="779" y="2"/>
      <point x="798" y="3"/>
      <point x="823" y="3" type="curve" smooth="yes"/>
      <point x="855" y="3"/>
      <point x="884" y="2"/>
      <point x="978" y="0" type="curve"/>
      <point x="978" y="70" type="line"/>
      <point x="880" y="74"/>
      <point x="835" y="94"/>
      <point x="797" y="147" type="curve" smooth="yes"/>
      <point x="707" y="274" type="line" smooth="yes"/>
      <point x="648" y="357"/>
      <point x="622" y="377"/>
      <point x="556" y="392" type="curve"/>
      <point x="575" y="356" type="line"/>
      <point x="806" y="587" type="line"/>
      <point x="859" y="640"/>
      <point x="886" y="657"/>
      <point x="916" y="657" type="curve"/>
      <point x="940" y="657"/>
      <point x="952" y="650"/>
      <point x="952" y="636" type="curve"/>
      <point x="952" y="619"/>
      <point x="932" y="605"/>
      <point x="932" y="579" type="curve"/>
      <point x="932" y="550"/>
      <point x="954" y="531"/>
      <point x="989" y="531" type="curve"/>
      <point x="1036" y="531"/>
      <point x="1067" y="564"/>
      <point x="1067" y="614" type="curve"/>
      <point x="1067" y="680"/>
      <point x="1014" y="722"/>
      <point x="933" y="722" type="curve"/>
      <point x="862" y="722"/>
      <point x="810" y="691"/>
      <point x="707" y="587" type="curve"/>
      <point x="561" y="441" type="line" smooth="yes"/>
      <point x="522" y="402"/>
      <point x="492" y="391"/>
      <point x="438" y="391" type="curve" smooth="yes"/>
      <point x="311" y="391" type="line"/>
      <point x="311" y="321" type="line"/>
      <point x="438" y="321" type="line" smooth="yes"/>
      <point x="544" y="321"/>
      <point x="573" y="307"/>
      <point x="626" y="232" type="curve" smooth="yes"/>
      <point x="711" y="112" type="line" smooth="yes"/>
      <point x="731" y="84"/>
      <point x="741" y="46"/>
    </contour>
    <contour>
      <point x="292" y="3" type="curve"/>
      <point x="302" y="3" type="line"/>
      <point x="313" y="3" type="line"/>
      <point x="373" y="3"/>
      <point x="456" y="2"/>
      <point x="515" y="0" type="curve"/>
      <point x="515" y="70" type="line"/>
      <point x="449" y="76" type="line"/>
      <point x="366" y="84"/>
      <point x="349" y="98"/>
      <point x="349" y="156" type="curve"/>
      <point x="349" y="708" type="line"/>
      <point x="333" y="706"/>
      <point x="318" y="705"/>
      <point x="302" y="705" type="curve"/>
      <point x="292" y="705" type="line"/>
      <point x="232" y="705"/>
      <point x="149" y="706"/>
      <point x="90" y="708" type="curve"/>
      <point x="90" y="638" type="line"/>
      <point x="156" y="632" type="line"/>
      <point x="239" y="624"/>
      <point x="256" y="610"/>
      <point x="256" y="552" type="curve"/>
      <point x="256" y="156" type="line"/>
      <point x="256" y="98"/>
      <point x="239" y="84"/>
      <point x="156" y="76" type="curve"/>
      <point x="90" y="70" type="line"/>
      <point x="90" y="0" type="line"/>
      <point x="149" y="2"/>
      <point x="232" y="3"/>
    </contour>
  </outline>
</glyph>
<glyph name="khook" format="2">
  <advance width="890"/>
  <unicode hex="0199"/>
  <anchor x="308" y="256" name="#entry"/>
  <anchor x="308" y="256" name="#exit"/>
  <anchor x="851" y="512" name="2ndTittle"/>
  <anchor x="594" y="0" name="^exit"/>
  <anchor x="218" y="512" name="bar"/>
  <anchor x="264" y="512" name="center"/>
  <anchor x="218" y="256" name="stem"/>
  <anchor x="388" y="773" name="top"/>
  <outline>
    <contour>
      <point x="218" y="256" type="line"/>
      <point x="308" y="256" type="line"/>
      <point x="308" y="537" type="line"/>
      <point x="308" y="661"/>
      <point x="356" y="717"/>
      <point x="463" y="717" type="curve"/>
      <point x="499" y="717"/>
      <point x="513" y="711"/>
      <point x="513" y="696" type="curve"/>
      <point x="513" y="679"/>
      <point x="493" y="665"/>
      <point x="493" y="639" type="curve"/>
      <point x="493" y="610"/>
      <point x="515" y="591"/>
      <point x="550" y="591" type="curve"/>
      <point x="596" y="591"/>
      <point x="628" y="624"/>
      <point x="628" y="672" type="curve"/>
      <point x="628" y="740"/>
      <point x="566" y="782"/>
      <point x="464" y="782" type="curve"/>
      <point x="310" y="782"/>
      <point x="218" y="689"/>
      <point x="218" y="534" type="curve"/>
    </contour>
    <component base="_LC-baseline-normal-narrow"/>
    <component base="_LC-k-legs" xOffset="253"/>
  </outline>
</glyph>
<glyph name="lambdastroke-latin" format="2">
  <advance width="818"/>
  <unicode hex="019B"/>
  <anchor x="419" y="0" name="bottom"/>
  <anchor x="419" y="245" name="center"/>
  <anchor x="419" y="773" name="top"/>
  <outline>
    <contour>
      <point x="278" y="109" type="curve"/>
      <point x="457" y="447" type="line"/>
      <point x="424" y="438" type="line"/>
      <point x="536" y="210" type="line"/>
      <point x="584" y="108"/>
      <point x="569" y="79"/>
      <point x="512" y="73" type="curve"/>
      <point x="487" y="70" type="line"/>
      <point x="487" y="0" type="line"/>
      <point x="532" y="2"/>
      <point x="583" y="3"/>
      <point x="633" y="3" type="curve"/>
      <point x="683" y="3"/>
      <point x="735" y="2"/>
      <point x="778" y="0" type="curve"/>
      <point x="778" y="70" type="line"/>
      <point x="753" y="73" type="line"/>
      <point x="690" y="81"/>
      <point x="665" y="104"/>
      <point x="619" y="200" type="curve"/>
      <point x="462" y="520" type="line"/>
      <point x="395" y="520" type="line"/>
      <point x="195" y="138" type="line"/>
      <point x="169" y="88"/>
      <point x="118" y="70"/>
      <point x="40" y="71" type="curve"/>
      <point x="40" y="0" type="line"/>
      <point x="82" y="2"/>
      <point x="128" y="3"/>
      <point x="175" y="3" type="curve"/>
      <point x="199" y="3"/>
      <point x="224" y="2"/>
      <point x="248" y="0" type="curve"/>
      <point x="247" y="40"/>
      <point x="261" y="76"/>
    </contour>
    <contour>
      <point x="194" y="441" type="line"/>
      <point x="435" y="533" type="line"/>
      <point x="392" y="588" type="line"/>
      <point x="170" y="503" type="line"/>
    </contour>
    <contour>
      <point x="403" y="484" type="line"/>
      <point x="463" y="519" type="line"/>
      <point x="387" y="677" type="line" smooth="yes"/>
      <point x="352" y="749"/>
      <point x="304" y="782"/>
      <point x="236" y="782" type="curve" smooth="yes"/>
      <point x="156" y="782"/>
      <point x="98" y="737"/>
      <point x="98" y="674" type="curve" smooth="yes"/>
      <point x="98" y="631"/>
      <point x="124" y="602"/>
      <point x="164" y="602" type="curve" smooth="yes"/>
      <point x="198" y="602"/>
      <point x="220" y="619"/>
      <point x="220" y="646" type="curve" smooth="yes"/>
      <point x="220" y="671"/>
      <point x="208" y="681"/>
      <point x="208" y="696" type="curve" smooth="yes"/>
      <point x="208" y="708"/>
      <point x="221" y="716"/>
      <point x="241" y="716" type="curve" smooth="yes"/>
      <point x="276" y="716"/>
      <point x="297" y="699"/>
      <point x="321" y="651" type="curve" smooth="yes"/>
    </contour>
    <contour>
      <point x="435" y="533" type="line"/>
      <point x="639" y="610" type="line"/>
      <point x="615" y="672" type="line"/>
      <point x="392" y="588" type="line"/>
    </contour>
  </outline>
</glyph>
